<?xml version="1.0" encoding="UTF-8" standalone="no"?>
<!-- Created with Inkscape (http://www.inkscape.org/) -->

<svg
   xmlns:dc="http://purl.org/dc/elements/1.1/"
   xmlns:cc="http://creativecommons.org/ns#"
   xmlns:rdf="http://www.w3.org/1999/02/22-rdf-syntax-ns#"
   xmlns:svg="http://www.w3.org/2000/svg"
   xmlns="http://www.w3.org/2000/svg"
   xmlns:xlink="http://www.w3.org/1999/xlink"
   version="1.0"
   width="128"
   height="128"
   id="svg2"
   style="enable-background:new">
  <metadata
     id="metadata7">
    <rdf:RDF>
      <cc:Work
         rdf:about="">
        <dc:format>image/svg+xml</dc:format>
        <dc:type
           rdf:resource="http://purl.org/dc/dcmitype/StillImage" />
        <dc:title></dc:title>
      </cc:Work>
    </rdf:RDF>
  </metadata>
  <defs
     id="defs5">
    <linearGradient
       id="linearGradient3292">
      <stop
         id="stop3294"
         style="stop-color:#000000;stop-opacity:1"
         offset="0" />
      <stop
         id="stop3304"
         style="stop-color:#ffffff;stop-opacity:1"
         offset="0.5" />
      <stop
         id="stop3296"
         style="stop-color:#ffffff;stop-opacity:1"
         offset="1" />
    </linearGradient>
    <linearGradient
       id="linearGradient5880">
      <stop
         id="stop5882"
         style="stop-color:#ffffff;stop-opacity:1"
         offset="0" />
      <stop
         id="stop5884"
         style="stop-color:#ffffff;stop-opacity:0"
         offset="1" />
    </linearGradient>
    <linearGradient
       id="linearGradient5515">
      <stop
         id="stop5517"
         style="stop-color:#ffffff;stop-opacity:0"
         offset="0" />
      <stop
         id="stop5523"
         style="stop-color:#ffffff;stop-opacity:1"
         offset="0.32512316" />
      <stop
         id="stop5519"
         style="stop-color:#ffffff;stop-opacity:0"
         offset="1" />
    </linearGradient>
    <linearGradient
       id="linearGradient5267">
      <stop
         id="stop5269"
         style="stop-color:#ffffff;stop-opacity:1"
         offset="0" />
      <stop
         id="stop5275"
         style="stop-color:#ffffff;stop-opacity:0.50359714"
         offset="0.5" />
      <stop
         id="stop5271"
         style="stop-color:#ffffff;stop-opacity:1"
         offset="1" />
    </linearGradient>
    <linearGradient
       id="linearGradient5247">
      <stop
         id="stop5249"
         style="stop-color:#ffffff;stop-opacity:1"
         offset="0" />
      <stop
         id="stop5255"
         style="stop-color:#ffffff;stop-opacity:0.79136693"
         offset="0.5" />
      <stop
         id="stop5251"
         style="stop-color:#ffffff;stop-opacity:0"
         offset="1" />
    </linearGradient>
    <linearGradient
       id="linearGradient5213">
      <stop
         id="stop5215"
         style="stop-color:#ffffff;stop-opacity:1"
         offset="0" />
      <stop
         id="stop5217"
         style="stop-color:#ffffff;stop-opacity:0"
         offset="1" />
    </linearGradient>
    <linearGradient
       id="linearGradient5131">
      <stop
         id="stop5133"
         style="stop-color:#000000;stop-opacity:1"
         offset="0" />
      <stop
         id="stop5135"
         style="stop-color:#000000;stop-opacity:0"
         offset="1" />
    </linearGradient>
    <linearGradient
       id="linearGradient4993">
      <stop
         id="stop4995"
         style="stop-color:#ffffff;stop-opacity:1"
         offset="0" />
      <stop
         id="stop4997"
         style="stop-color:#ffffff;stop-opacity:0"
         offset="1" />
    </linearGradient>
    <linearGradient
       id="linearGradient4913">
      <stop
         id="stop4915"
         style="stop-color:#ffffff;stop-opacity:1"
         offset="0" />
      <stop
         id="stop4917"
         style="stop-color:#ffffff;stop-opacity:0"
         offset="1" />
    </linearGradient>
    <linearGradient
       id="linearGradient4893">
      <stop
         id="stop4895"
         style="stop-color:#000000;stop-opacity:0"
         offset="0" />
      <stop
         id="stop4909"
         style="stop-color:#000000;stop-opacity:0"
         offset="0.61052197" />
      <stop
         id="stop4905"
         style="stop-color:#000000;stop-opacity:0.37769786"
         offset="0.68472904" />
      <stop
         id="stop4907"
         style="stop-color:#000000;stop-opacity:0"
         offset="0.7499575" />
      <stop
         id="stop4897"
         style="stop-color:#000000;stop-opacity:0"
         offset="1" />
    </linearGradient>
    <linearGradient
       id="linearGradient3285">
      <stop
         id="stop3287"
         style="stop-color:#474747;stop-opacity:1"
         offset="0" />
      <stop
         id="stop3289"
         style="stop-color:#474747;stop-opacity:0"
         offset="1" />
    </linearGradient>
    <linearGradient
       id="linearGradient3184">
      <stop
         id="stop3186"
         style="stop-color:#fcfcfc;stop-opacity:1"
         offset="0" />
      <stop
         id="stop3188"
         style="stop-color:#c0c0c0;stop-opacity:1"
         offset="1" />
    </linearGradient>
    <linearGradient
       id="linearGradient10207">
      <stop
         id="stop10209"
         style="stop-color:#b4b4b4;stop-opacity:1"
         offset="0" />
      <stop
         id="stop4937"
         style="stop-color:#d1d1d1;stop-opacity:1"
         offset="0.5" />
      <stop
         id="stop10211"
         style="stop-color:#fafafa;stop-opacity:1"
         offset="1" />
    </linearGradient>
    <radialGradient
       cx="-84"
       cy="64"
       r="60"
       fx="-84"
       fy="64"
       id="radialGradient4925"
       xlink:href="#linearGradient4913"
       gradientUnits="userSpaceOnUse" />
    <mask
       id="mask4921">
      <path
         d="m -83.999999,4 c -3.273853,0.017276 -5.375768,0.1739184 -8.625,0.625 -0.96195,0.153184 -1.75,0.7805494 -1.75,1.75 l -0.59375,9.4375 c -0.08851,0.955194 -0.756643,1.58433 -1.46875,1.8125 -0.02183,0.007 -0.0406,0.02503 -0.0625,0.03125 -4.116841,1.105169 -8.022931,2.722102 -11.625001,4.8125 -0.65155,0.281931 -1.49213,0.264937 -2.1875,-0.3125 l -7.09375,-6.25 c -0.6855,-0.685498 -1.68023,-0.57188 -2.46875,0 -2.61651,1.978592 -4.23532,3.353505 -6.5625,5.65625 -2.30274,2.327183 -3.67766,3.945984 -5.65625,6.5625 -0.57188,0.788521 -0.6855,1.783252 0,2.46875 l 6.25,7.09375 c 0.47372,0.570479 0.7362,1.308846 0.46875,1.84375 l -0.0625,0.125 c -2.24552,3.7996 -3.99486,7.936313 -5.125,12.3125 -0.0118,0.02064 -0.0187,0.04216 -0.0312,0.0625 -0.31721,0.512841 -0.85539,0.931584 -1.59375,1 l -9.4375,0.59375 c -0.96944,0 -1.59681,0.78805 -1.75,1.75 -0.45108,3.249232 -0.60772,5.351147 -0.625,8.625 0.0173,3.273853 0.17392,5.375768 0.625,8.625 0.15319,0.961946 0.78056,1.75 1.75,1.75 l 9.4375,0.59375 c 0.86735,0.08037 1.44344,0.646567 1.71875,1.28125 1.10323,4.143354 2.76625,8.064208 4.875,11.6875 0.37292,0.668507 0.38163,1.614364 -0.25,2.375 l -6.25,7.09375 c -0.6855,0.685496 -0.57188,1.680227 0,2.46875 1.97859,2.61651 3.35351,4.23531 5.65625,6.5625 2.32718,2.30274 3.94598,3.67766 6.5625,5.65625 0.78852,0.57188 1.78325,0.6855 2.46875,0 l 7.09375,-6.25 c 0.76064,-0.63163 1.70649,-0.62292 2.375,-0.25 l 0.0937,-0.0937 c 3.52766,2.01717 7.32819,3.60952 11.343751,4.6875 l 0,0.15625 c 0.736401,0.20901 1.440029,0.85927 1.53125,1.84375 l 0.59375,9.4375 c 0,0.96944 0.78805,1.59681 1.75,1.75 3.249232,0.45108 5.351147,0.60772 8.625,0.625 3.273853,-0.0173 5.375768,-0.17392 8.625,-0.625 0.961946,-0.15319 1.75,-0.78056 1.75,-1.75 l 0.59375,-9.4375 c 0.09122,-0.98448 0.794849,-1.63474 1.53125,-1.84375 l 0,-0.15625 c 4.015557,-1.07798 7.816095,-2.67033 11.34375,-4.6875 l 0.09375,0.0937 c 0.668507,-0.37292 1.614362,-0.38163 2.375,0.25 l 7.09375,6.25 c 0.685503,0.68551 1.680237,0.57189 2.46875,0 2.61651,-1.97859 4.23531,-3.35351 6.5625,-5.65625 2.30274,-2.32719 3.67766,-3.94599 5.65625,-6.5625 0.57189,-0.788513 0.68551,-1.783245 0,-2.46875 l -6.25,-7.09375 c -0.63163,-0.76064 -0.62292,-1.706493 -0.25,-2.375 2.10875,-3.623292 3.77177,-7.544146 4.875,-11.6875 0.27531,-0.634683 0.8514,-1.20088 1.71875,-1.28125 l 9.4375,-0.59375 c 0.96945,0 1.59682,-0.788054 1.75,-1.75 0.45108,-3.249232 0.60772,-5.351147 0.625,-8.625 -0.01728,-3.273853 -0.17392,-5.375768 -0.625,-8.625 -0.15318,-0.96195 -0.78055,-1.75 -1.75,-1.75 l -9.4375,-0.59375 c -0.73836,-0.06842 -1.27654,-0.487159 -1.59375,-1 -0.0056,-0.02192 -0.02559,-0.04059 -0.03125,-0.0625 -1.13014,-4.376187 -3.15121,-8.364911 -5.125,-12.3125 l -0.0625,-0.125 c -0.26745,-0.534904 -0.005,-1.273273 0.46875,-1.84375 l 6.25,-7.09375 c 0.68551,-0.685506 0.57188,-1.680234 0,-2.46875 -1.97859,-2.616516 -3.35351,-4.23532 -5.65625,-6.5625 -2.32718,-2.302747 -3.94598,-3.677659 -6.5625,-5.65625 -0.788516,-0.571884 -1.783244,-0.685505 -2.46875,0 l -7.09375,6.25 c -0.695376,0.577435 -1.535955,0.594432 -2.1875,0.3125 -3.602075,-2.090398 -7.508163,-3.707331 -11.625,-4.8125 -0.0219,-0.0062 -0.04067,-0.02426 -0.0625,-0.03125 -0.712107,-0.22817 -1.380239,-0.857306 -1.46875,-1.8125 l -0.59375,-9.4375 c 0,-0.9694506 -0.788054,-1.596816 -1.75,-1.75 -3.249232,-0.4510816 -5.351147,-0.6077236 -8.625,-0.625 z m 0,44 c 8.831999,-10e-7 16,7.168 16,16 -10e-7,8.832 -7.168001,16 -16,16 -8.832,0 -16,-7.168 -16,-16 10e-7,-8.832001 7.168001,-16 16,-16 z"
         id="path4923"
         style="fill:url(#radialGradient4925);fill-opacity:1;stroke:none" />
    </mask>
    <filter
       color-interpolation-filters="sRGB"
       id="filter5054">
      <feGaussianBlur
         id="feGaussianBlur5056"
         stdDeviation="1.2828183" />
    </filter>
    <clipPath
       id="clipPath5073">
      <path
         d="m 76.90625,-70.062499 c -2.912256,3.972096 -7.607051,6.5625 -12.90625,6.5625 -4.895788,0 -9.283068,-2.188651 -12.21875,-5.65625 -23.139626,-4.28557 -26.617645,14.039708 -31.5,30.75 0.408832,0.434 0.807117,0.86458 1.28125,1.34375 2.32718,2.30274 3.94598,3.67766 6.5625,5.65625 0.78852,0.57188 1.78325,0.6855 2.46875,0 l 7.09375,-6.25 c 0.76064,-0.63163 1.70649,-0.62292 2.375,-0.25 l 0.09375,-0.09375 c 3.52766,2.01717 7.328189,3.60952 11.34375,4.6875 l 0,0.15625 c 0.736402,0.20901 1.440029,0.85927 1.53125,1.84375 l 0.59375,9.4375 c 10e-7,0.96944 0.78805,1.59681 1.75,1.75 3.249233,0.45108 5.351147,0.60772 8.625,0.625 3.273854,-0.01728 5.375768,-0.17392 8.625,-0.625 0.961947,-0.15319 1.75,-0.78056 1.75,-1.75 l 0.59375,-9.4375 c 0.09122,-0.98448 0.794849,-1.63474 1.53125,-1.84375 l 0,-0.15625 c 4.015558,-1.07798 7.816095,-2.67033 11.34375,-4.6875 l 0.09375,0.09375 c 0.668508,-0.37292 1.614362,-0.38163 2.375,0.25 l 7.09375,6.25 c 0.685504,0.68551 1.680237,0.57189 2.46875,0 2.61651,-1.97859 4.23531,-3.35351 6.5625,-5.65625 0.48542,-0.49057 0.8952,-0.93141 1.3125,-1.375 3.92353,-7.086674 -25.609227,-43.434539 -30.84375,-31.625 z"
         id="path5075"
         style="opacity:0.43122678;fill:url(#radialGradient5077);fill-opacity:1;stroke:none" />
    </clipPath>
    <radialGradient
       cx="94.818924"
       cy="67.895119"
       r="43.734375"
       fx="94.818924"
       fy="67.895119"
       id="radialGradient5077"
       xlink:href="#linearGradient4993"
       gradientUnits="userSpaceOnUse"
       gradientTransform="matrix(1,0,0,0.5780636,0,-101.84696)" />
    <filter
       color-interpolation-filters="sRGB"
       id="filter5162">
      <feGaussianBlur
         id="feGaussianBlur5164"
         stdDeviation="0.60500001" />
    </filter>
    <filter
       color-interpolation-filters="sRGB"
       id="filter5257">
      <feGaussianBlur
         id="feGaussianBlur5259"
         stdDeviation="0.022901589" />
    </filter>
    <filter
       color-interpolation-filters="sRGB"
       id="filter5309">
      <feGaussianBlur
         id="feGaussianBlur5311"
         stdDeviation="0.093056358" />
    </filter>
    <filter
       x="-0.11277929"
       y="-0.066691414"
       width="1.2255586"
       height="1.1333828"
       color-interpolation-filters="sRGB"
       id="filter5505">
      <feGaussianBlur
         id="feGaussianBlur5507"
         stdDeviation="0.13268874" />
    </filter>
    <filter
       color-interpolation-filters="sRGB"
       id="filter5581">
      <feGaussianBlur
         id="feGaussianBlur5583"
         stdDeviation="0.20386597" />
    </filter>
    <filter
       color-interpolation-filters="sRGB"
       id="filter5718">
      <feGaussianBlur
         id="feGaussianBlur5720"
         stdDeviation="0.48701799" />
    </filter>
    <filter
       color-interpolation-filters="sRGB"
       id="filter5836">
      <feGaussianBlur
         id="feGaussianBlur5838"
         stdDeviation="0.12356379" />
    </filter>
    <filter
       color-interpolation-filters="sRGB"
       id="filter5876">
      <feGaussianBlur
         id="feGaussianBlur5878"
         stdDeviation="0.11909804" />
    </filter>
    <filter
       color-interpolation-filters="sRGB"
       id="filter5960">
      <feGaussianBlur
         id="feGaussianBlur5962"
         stdDeviation="0.069666275" />
    </filter>
    <filter
       color-interpolation-filters="sRGB"
       id="filter3310">
      <feGaussianBlur
         id="feGaussianBlur3312"
         stdDeviation="0.11377897" />
    </filter>
    <linearGradient
       id="linearGradient6446">
      <stop
         id="stop6448"
         style="stop-color:#ffffff;stop-opacity:1"
         offset="0" />
      <stop
         id="stop6450"
         style="stop-color:#ffffff;stop-opacity:0"
         offset="1" />
    </linearGradient>
    <linearGradient
       id="linearGradient6666">
      <stop
         id="stop6668"
         style="stop-color:#9fc1f2;stop-opacity:1"
         offset="0" />
      <stop
         id="stop3183"
         style="stop-color:#587eb5;stop-opacity:1"
         offset="0.5" />
      <stop
         id="stop6670"
         style="stop-color:#0c2a58;stop-opacity:1"
         offset="1" />
    </linearGradient>
    <linearGradient
       id="linearGradient2990">
      <stop
         id="stop2992"
         style="stop-color:#d7d7d7;stop-opacity:1"
         offset="0" />
      <stop
         id="stop2994"
         style="stop-color:#ffffff;stop-opacity:1"
         offset="1" />
    </linearGradient>
    <clipPath
       id="clipPath5947">
      <path
         d="m 260.44865,45.093208 a 56.61927,28.309635 0 1 1 -113.23854,0 56.61927,28.309635 0 1 1 113.23854,0 z"
         transform="matrix(0.7070054,0,0,0.7070054,-84.728337,7.4759644)"
         id="path5949"
         style="fill:#7a4c00;fill-opacity:1;stroke:none" />
    </clipPath>
    <filter
       x="-0.063963689"
       y="-0.12176881"
       width="1.1279274"
       height="1.2435375"
       color-interpolation-filters="sRGB"
       id="filter6019">
      <feGaussianBlur
         id="feGaussianBlur6021"
         stdDeviation="1.196414" />
    </filter>
    <filter
       color-interpolation-filters="sRGB"
       id="filter6085">
      <feGaussianBlur
         id="feGaussianBlur6087"
         stdDeviation="0.26087548" />
    </filter>
    <filter
       color-interpolation-filters="sRGB"
       id="filter6093">
      <feGaussianBlur
         id="feGaussianBlur6095"
         stdDeviation="0.17382035" />
    </filter>
    <clipPath
       id="clipPath6097">
      <path
         d="m 151.42888,45.294924 c -5.42224,0.212474 -9.70739,4.671813 -9.70376,10.098216 l 0,25.245539 c 0.0171,3.487235 1.83207,6.718917 4.80092,8.54838 2.96888,1.829463 6.67151,1.997824 9.79416,0.445344 l 25.24554,-12.62277 c 3.37866,-1.725896 5.50499,-5.199776 5.50499,-8.993723 0,-3.793948 -2.12633,-7.267827 -5.50499,-8.993724 L 156.3202,46.399416 c -1.51165,-0.77352 -3.19397,-1.153395 -4.89132,-1.104492 z"
         id="path6099"
         style="fill:url(#radialGradient6101);fill-opacity:1;fill-rule:evenodd;stroke:none" />
    </clipPath>
    <radialGradient
       cx="255"
       cy="63.005722"
       r="23.279442"
       fx="262.43524"
       fy="71.574997"
       id="radialGradient6101"
       xlink:href="#linearGradient3184"
       gradientUnits="userSpaceOnUse"
       gradientTransform="matrix(0.9739412,0,0,0.9750591,-92.994702,1.6957237)" />
    <clipPath
       id="clipPath6103">
      <path
         d="m 200.1619,45.294924 c -5.42224,0.212474 -9.70739,4.671813 -9.70376,10.098216 l 0,25.245539 c 0.0171,3.487235 1.83207,6.718917 4.80092,8.54838 2.96888,1.829463 6.67151,1.997824 9.79416,0.445344 l 25.24554,-12.62277 c 3.37866,-1.725896 5.50499,-5.199776 5.50499,-8.993723 0,-3.793948 -2.12633,-7.267827 -5.50499,-8.993724 l -25.24554,-12.62277 c -1.51165,-0.77352 -3.19397,-1.153395 -4.89132,-1.104492 z"
         id="path6105"
         style="fill:url(#radialGradient6107);fill-opacity:1;fill-rule:evenodd;stroke:none" />
    </clipPath>
    <radialGradient
       cx="255"
       cy="63.005722"
       r="23.279442"
       fx="262.43524"
       fy="71.574997"
       id="radialGradient6107"
       xlink:href="#linearGradient3184"
       gradientUnits="userSpaceOnUse"
       gradientTransform="matrix(0.9739412,0,0,0.9750591,-44.261685,1.6957237)" />
    <radialGradient
       cx="-1.2494017"
       cy="23.725372"
       r="60"
       fx="-1.2494017"
       fy="61.40414"
       id="radialGradient6323"
       xlink:href="#linearGradient4893"
       gradientUnits="userSpaceOnUse"
       gradientTransform="matrix(1.3581356,1.5026073,-1.6333333,1.4762927,-61.051702,-44.648234)" />
    <radialGradient
       cx="94.818924"
       cy="67.895119"
       r="43.734375"
       fx="94.818924"
       fy="67.895119"
       id="radialGradient6325"
       xlink:href="#linearGradient4993"
       gradientUnits="userSpaceOnUse"
       gradientTransform="matrix(1,0,0,0.5780636,0,-101.84696)" />
    <radialGradient
       cx="89.561417"
       cy="80.488235"
       r="43.734375"
       fx="89.561417"
       fy="80.488235"
       id="radialGradient6327"
       xlink:href="#linearGradient4993"
       gradientUnits="userSpaceOnUse"
       gradientTransform="matrix(1,0,0,0.5780636,0,-101.84696)" />
    <radialGradient
       cx="54.672985"
       cy="6.8499207"
       r="1.2890996"
       fx="54.045624"
       fy="6.341433"
       id="radialGradient6335"
       xlink:href="#linearGradient5247"
       gradientUnits="userSpaceOnUse"
       gradientTransform="matrix(1,0,0,1.9019608,0,-6.1783597)" />
    <radialGradient
       cx="54.672985"
       cy="6.8499207"
       r="1.2890996"
       fx="54.045624"
       fy="6.341433"
       id="radialGradient6337"
       xlink:href="#linearGradient5247"
       gradientUnits="userSpaceOnUse"
       gradientTransform="matrix(1,0,0,1.9019608,0,-6.1783597)" />
    <linearGradient
       x1="43.713863"
       y1="11.36219"
       x2="18.252157"
       y2="21.728621"
       id="linearGradient6339"
       xlink:href="#linearGradient5267"
       gradientUnits="userSpaceOnUse" />
    <radialGradient
       cx="54.672985"
       cy="6.8499207"
       r="1.2890996"
       fx="54.045624"
       fy="6.341433"
       id="radialGradient6341"
       xlink:href="#linearGradient5247"
       gradientUnits="userSpaceOnUse"
       gradientTransform="matrix(1,0,0,1.9019608,0,-6.1783597)" />
    <linearGradient
       x1="52.721935"
       y1="17.796528"
       x2="38.62756"
       y2="22.658024"
       id="linearGradient6343"
       xlink:href="#linearGradient5267"
       gradientUnits="userSpaceOnUse" />
    <radialGradient
       cx="54.672985"
       cy="6.8499207"
       r="1.2890996"
       fx="54.045624"
       fy="6.341433"
       id="radialGradient6345"
       xlink:href="#linearGradient5247"
       gradientUnits="userSpaceOnUse"
       gradientTransform="matrix(1,0,0,1.9019608,0,-6.1783597)" />
    <radialGradient
       cx="54.672985"
       cy="6.8499207"
       r="1.2890996"
       fx="54.672985"
       fy="6.8499207"
       id="radialGradient6347"
       xlink:href="#linearGradient3285"
       gradientUnits="userSpaceOnUse"
       gradientTransform="matrix(1,0,0,1.9019608,0,-6.1783597)" />
    <radialGradient
       cx="54.672985"
       cy="6.8499207"
       r="1.2890996"
       fx="54.672985"
       fy="6.8499207"
       id="radialGradient6349"
       xlink:href="#linearGradient3285"
       gradientUnits="userSpaceOnUse"
       gradientTransform="matrix(1,0,0,1.9019608,0,-6.1783597)" />
    <linearGradient
       x1="114.2963"
       y1="49.937351"
       x2="114.2963"
       y2="61.877388"
       id="linearGradient6353"
       xlink:href="#linearGradient5515"
       gradientUnits="userSpaceOnUse" />
    <linearGradient
       x1="310.84995"
       y1="-27.656115"
       x2="310.84995"
       y2="270.16995"
       id="linearGradient6359"
       xlink:href="#linearGradient3292"
       gradientUnits="userSpaceOnUse" />
    <radialGradient
       cx="64.101105"
       cy="61.470516"
       r="22.686441"
       fx="63.292271"
       fy="74.81649"
       id="radialGradient6361"
       xlink:href="#linearGradient6666"
       gradientUnits="userSpaceOnUse"
       gradientTransform="matrix(0.7860801,1.3435491e-7,-1.2826114e-7,0.7504268,13.712508,14.534377)" />
    <radialGradient
       cx="64.101105"
       cy="61.470516"
       r="22.686441"
       fx="76.59713"
       fy="74.429352"
       id="radialGradient6363"
       xlink:href="#linearGradient6666"
       gradientUnits="userSpaceOnUse"
       gradientTransform="matrix(0.9144973,0,0,0.8730195,5.4808175,6.9985486)" />
    <linearGradient
       x1="71.964134"
       y1="26.784721"
       x2="79.398361"
       y2="63.955555"
       id="linearGradient6365"
       xlink:href="#linearGradient6446"
       gradientUnits="userSpaceOnUse" />
    <radialGradient
       cx="267.42477"
       cy="81.257088"
       r="23.279442"
       fx="267.42477"
       fy="81.257088"
       id="radialGradient6367"
       xlink:href="#linearGradient2990"
       gradientUnits="userSpaceOnUse"
       gradientTransform="matrix(0.9679843,-0.1075536,0.2763828,2.487449,-15.584867,-92.434168)" />
    <linearGradient
       x1="63.556946"
       y1="67.196243"
       x2="62.234333"
       y2="51.360622"
       id="linearGradient6372"
       xlink:href="#linearGradient6446"
       gradientUnits="userSpaceOnUse" />
    <linearGradient
       x1="63.993221"
       y1="80.369598"
       x2="63.993221"
       y2="66.131996"
       id="linearGradient6386"
       xlink:href="#linearGradient5880"
       gradientUnits="userSpaceOnUse" />
    <linearGradient
       x1="63.993221"
       y1="80.369598"
       x2="63.993221"
       y2="66.131996"
       id="linearGradient6391"
       xlink:href="#linearGradient5880"
       gradientUnits="userSpaceOnUse" />
    <linearGradient
       x1="114.2963"
       y1="49.937351"
       x2="114.2963"
       y2="61.877388"
       id="linearGradient6395"
       xlink:href="#linearGradient5515"
       gradientUnits="userSpaceOnUse" />
    <linearGradient
       x1="62.936993"
       y1="3.8495977"
       x2="63.020756"
       y2="9.8520975"
       id="linearGradient6408"
       xlink:href="#linearGradient5213"
       gradientUnits="userSpaceOnUse"
       gradientTransform="translate(-0.02961322,-0.4585689)" />
    <linearGradient
       x1="283.5"
       y1="-52.5"
       x2="282.5"
       y2="128.5"
       id="linearGradient6412"
       xlink:href="#linearGradient5131"
       gradientUnits="userSpaceOnUse"
       gradientTransform="translate(-230.03067,39.46691)" />
    <radialGradient
       cx="-84"
       cy="64"
       r="60"
       fx="-84"
       fy="64"
       id="radialGradient6415"
       xlink:href="#linearGradient4913"
       gradientUnits="userSpaceOnUse"
       gradientTransform="translate(148,0)" />
    <linearGradient
       x1="64"
       y1="81.5"
       x2="64"
       y2="12.678303"
       id="linearGradient6421"
       xlink:href="#linearGradient10207"
       gradientUnits="userSpaceOnUse"
       gradientTransform="translate(1.5e-6,0)"
       spreadMethod="reflect" />
    <linearGradient
       x1="320.03067"
       y1="88.533089"
       x2="310.03067"
       y2="-16.466909"
       id="linearGradient6430"
       xlink:href="#linearGradient5131"
       gradientUnits="userSpaceOnUse"
       gradientTransform="translate(-230.03067,40.26691)" />
    <filter
       color-interpolation-filters="sRGB"
       id="filter6444">
      <feGaussianBlur
         id="feGaussianBlur6446"
         stdDeviation="0.84700004" />
    </filter>
  </defs>
  <path
     d="m 64.000003,4 c -3.27385,0.01728 -5.37577,0.17392 -8.625,0.625 -0.96195,0.15318 -1.75,0.78055 -1.75,1.75 l -0.59375,9.4375 c -0.08851,0.95519 -0.75664,1.58433 -1.46875,1.8125 -0.02183,0.007 -0.0406,0.02503 -0.0625,0.03125 -4.11684,1.10517 -8.02293,2.7221 -11.625,4.8125 -0.65155,0.28193 -1.49213,0.26494 -2.1875,-0.3125 l -7.09375,-6.25 c -0.6855,-0.6855 -1.68023,-0.57188 -2.46875,0 -2.61651,1.97859 -4.23532,3.3535 -6.5625,5.65625 -2.30274,2.32718 -3.67766,3.94598 -5.65625,6.5625 -0.57188,0.78852 -0.6855,1.78325 0,2.46875 l 6.25,7.09375 c 0.47372,0.57048 0.7362,1.30885 0.46875,1.84375 l -0.0625,0.125 c -2.24552,3.7996 -3.99486,7.93631 -5.125,12.3125 -0.01184,0.02064 -0.01867,0.04216 -0.03125,0.0625 -0.31721,0.51284 -0.85539,0.93158 -1.59375,1 L 6.3750027,53.625 c -0.9694404,0 -1.5968104,0.78805 -1.7500004,1.75 -0.45108,3.24923 -0.60772,5.35115 -0.625,8.625 0.01728,3.27385 0.17392,5.37577 0.625,8.625 0.15319,0.96195 0.78056,1.75 1.7500004,1.75 l 9.4375003,0.59375 c 0.86735,0.08037 1.44344,0.64657 1.71875,1.28125 1.10323,4.14335 2.76625,8.06421 4.875,11.6875 0.37292,0.66851 0.38163,1.61436 -0.25,2.375 l -6.25,7.09375 c -0.6855,0.6855 -0.57188,1.68023 0,2.46875 1.97859,2.61651 3.35351,4.23531 5.65625,6.5625 2.32718,2.30274 3.94598,3.67766 6.5625,5.65625 0.78852,0.57188 1.78325,0.6855 2.46875,0 l 7.09375,-6.25 c 0.76064,-0.63163 1.70649,-0.62292 2.375,-0.25 l 0.09375,-0.0937 c 3.52766,2.01717 7.32819,3.60952 11.34375,4.6875 l 0,0.15625 c 0.7364,0.20901 1.44003,0.85927 1.53125,1.84375 l 0.59375,9.4375 c 0,0.96944 0.78805,1.59681 1.75,1.75 3.24923,0.45108 5.35115,0.60772 8.625,0.625 3.27385,-0.0173 5.37577,-0.17392 8.625,-0.625 0.96195,-0.15319 1.75,-0.78056 1.75,-1.75 l 0.59375,-9.4375 c 0.09122,-0.98448 0.79485,-1.63474 1.53125,-1.84375 l 0,-0.15625 c 4.01556,-1.07798 7.8161,-2.67033 11.34375,-4.6875 l 0.09375,0.0937 c 0.66851,-0.37292 1.61436,-0.38163 2.375,0.25 l 7.093745,6.25 c 0.6855,0.68551 1.68024,0.57189 2.46875,0 2.616512,-1.97859 4.235312,-3.35351 6.562502,-5.65625 2.30274,-2.32719 3.67766,-3.94599 5.65625,-6.5625 0.57189,-0.78851 0.68551,-1.78324 0,-2.46875 l -6.25,-7.09375 c -0.63163,-0.76064 -0.62292,-1.70649 -0.25,-2.375 2.10875,-3.62329 3.77177,-7.54415 4.875,-11.6875 0.27531,-0.63468 0.8514,-1.20088 1.71875,-1.28125 L 121.625,74.375 c 0.96945,0 1.59682,-0.78805 1.75,-1.75 0.45108,-3.24923 0.60772,-5.35115 0.625,-8.625 -0.0173,-3.27385 -0.17392,-5.37577 -0.625,-8.625 -0.15318,-0.96195 -0.78055,-1.75 -1.75,-1.75 l -9.4375,-0.59375 c -0.73836,-0.06842 -1.27654,-0.48716 -1.59375,-1 -0.006,-0.02192 -0.0256,-0.04059 -0.0312,-0.0625 -1.13014,-4.37619 -3.15121,-8.36491 -5.125,-12.3125 l -0.0625,-0.125 c -0.26745,-0.5349 -0.005,-1.27327 0.46875,-1.84375 l 6.25,-7.09375 c 0.68551,-0.68551 0.57188,-1.68023 0,-2.46875 -1.97859,-2.61652 -3.35351,-4.23532 -5.65625,-6.5625 -2.32718,-2.30275 -3.94598,-3.67766 -6.562502,-5.65625 -0.78852,-0.57188 -1.78324,-0.68551 -2.46875,0 l -7.093745,6.25 c -0.69538,0.57744 -1.53595,0.59443 -2.1875,0.3125 -3.60207,-2.0904 -7.50816,-3.70733 -11.625,-4.8125 -0.0219,-0.0062 -0.04067,-0.02425 -0.0625,-0.03125 -0.71211,-0.22817 -1.38024,-0.85731 -1.46875,-1.8125 L 74.375003,6.375 c 0,-0.96945 -0.78805,-1.59682 -1.75,-1.75 -3.24923,-0.45108 -5.35115,-0.60772 -8.625,-0.625 z m 0,44 c 8.832,0 16,7.168 16,16 0,8.832 -7.168,16 -16,16 -8.832,0 -16,-7.168 -16,-16 0,-8.832 7.168,-16 16,-16 z"
     id="path5091"
     style="fill:#363636;fill-opacity:1;stroke:#767676;stroke-width:2;stroke-linecap:round;stroke-linejoin:round;stroke-miterlimit:4;stroke-opacity:1;stroke-dasharray:none;stroke-dashoffset:1.08779998" />
  <path
     d="m 63.969328,4.76691 c -3.27385,0.01728 -5.37577,0.17392 -8.625,0.625 -0.96195,0.15318 -1.75,0.78055 -1.75,1.75 l -0.59375,9.4375 c -0.08851,0.95519 -0.75664,1.58433 -1.46875,1.8125 -0.02183,0.007 -0.0406,0.02503 -0.0625,0.03125 -4.11684,1.10517 -8.02293,2.7221 -11.625,4.8125 -0.65155,0.28193 -1.49213,0.26494 -2.1875,-0.3125 l -7.09375,-6.25 c -0.6855,-0.6855 -1.68023,-0.57188 -2.46875,0 -2.61651,1.97859 -4.23532,3.3535 -6.5625,5.65625 -2.30274,2.32718 -3.67766,3.94598 -5.65625,6.5625 -0.57188,0.78852 -0.6855,1.78325 0,2.46875 l 6.25,7.09375 c 0.47372,0.57048 0.7362,1.30885 0.46875,1.84375 l -0.0625,0.125 c -2.24552,3.7996 -3.99486,7.936315 -5.125,12.312505 -0.01184,0.02064 -0.01867,0.04216 -0.03125,0.0625 -0.31721,0.512841 -0.85539,0.931584 -1.59375,1 l -9.4375003,0.59375 c -0.9694401,0 -1.5968101,0.78805 -1.7500001,1.75 -0.45108,3.249232 -0.60772,5.351147 -0.625,8.625 0.01728,3.273853 0.17392,5.375768 0.625,8.625 0.15319,0.961946 0.78056,1.75 1.7500001,1.75 l 9.4375003,0.59375 c 0.86735,0.08037 1.44344,0.646567 1.71875,1.28125 1.10323,4.143354 2.76625,8.064208 4.875,11.6875 0.37292,0.668507 0.38163,1.614364 -0.25,2.375 l -6.25,7.09375 c -0.6855,0.685496 -0.57188,1.680225 0,2.468755 1.97859,2.61651 3.35351,4.23531 5.65625,6.5625 2.32718,2.30274 3.94598,3.67766 6.5625,5.65625 0.78852,0.57188 1.78325,0.6855 2.46875,0 l 7.09375,-6.25 c 0.76064,-0.63163 1.70649,-0.62292 2.375,-0.25 l 0.09375,-0.0937 c 3.52766,2.01717 7.32819,3.60952 11.34375,4.6875 l 0,0.15625 c 0.7364,0.20901 1.44003,0.85927 1.53125,1.84375 l 0.59375,9.4375 c 0,0.96944 0.78805,1.59681 1.75,1.75 3.24923,0.45108 5.35115,0.60772 8.625,0.625 3.27385,-0.0173 5.37577,-0.17392 8.625,-0.625 0.96195,-0.15319 1.75,-0.78056 1.75,-1.75 l 0.59375,-9.4375 c 0.09122,-0.98448 0.79485,-1.63474 1.53125,-1.84375 l 0,-0.15625 c 4.01556,-1.07798 7.8161,-2.67033 11.34375,-4.6875 l 0.09375,0.0937 c 0.66851,-0.37292 1.61436,-0.38163 2.375,0.25 l 7.09375,6.25 c 0.6855,0.68551 1.68024,0.57189 2.46875,0 2.616512,-1.97859 4.235312,-3.35351 6.562502,-5.65625 2.30274,-2.32719 3.67766,-3.94599 5.65625,-6.5625 0.57189,-0.78852 0.68551,-1.78325 0,-2.468755 l -6.25,-7.09375 c -0.63163,-0.76064 -0.62292,-1.706493 -0.25,-2.375 2.10875,-3.623292 3.77177,-7.544146 4.875,-11.6875 0.27531,-0.634683 0.8514,-1.20088 1.71875,-1.28125 l 9.4375,-0.59375 c 0.96945,0 1.59682,-0.788054 1.75,-1.75 0.45108,-3.249232 0.60772,-5.351147 0.625,-8.625 -0.0173,-3.273853 -0.17392,-5.375768 -0.625,-8.625 -0.15318,-0.96195 -0.78055,-1.75 -1.75,-1.75 l -9.4375,-0.59375 c -0.73836,-0.06842 -1.27654,-0.487159 -1.59375,-1 -0.006,-0.02192 -0.0256,-0.04059 -0.0312,-0.0625 -1.13014,-4.37619 -3.15121,-8.36491 -5.125,-12.312505 l -0.0625,-0.125 c -0.26745,-0.5349 -0.005,-1.27327 0.46875,-1.84375 l 6.25,-7.09375 c 0.68551,-0.68551 0.57188,-1.68023 0,-2.46875 -1.97859,-2.61652 -3.35351,-4.23532 -5.65625,-6.5625 -2.32718,-2.30275 -3.94598,-3.67766 -6.562502,-5.65625 -0.78852,-0.57188 -1.78324,-0.68551 -2.46875,0 l -7.09375,6.25 c -0.69538,0.57744 -1.53595,0.59443 -2.1875,0.3125 -3.60207,-2.0904 -7.50816,-3.70733 -11.625,-4.8125 -0.0219,-0.0062 -0.04067,-0.02425 -0.0625,-0.03125 -0.71211,-0.22817 -1.38024,-0.85731 -1.46875,-1.8125 l -0.59375,-9.4375 c 0,-0.96945 -0.78805,-1.59682 -1.75,-1.75 -3.24923,-0.45108 -5.35115,-0.60772 -8.625,-0.625 z"
     id="path6428"
     style="fill:none;stroke:url(#linearGradient6430);stroke-width:1;stroke-linecap:round;stroke-linejoin:round;stroke-miterlimit:4;stroke-opacity:1;stroke-dasharray:none;stroke-dashoffset:1.08779998;filter:url(#filter6444)" />
  <path
     d="m 64.000002,4 c -3.273853,0.01728 -5.375768,0.17392 -8.625,0.625 -0.96195,0.15318 -1.75,0.78055 -1.75,1.75 l -0.59375,9.4375 c -0.08851,0.95519 -0.756643,1.58433 -1.46875,1.8125 -0.02183,0.007 -0.0406,0.02503 -0.0625,0.03125 -4.116837,1.10517 -8.022926,2.7221 -11.625,4.8125 -0.651546,0.28193 -1.492126,0.26494 -2.1875,-0.3125 l -7.09375,-6.25 c -0.685498,-0.6855 -1.680227,-0.57188 -2.46875,0 -2.616515,1.97859 -4.235317,3.35351 -6.5625,5.65625 -2.302745,2.32718 -3.677658,3.94598 -5.65625,6.5625 -0.571877,0.78852 -0.685498,1.78325 0,2.46875 l 6.25,7.09375 c 0.473721,0.57048 0.736202,1.30885 0.46875,1.84375 l -0.0625,0.125 c -2.245518,3.7996 -3.99486,7.936314 -5.125,12.312501 -0.01184,0.02064 -0.01867,0.04216 -0.03125,0.0625 -0.317209,0.512841 -0.85539,0.931584 -1.59375,1 l -9.4375003,0.59375 c -0.9694402,0 -1.5968102,0.78805 -1.7500002,1.75 -0.45108,3.249232 -0.60772,5.351147 -0.625,8.625 0.01728,3.273853 0.17392,5.375768 0.625,8.625 0.15319,0.961946 0.78056,1.75 1.7500002,1.75 l 9.4375003,0.59375 c 0.867346,0.08037 1.443436,0.646567 1.71875,1.28125 1.10323,4.143354 2.766253,8.064208 4.875,11.6875 0.372921,0.668507 0.38163,1.614364 -0.25,2.375 l -6.25,7.09375 c -0.685498,0.685496 -0.57188,1.680229 0,2.468749 1.978592,2.61651 3.353505,4.23531 5.65625,6.5625 2.327183,2.30274 3.945984,3.67766 6.5625,5.65625 0.788521,0.57188 1.783252,0.6855 2.46875,0 l 7.09375,-6.25 c 0.760638,-0.63163 1.706493,-0.62292 2.375,-0.25 l 0.09375,-0.0937 c 3.527655,2.01717 7.328193,3.60952 11.34375,4.6875 l 0,0.15625 c 0.736401,0.20901 1.440029,0.85927 1.53125,1.84375 l 0.59375,9.4375 c 0,0.96944 0.78805,1.59681 1.75,1.75 3.249232,0.45108 5.351147,0.60772 8.625,0.625 3.273853,-0.0173 5.375768,-0.17392 8.625,-0.625 0.961946,-0.15319 1.75,-0.78056 1.75,-1.75 l 0.59375,-9.4375 c 0.09122,-0.98448 0.794849,-1.63474 1.53125,-1.84375 l 0,-0.15625 c 4.015557,-1.07798 7.816095,-2.67033 11.34375,-4.6875 l 0.09375,0.0937 c 0.668507,-0.37292 1.614362,-0.38163 2.375,0.25 l 7.093746,6.25 c 0.68551,0.68551 1.68024,0.57189 2.46875,0 2.616512,-1.97859 4.235312,-3.35351 6.562502,-5.65625 2.30274,-2.32719 3.67766,-3.94599 5.65625,-6.5625 0.57189,-0.78851 0.68551,-1.783244 0,-2.468749 l -6.25,-7.09375 c -0.63163,-0.76064 -0.62292,-1.706493 -0.25,-2.375 2.10875,-3.623292 3.77177,-7.544146 4.875,-11.6875 0.27531,-0.634683 0.8514,-1.20088 1.71875,-1.28125 l 9.4375,-0.59375 c 0.96945,0 1.59682,-0.788054 1.75,-1.75 0.45108,-3.249232 0.60772,-5.351147 0.625,-8.625 -0.0173,-3.273853 -0.17392,-5.375768 -0.625,-8.625 -0.15318,-0.96195 -0.78055,-1.75 -1.75,-1.75 l -9.4375,-0.59375 c -0.73836,-0.06842 -1.27654,-0.487159 -1.59375,-1 -0.006,-0.02192 -0.0256,-0.04059 -0.0312,-0.0625 -1.13014,-4.376187 -3.15121,-8.364911 -5.125,-12.312501 l -0.0625,-0.125 c -0.26745,-0.5349 -0.005,-1.27327 0.46875,-1.84375 l 6.25,-7.09375 c 0.68551,-0.68551 0.57188,-1.68023 0,-2.46875 -1.97859,-2.61652 -3.35351,-4.23532 -5.65625,-6.5625 -2.32718,-2.30275 -3.94598,-3.67766 -6.562502,-5.65625 -0.78851,-0.57188 -1.78324,-0.6855 -2.46875,0 l -7.093746,6.25 c -0.695376,0.57744 -1.535955,0.59443 -2.1875,0.3125 -3.602075,-2.0904 -7.508163,-3.70733 -11.625,-4.8125 -0.0219,-0.0062 -0.04067,-0.02425 -0.0625,-0.03125 -0.712107,-0.22817 -1.380239,-0.85731 -1.46875,-1.8125 L 74.375002,6.375 c 0,-0.96945 -0.788054,-1.59682 -1.75,-1.75 C 69.37577,4.17392 67.273855,4.01728 64.000002,4 z m 0,44.000001 c 8.831999,-10e-7 16,7.168 16,16 -10e-7,8.832 -7.168001,16 -16,16 -8.832,0 -16,-7.168 -16,-16 10e-7,-8.832001 7.168001,-16 16,-16 z"
     id="path3139"
     style="fill:url(#linearGradient6421);fill-opacity:1;stroke:none" />
  <path
     d="m -83.999999,4 c -3.273853,0.017276 -5.375768,0.1739184 -8.625,0.625 -0.96195,0.153184 -1.75,0.7805494 -1.75,1.75 l -0.59375,9.4375 c -0.08851,0.955194 -0.756643,1.58433 -1.46875,1.8125 -0.02183,0.007 -0.0406,0.02503 -0.0625,0.03125 -4.116841,1.105169 -8.022931,2.722102 -11.625001,4.8125 -0.65155,0.281931 -1.49213,0.264937 -2.1875,-0.3125 l -7.09375,-6.25 c -0.6855,-0.685498 -1.68023,-0.57188 -2.46875,0 -2.61651,1.978592 -4.23532,3.353505 -6.5625,5.65625 -2.30274,2.327183 -3.67766,3.945984 -5.65625,6.5625 -0.57188,0.788521 -0.6855,1.783252 0,2.46875 l 6.25,7.09375 c 0.47372,0.570479 0.7362,1.308846 0.46875,1.84375 l -0.0625,0.125 c -2.24552,3.7996 -3.99486,7.936313 -5.125,12.3125 -0.0118,0.02064 -0.0187,0.04216 -0.0312,0.0625 -0.31721,0.512841 -0.85539,0.931584 -1.59375,1 l -9.4375,0.59375 c -0.96944,0 -1.59681,0.78805 -1.75,1.75 -0.45108,3.249232 -0.60772,5.351147 -0.625,8.625 0.0173,3.273853 0.17392,5.375768 0.625,8.625 0.15319,0.961946 0.78056,1.75 1.75,1.75 l 9.4375,0.59375 c 0.86735,0.08037 1.44344,0.646567 1.71875,1.28125 1.10323,4.143354 2.76625,8.064208 4.875,11.6875 0.37292,0.668507 0.38163,1.614364 -0.25,2.375 l -6.25,7.09375 c -0.6855,0.685496 -0.57188,1.680227 0,2.46875 1.97859,2.61651 3.35351,4.23531 5.65625,6.5625 2.32718,2.30274 3.94598,3.67766 6.5625,5.65625 0.78852,0.57188 1.78325,0.6855 2.46875,0 l 7.09375,-6.25 c 0.76064,-0.63163 1.70649,-0.62292 2.375,-0.25 l 0.0937,-0.0937 c 3.52766,2.01717 7.32819,3.60952 11.343751,4.6875 l 0,0.15625 c 0.736401,0.20901 1.440029,0.85927 1.53125,1.84375 l 0.59375,9.4375 c 0,0.96944 0.78805,1.59681 1.75,1.75 3.249232,0.45108 5.351147,0.60772 8.625,0.625 3.273853,-0.0173 5.375768,-0.17392 8.625,-0.625 0.961946,-0.15319 1.75,-0.78056 1.75,-1.75 l 0.59375,-9.4375 c 0.09122,-0.98448 0.794849,-1.63474 1.53125,-1.84375 l 0,-0.15625 c 4.015557,-1.07798 7.816095,-2.67033 11.34375,-4.6875 l 0.09375,0.0937 c 0.668507,-0.37292 1.614362,-0.38163 2.375,0.25 l 7.09375,6.25 c 0.685503,0.68551 1.680237,0.57189 2.46875,0 2.61651,-1.97859 4.23531,-3.35351 6.5625,-5.65625 2.30274,-2.32719 3.67766,-3.94599 5.65625,-6.5625 0.57189,-0.788513 0.68551,-1.783245 0,-2.46875 l -6.25,-7.09375 c -0.63163,-0.76064 -0.62292,-1.706493 -0.25,-2.375 2.10875,-3.623292 3.77177,-7.544146 4.875,-11.6875 0.27531,-0.634683 0.8514,-1.20088 1.71875,-1.28125 l 9.4375,-0.59375 c 0.96945,0 1.59682,-0.788054 1.75,-1.75 0.45108,-3.249232 0.60772,-5.351147 0.625,-8.625 -0.01728,-3.273853 -0.17392,-5.375768 -0.625,-8.625 -0.15318,-0.96195 -0.78055,-1.75 -1.75,-1.75 l -9.4375,-0.59375 c -0.73836,-0.06842 -1.27654,-0.487159 -1.59375,-1 -0.0056,-0.02192 -0.02559,-0.04059 -0.03125,-0.0625 -1.13014,-4.376187 -3.15121,-8.364911 -5.125,-12.3125 l -0.0625,-0.125 c -0.26745,-0.534904 -0.005,-1.273273 0.46875,-1.84375 l 6.25,-7.09375 c 0.68551,-0.685506 0.57188,-1.680234 0,-2.46875 -1.97859,-2.616516 -3.35351,-4.23532 -5.65625,-6.5625 -2.32718,-2.302747 -3.94598,-3.677659 -6.5625,-5.65625 -0.788516,-0.571884 -1.783244,-0.685505 -2.46875,0 l -7.09375,6.25 c -0.695376,0.577435 -1.535955,0.594432 -2.1875,0.3125 -3.602075,-2.090398 -7.508163,-3.707331 -11.625,-4.8125 -0.0219,-0.0062 -0.04067,-0.02426 -0.0625,-0.03125 -0.712107,-0.22817 -1.380239,-0.857306 -1.46875,-1.8125 l -0.59375,-9.4375 c 0,-0.9694506 -0.788054,-1.596816 -1.75,-1.75 -3.249232,-0.4510816 -5.351147,-0.6077236 -8.625,-0.625 z m 0,44 c 8.831999,-10e-7 16,7.168 16,16 -10e-7,8.832 -7.168001,16 -16,16 -8.832,0 -16,-7.168 -16,-16 10e-7,-8.832001 7.168001,-16 16,-16 z"
     transform="translate(148,0)"
     mask="url(#mask4921)"
     id="path4891"
     style="fill:url(#radialGradient6323);fill-opacity:1;stroke:none" />
  <path
     d="m 76.90625,-70.062499 c -2.912256,3.972096 -7.607051,6.5625 -12.90625,6.5625 -4.895788,0 -9.283068,-2.188651 -12.21875,-5.65625 l -31.5,30.75 c 0.408832,0.434 0.807117,0.86458 1.28125,1.34375 2.32718,2.30274 3.94598,3.67766 6.5625,5.65625 0.78852,0.57188 1.78325,0.6855 2.46875,0 l 7.09375,-6.25 c 0.76064,-0.63163 1.70649,-0.62292 2.375,-0.25 l 0.09375,-0.09375 c 3.52766,2.01717 7.328189,3.60952 11.34375,4.6875 l 0,0.15625 c 0.736402,0.20901 1.440029,0.85927 1.53125,1.84375 l 0.59375,9.4375 c 10e-7,0.96944 0.78805,1.59681 1.75,1.75 3.249233,0.45108 5.351147,0.60772 8.625,0.625 3.273854,-0.01728 5.375768,-0.17392 8.625,-0.625 0.961947,-0.15319 1.75,-0.78056 1.75,-1.75 l 0.59375,-9.4375 c 0.09122,-0.98448 0.794849,-1.63474 1.53125,-1.84375 l 0,-0.15625 c 4.015558,-1.07798 7.816095,-2.67033 11.34375,-4.6875 l 0.09375,0.09375 c 0.668508,-0.37292 1.614362,-0.38163 2.375,0.25 l 7.09375,6.25 c 0.685504,0.68551 1.680237,0.57189 2.46875,0 2.61651,-1.97859 4.23531,-3.35351 6.5625,-5.65625 0.48542,-0.49057 0.8952,-0.93141 1.3125,-1.375 l -30.84375,-31.625 z"
     transform="translate(1.5e-6,143.5)"
     clip-path="url(#clipPath5073)"
     id="path4953"
     style="opacity:0.95923911;fill:url(#radialGradient6325);fill-opacity:1;stroke:none;filter:url(#filter5054)" />
  <path
     d="m 76.90625,-70.062499 c -2.912256,3.972096 -7.607051,6.5625 -12.90625,6.5625 -4.895788,0 -9.283068,-2.188651 -12.21875,-5.65625 l -31.5,30.75 c 0.408832,0.434 0.807117,0.86458 1.28125,1.34375 2.32718,2.30274 3.94598,3.67766 6.5625,5.65625 0.78852,0.57188 1.78325,0.6855 2.46875,0 l 7.09375,-6.25 c 0.76064,-0.63163 1.70649,-0.62292 2.375,-0.25 l 0.09375,-0.09375 c 3.52766,2.01717 7.328189,3.60952 11.34375,4.6875 l 0,0.15625 c 0.736402,0.20901 1.440029,0.85927 1.53125,1.84375 l 0.59375,9.4375 c 10e-7,0.96944 0.78805,1.59681 1.75,1.75 3.249233,0.45108 5.351147,0.60772 8.625,0.625 3.273854,-0.01728 5.375768,-0.17392 8.625,-0.625 0.961947,-0.15319 1.75,-0.78056 1.75,-1.75 l 0.59375,-9.4375 c 0.09122,-0.98448 0.794849,-1.63474 1.53125,-1.84375 l 0,-0.15625 c 4.015558,-1.07798 7.816095,-2.67033 11.34375,-4.6875 l 0.09375,0.09375 c 0.668508,-0.37292 1.614362,-0.38163 2.375,0.25 l 7.09375,6.25 c 0.685504,0.68551 1.680237,0.57189 2.46875,0 2.61651,-1.97859 4.23531,-3.35351 6.5625,-5.65625 0.48542,-0.49057 0.8952,-0.93141 1.3125,-1.375 l -30.84375,-31.625 z"
     transform="matrix(-1,0,0,-1,127.98705,-15.49155)"
     clip-path="url(#clipPath5073)"
     id="path5079"
     style="opacity:0.9918478;fill:url(#radialGradient6327);fill-opacity:1;stroke:none;filter:url(#filter5054)" />
  <path
     d="m 64.000002,4 c -3.27385,0.01728 -5.37577,0.17392 -8.625,0.625 -0.96195,0.15318 -1.75,0.78055 -1.75,1.75 l -0.59375,9.4375 c -0.08851,0.95519 -0.75664,1.58433 -1.46875,1.8125 -0.02183,0.007 -0.0406,0.02503 -0.0625,0.03125 -4.11684,1.10517 -8.02293,2.7221 -11.625,4.8125 -0.65155,0.28193 -1.49213,0.26494 -2.1875,-0.3125 l -7.09375,-6.25 c -0.6855,-0.6855 -1.68023,-0.57188 -2.46875,0 -2.61651,1.97859 -4.23532,3.3535 -6.5625,5.65625 -2.30274,2.32718 -3.67766,3.94598 -5.65625,6.5625 -0.57188,0.78852 -0.6855,1.78325 0,2.46875 l 6.25,7.09375 c 0.47372,0.57048 0.7362,1.30885 0.46875,1.84375 l -0.0625,0.125 c -2.24552,3.7996 -3.99486,7.936313 -5.125,12.3125 -0.01184,0.02064 -0.01867,0.04216 -0.03125,0.0625 -0.31721,0.512841 -0.85539,0.931584 -1.59375,1 L 6.3750017,53.625 c -0.9694397,0 -1.5968097,0.78805 -1.7499997,1.75 -0.45108,3.249232 -0.60772,5.351147 -0.625,8.625 0.01728,3.273853 0.17392,5.375768 0.625,8.625 0.15319,0.961946 0.78056,1.75 1.7499997,1.75 l 9.4375003,0.59375 c 0.86735,0.08037 1.44344,0.646567 1.71875,1.28125 1.10323,4.143354 2.76625,8.064208 4.875,11.6875 0.37292,0.668507 0.38163,1.614364 -0.25,2.375 l -6.25,7.09375 c -0.6855,0.685496 -0.57188,1.68023 0,2.46875 1.97859,2.61651 3.35351,4.23531 5.65625,6.5625 2.32718,2.30274 3.94598,3.67766 6.5625,5.65625 0.78852,0.57188 1.78325,0.6855 2.46875,0 l 7.09375,-6.25 c 0.76064,-0.63163 1.70649,-0.62292 2.375,-0.25 l 0.09375,-0.0937 c 3.52766,2.01717 7.32819,3.60952 11.34375,4.6875 l 0,0.15625 c 0.7364,0.20901 1.44003,0.85927 1.53125,1.84375 l 0.59375,9.4375 c 0,0.96944 0.78805,1.59681 1.75,1.75 3.24923,0.45108 5.35115,0.60772 8.625,0.625 3.27385,-0.0173 5.37577,-0.17392 8.625,-0.625 0.96195,-0.15319 1.75,-0.78056 1.75,-1.75 l 0.59375,-9.4375 c 0.09122,-0.98448 0.79485,-1.63474 1.53125,-1.84375 l 0,-0.15625 c 4.01556,-1.07798 7.8161,-2.67033 11.34375,-4.6875 l 0.09375,0.0937 c 0.66851,-0.37292 1.61436,-0.38163 2.375,0.25 l 7.093746,6.25 c 0.6855,0.68551 1.68024,0.57189 2.46875,0 2.616512,-1.97859 4.235312,-3.35351 6.562502,-5.65625 2.30274,-2.32719 3.67766,-3.94599 5.65625,-6.5625 0.57189,-0.78851 0.68551,-1.783245 0,-2.46875 l -6.25,-7.09375 c -0.63163,-0.76064 -0.62292,-1.706493 -0.25,-2.375 2.10875,-3.623292 3.77177,-7.544146 4.875,-11.6875 0.27531,-0.634683 0.8514,-1.20088 1.71875,-1.28125 L 121.625,74.375 c 0.96945,0 1.59682,-0.788054 1.75,-1.75 0.45108,-3.249232 0.60772,-5.351147 0.625,-8.625 -0.0173,-3.273853 -0.17392,-5.375768 -0.625,-8.625 -0.15318,-0.96195 -0.78055,-1.75 -1.75,-1.75 l -9.4375,-0.59375 c -0.73836,-0.06842 -1.27654,-0.487159 -1.59375,-1 -0.006,-0.02192 -0.0256,-0.04059 -0.0312,-0.0625 -1.13014,-4.376187 -3.15121,-8.364911 -5.125,-12.3125 l -0.0625,-0.125 c -0.26745,-0.5349 -0.005,-1.27327 0.46875,-1.84375 l 6.25,-7.09375 c 0.68551,-0.68551 0.57188,-1.68023 0,-2.46875 -1.97859,-2.61652 -3.35351,-4.23532 -5.65625,-6.5625 -2.32718,-2.30275 -3.94598,-3.67766 -6.562502,-5.65625 -0.78852,-0.57188 -1.78324,-0.68551 -2.46875,0 l -7.093746,6.25 c -0.69538,0.57744 -1.53595,0.59443 -2.1875,0.3125 -3.60207,-2.0904 -7.50816,-3.70733 -11.625,-4.8125 -0.0219,-0.0062 -0.04067,-0.02425 -0.0625,-0.03125 -0.71211,-0.22817 -1.38024,-0.85731 -1.46875,-1.8125 L 74.375002,6.375 c 0,-0.96945 -0.78805,-1.59682 -1.75,-1.75 -3.24923,-0.45108 -5.35115,-0.60772 -8.625,-0.625 z m 0,44 c 8.832,-10e-7 16,7.168 16,16 0,8.832 -7.168,16 -16,16 -8.832,0 -16,-7.168 -16,-16 0,-8.832001 7.168,-16 16,-16 z"
     id="path5085"
     style="opacity:0.73234199;fill:url(#radialGradient6415);fill-opacity:1;stroke:none" />
  <path
     d="m 63.969328,3.96691 c -3.27385,0.01728 -5.37577,0.17392 -8.625,0.625 -0.96195,0.15318 -1.75,0.78055 -1.75,1.75 l -0.59375,9.4375 c -0.08851,0.95519 -0.75664,1.58433 -1.46875,1.8125 -0.02183,0.007 -0.0406,0.02503 -0.0625,0.03125 -4.11684,1.10517 -8.02293,2.7221 -11.625,4.8125 -0.65155,0.28193 -1.49213,0.26494 -2.1875,-0.3125 l -7.09375,-6.25 c -0.6855,-0.6855 -1.68023,-0.57188 -2.46875,0 -2.61651,1.97859 -4.23532,3.3535 -6.5625,5.65625 -2.30274,2.32718 -3.67766,3.94598 -5.65625,6.5625 -0.57188,0.78852 -0.6855,1.78325 0,2.46875 l 6.25,7.09375 c 0.47372,0.57048 0.7362,1.30885 0.46875,1.84375 l -0.0625,0.125 c -2.24552,3.7996 -3.99486,7.936315 -5.125,12.312505 -0.01184,0.02064 -0.01867,0.04216 -0.03125,0.0625 -0.31721,0.512841 -0.85539,0.931584 -1.59375,1 l -9.4375003,0.59375 c -0.9694401,0 -1.5968101,0.78805 -1.7500001,1.75 -0.45108,3.249232 -0.60772,5.351147 -0.625,8.625 0.01728,3.273853 0.17392,5.375768 0.625,8.625 0.15319,0.961946 0.78056,1.75 1.7500001,1.75 l 9.4375003,0.59375 c 0.86735,0.08037 1.44344,0.646567 1.71875,1.28125 1.10323,4.143354 2.76625,8.064208 4.875,11.6875 0.37292,0.668507 0.38163,1.614364 -0.25,2.375 l -6.25,7.09375 c -0.6855,0.685496 -0.57188,1.680225 0,2.468755 1.97859,2.61651 3.35351,4.23531 5.65625,6.5625 2.32718,2.30274 3.94598,3.67766 6.5625,5.65625 0.78852,0.57188 1.78325,0.6855 2.46875,0 l 7.09375,-6.25 c 0.76064,-0.63163 1.70649,-0.62292 2.375,-0.25 l 0.09375,-0.0937 c 3.52766,2.01717 7.32819,3.60952 11.34375,4.6875 l 0,0.15625 c 0.7364,0.20901 1.44003,0.85927 1.53125,1.84375 l 0.59375,9.4375 c 0,0.96944 0.78805,1.59681 1.75,1.75 3.24923,0.45108 5.35115,0.60772 8.625,0.625 3.27385,-0.0173 5.37577,-0.17392 8.625,-0.625 0.96195,-0.15319 1.75,-0.78056 1.75,-1.75 l 0.59375,-9.4375 c 0.09122,-0.98448 0.79485,-1.63474 1.53125,-1.84375 l 0,-0.15625 c 4.01556,-1.07798 7.8161,-2.67033 11.34375,-4.6875 l 0.09375,0.0937 c 0.66851,-0.37292 1.61436,-0.38163 2.375,0.25 l 7.09375,6.25 c 0.6855,0.68551 1.68024,0.57189 2.46875,0 2.616512,-1.97859 4.235312,-3.35351 6.562502,-5.65625 2.30274,-2.32719 3.67766,-3.94599 5.65625,-6.5625 0.57189,-0.78852 0.68551,-1.78325 0,-2.468755 l -6.25,-7.09375 c -0.63163,-0.76064 -0.62292,-1.706493 -0.25,-2.375 2.10875,-3.623292 3.77177,-7.544146 4.875,-11.6875 0.27531,-0.634683 0.8514,-1.20088 1.71875,-1.28125 l 9.4375,-0.59375 c 0.96945,0 1.59682,-0.788054 1.75,-1.75 0.45108,-3.249232 0.60772,-5.351147 0.625,-8.625 -0.0173,-3.273853 -0.17392,-5.375768 -0.625,-8.625 -0.15318,-0.96195 -0.78055,-1.75 -1.75,-1.75 l -9.4375,-0.59375 c -0.73836,-0.06842 -1.27654,-0.487159 -1.59375,-1 -0.006,-0.02192 -0.0256,-0.04059 -0.0312,-0.0625 -1.13014,-4.37619 -3.15121,-8.36491 -5.125,-12.312505 l -0.0625,-0.125 c -0.26745,-0.5349 -0.005,-1.27327 0.46875,-1.84375 l 6.25,-7.09375 c 0.68551,-0.68551 0.57188,-1.68023 0,-2.46875 -1.97859,-2.61652 -3.35351,-4.23532 -5.65625,-6.5625 -2.32718,-2.30275 -3.94598,-3.67766 -6.562502,-5.65625 -0.78852,-0.57188 -1.78324,-0.68551 -2.46875,0 l -7.09375,6.25 c -0.69538,0.57744 -1.53595,0.59443 -2.1875,0.3125 -3.60207,-2.0904 -7.50816,-3.70733 -11.625,-4.8125 -0.0219,-0.0062 -0.04067,-0.02425 -0.0625,-0.03125 -0.71211,-0.22817 -1.38024,-0.85731 -1.46875,-1.8125 l -0.59375,-9.4375 c 0,-0.96945 -0.78805,-1.59682 -1.75,-1.75 -3.24923,-0.45108 -5.35115,-0.60772 -8.625,-0.625 z m 0,44.000005 c 8.832,0 16,7.168 16,16 0,8.832 -7.168,16 -16,16 -8.832,0 -16,-7.168 -16,-16 0,-8.832001 7.168,-16 16,-16 z"
     id="path5139"
     style="fill:none;stroke:url(#linearGradient6412);stroke-width:1;stroke-linecap:round;stroke-linejoin:round;stroke-miterlimit:4;stroke-opacity:1;stroke-dasharray:none;stroke-dashoffset:1.08779998;filter:url(#filter5162)" />
  <path
     d="m 15.486342,28.9375 c -0.15996,0.585415 -0.05599,1.194009 0.40625,1.65625 l 6.25,7.09375 c 0.21372,0.257372 0.37029,0.552135 0.46875,0.84375 0.26745,-0.5349 0.005,-1.27327 -0.46875,-1.84375 l -6.25,-7.09375 c -0.19732,-0.197317 -0.33322,-0.419984 -0.40625,-0.65625 z m 96.968748,0 c -0.073,0.236267 -0.17768,0.45893 -0.375,0.65625 l -6.25,7.09375 c -0.4659,0.561062 -0.71466,1.279923 -0.46875,1.8125 0.10008,-0.279487 0.26388,-0.565778 0.46875,-0.8125 l 6.25,-7.09375 c 0.46225,-0.462248 0.53497,-1.070837 0.375,-1.65625 z M 63.986342,47 c -8.832,0 -16.000002,7.167999 -16,16 0,0.170003 0.02598,0.331269 0.03125,0.5 0.268634,-8.597172 7.306753,-15.5 15.96875,-15.5 8.662105,-10e-7 15.700284,6.902677 15.96875,15.5 0.0053,-0.168622 0.03125,-0.330107 0.03125,-0.5 0,-8.832 -7.168002,-16.000001 -16,-16 z m 59.999998,16.5 c -0.0312,2.979862 -0.19862,5.053675 -0.625,8.125 -0.15318,0.961946 -0.78055,1.75 -1.75,1.75 l -9.4375,0.59375 c -0.86735,0.08037 -1.44344,0.646567 -1.71875,1.28125 -1.10323,4.143354 -2.76625,8.064208 -4.875,11.6875 -0.23735,0.425483 -0.34767,0.969076 -0.21875,1.5 0.0438,-0.183799 0.13021,-0.341279 0.21875,-0.5 2.10875,-3.623292 3.77177,-7.544146 4.875,-11.6875 0.27531,-0.634683 0.8514,-1.20088 1.71875,-1.28125 l 9.4375,-0.59375 c 0.96945,0 1.59682,-0.788054 1.75,-1.75 0.45108,-3.249232 0.60772,-5.351147 0.625,-8.625 -9.4e-4,-0.179255 0.002,-0.327391 0,-0.5 z M 4.0175921,65.28125 c 0.05113,2.570485 0.20602,4.550813 0.59375,7.34375 0.15319,0.961946 0.78056,1.75 1.75,1.75 l 9.4374999,0.59375 c 0.86735,0.08037 1.44344,0.646567 1.71875,1.28125 1.10323,4.143354 2.76625,8.064208 4.875,11.6875 0.08835,0.158385 0.14371,0.31663 0.1875,0.5 0.12892,-0.530924 0.04985,-1.074517 -0.1875,-1.5 -2.10875,-3.623292 -3.77177,-7.544146 -4.875,-11.6875 -0.27531,-0.634683 -0.8514,-1.20088 -1.71875,-1.28125 L 6.3613421,73.375 c -0.96944,0 -1.59681,-0.788054 -1.75,-1.75 -0.33831,-2.436924 -0.52126,-4.219122 -0.59375,-6.34375 z M 15.486342,98.0625 c -0.18067,0.584547 -0.001,1.250951 0.40625,1.8125 1.97859,2.61651 3.35351,4.23531 5.65625,6.5625 2.32718,2.30274 3.94598,3.67766 6.5625,5.65625 0.788518,0.57188 1.78325,0.6855 2.46875,0 l 7.09375,-6.25 c 0.760638,-0.63163 1.70649,-0.62292 2.375,-0.25 l 0.09375,-0.0937 c 3.527658,2.01717 7.32819,3.60952 11.34375,4.6875 l 0,0.15625 c 0.736398,0.20901 1.44003,0.85927 1.53125,1.84375 l 0.59375,9.4375 c -2e-6,0.96944 0.78805,1.59681 1.75,1.75 3.249228,0.45108 5.35115,0.60772 8.625,0.625 3.273848,-0.0173 5.37577,-0.17392 8.625,-0.625 0.961948,-0.15319 1.75,-0.78056 1.75,-1.75 l 0.59375,-9.4375 c 0.09122,-0.98448 0.79485,-1.63474 1.53125,-1.84375 l 0,-0.15625 c 4.015558,-1.07798 7.8161,-2.67033 11.34375,-4.6875 l 0.09375,0.0937 c 0.668508,-0.37292 1.61436,-0.38163 2.375,0.25 l 7.09375,6.25 c 0.6855,0.68551 1.68024,0.57189 2.468748,0 2.61651,-1.97859 4.23531,-3.35351 6.5625,-5.65625 2.30274,-2.32719 3.67766,-3.94599 5.65625,-6.5625 0.40728,-0.561542 0.55568,-1.22795 0.375,-1.8125 -0.0773,0.282751 -0.18874,0.555692 -0.375,0.8125 -1.97859,2.61651 -3.35351,4.23531 -5.65625,6.5625 -2.32719,2.30274 -3.94599,3.67766 -6.5625,5.65625 -0.788508,0.57189 -1.783248,0.68551 -2.468748,0 l -7.09375,-6.25 c -0.76064,-0.63163 -1.706492,-0.62292 -2.375,-0.25 L 87.830092,104.5 c -3.52765,2.01717 -7.328192,3.60952 -11.34375,4.6875 l 0,0.15625 c -0.7364,0.20901 -1.440032,0.85927 -1.53125,1.84375 l -0.59375,9.4375 c 0,0.96944 -0.788052,1.59681 -1.75,1.75 -3.24923,0.45108 -5.351152,0.60772 -8.625,0.625 -3.27385,-0.0173 -5.375772,-0.17392 -8.625,-0.625 -0.96195,-0.15319 -1.750002,-0.78056 -1.75,-1.75 l -0.59375,-9.4375 c -0.09122,-0.98448 -0.794852,-1.63474 -1.53125,-1.84375 l 0,-0.15625 c -4.01556,-1.07798 -7.816092,-2.67033 -11.34375,-4.6875 l -0.09375,0.0937 c -0.66851,-0.37292 -1.614362,-0.38163 -2.375,0.25 l -7.09375,6.25 c -0.6855,0.6855 -1.680232,0.57188 -2.46875,0 -2.61652,-1.97859 -4.23532,-3.35351 -6.5625,-5.65625 -2.30274,-2.32719 -3.67766,-3.94599 -5.65625,-6.5625 -0.18625,-0.256812 -0.32899,-0.529748 -0.40625,-0.8125 z"
     id="path2293"
     style="opacity:0.73234199;fill:#ffffff;fill-opacity:1;stroke:none" />
  <path
     d="m 55.234189,4.1094074 c 4.558866,-0.4362458 12.192813,-0.6029442 16.943753,-0.035746 1.905751,0.2275209 2.537988,2.8775783 2.144779,7.3637409 -0.02725,0.310949 -0.571941,-5.9606981 -2.502242,-6.0411273 -4.670803,-0.1946168 -11.680294,-0.4665162 -16.228827,0 -1.04558,0.107239 -1.961535,2.192676 -1.966047,1.8588084 -0.01787,-1.3941063 -0.24615,-2.968193 1.608584,-3.1456757 z"
     id="path5211"
     style="fill:url(#linearGradient6408);fill-opacity:1;fill-rule:evenodd;stroke:none;filter:url(#filter5257)" />
  <path
     d="m 55.962085,6.8499207 a 1.2890996,2.4518168 0 1 1 -2.578199,0 1.2890996,2.4518168 0 1 1 2.578199,0 z"
     transform="matrix(0.899969,0.4359538,-0.4359538,0.899969,8.6574518,-23.80688)"
     id="path5245"
     style="fill:url(#radialGradient6335);fill-opacity:1;stroke:none" />
  <path
     d="m 55.962085,6.8499207 a 1.2890996,2.4518168 0 1 1 -2.578199,0 1.2890996,2.4518168 0 1 1 2.578199,0 z"
     transform="matrix(-0.899969,0.4359538,0.4359538,0.899969,119.08978,-23.80688)"
     id="path5261"
     style="fill:url(#radialGradient6337);fill-opacity:1;stroke:none" />
  <g
     id="g5317">
    <path
       d="m 51.361769,18.300158 c -4.047779,1.23811 -7.859062,2.709995 -11.526066,4.900041 -0.996978,0.363561 -1.596318,0.0034 -2.42654,-0.505529 l -6.875198,-6.113311 c -0.433314,-0.358221 -1.501514,-0.924638 -2.325434,-0.202212 -4.571806,3.959678 -8.215706,8.204865 -12.233807,12.334913 l 1.489849,-0.788946 c 3.57235,-3.458456 7.011649,-6.961263 10.845064,-10.332697 0.569939,-0.472074 1.422561,-0.290854 1.921011,0.202212 l 6.584146,5.80386 c 1.006037,0.983671 2.290425,1.379466 3.627544,0.916086 3.64482,-2.350169 7.47141,-3.979336 11.497506,-5.566955 0.845439,-0.348573 1.515884,-1.700121 1.402689,-2.807484 -0.117354,0.714424 -0.999363,1.846998 -1.980764,2.160022 z"
       id="path5265"
       style="fill:url(#linearGradient6339);fill-opacity:1;fill-rule:evenodd;stroke:none;filter:url(#filter5309)" />
    <path
       d="m 55.962085,6.8499207 a 1.2890996,2.4518168 0 1 1 -2.578199,0 1.2890996,2.4518168 0 1 1 2.578199,0 z"
       transform="matrix(0.2034271,1.2369315,-0.9790901,0.2569992,24.508092,-52.470535)"
       id="path5313"
       style="fill:url(#radialGradient6341);fill-opacity:1;stroke:none" />
  </g>
  <g
     transform="matrix(-1,0,0,1,128.37557,0)"
     id="g5331">
    <path
       d="m 51.361769,18.300158 c -4.047779,1.23811 -7.859062,2.709995 -11.526066,4.900041 -0.996978,0.363561 -1.167362,-0.497014 -1.997584,-1.005977 l -6.875198,-6.113311 c -0.433314,-0.358221 -1.93047,-0.42419 -2.75439,0.298236 -5.213647,3.317837 -8.713911,7.70666 -12.233807,12.334913 l 1.489849,-0.788946 c 2.483558,-2.864569 6.003973,-6.411621 10.845064,-10.332697 0.569939,-0.472074 1.851517,-0.791302 2.349967,-0.298236 l 6.584146,5.80386 c 1.006037,0.983671 1.861469,1.879914 3.198588,1.416534 3.64482,-2.350169 7.47141,-3.979336 11.497506,-5.566955 0.845439,-0.348573 1.515884,-1.700121 1.402689,-2.807484 -0.117354,0.714424 -0.999363,1.846998 -1.980764,2.160022 z"
       id="path5333"
       style="fill:url(#linearGradient6343);fill-opacity:1;fill-rule:evenodd;stroke:none;filter:url(#filter5309)" />
    <path
       d="m 55.962085,6.8499207 a 1.2890996,2.4518168 0 1 1 -2.578199,0 1.2890996,2.4518168 0 1 1 2.578199,0 z"
       transform="matrix(0.2034271,1.2369315,-0.9790901,0.2569992,24.508092,-52.470535)"
       id="path5335"
       style="fill:url(#radialGradient6345);fill-opacity:1;stroke:none" />
  </g>
  <path
     d="m 55.962085,6.8499207 a 1.2890996,2.4518168 0 1 1 -2.578199,0 1.2890996,2.4518168 0 1 1 2.578199,0 z"
     transform="matrix(-0.9946903,-0.4812292,-0.3574506,0.9612934,168.32567,49.779168)"
     id="path5341"
     style="opacity:0.31970257;fill:url(#radialGradient6347);fill-opacity:1;stroke:none;filter:url(#filter5505)" />
  <path
     d="m 55.962085,6.8499207 a 1.2890996,2.4518168 0 1 1 -2.578199,0 1.2890996,2.4518168 0 1 1 2.578199,0 z"
     transform="matrix(0.9946903,-0.4812292,0.3574506,0.9612934,-39.943898,50.082486)"
     id="path5509"
     style="opacity:0.31970257;fill:url(#radialGradient6349);fill-opacity:1;stroke:none;filter:url(#filter5505)" />
  <path
     d="m 109.72078,50.196512 c 0.18834,0.736645 -0.025,2.115067 0.47148,3.244939 0.29048,0.661018 0.6951,1.085368 1.22638,1.105152 4.78718,0.178262 6.94699,0.134513 10.11059,0.353871 0.47135,0.03268 1.05834,0.325925 1.28861,1.240743 0.41489,1.648244 0.35059,4.987561 0.78405,6.569684 0.74071,2.835371 0.2963,-4.805472 -0.0506,-7.102686 -0.28228,-1.58603 -0.97024,-2.280608 -1.8199,-2.325435 -3.37109,-0.177853 -6.74744,-0.06461 -10.4139,-0.202211 -0.25396,0.03372 -0.52901,-0.263847 -0.78145,-0.694049 -0.45009,-0.767054 -0.41721,-1.848547 -0.81531,-2.190008 z"
     id="path5513"
     style="fill:url(#linearGradient6395);fill-opacity:1;fill-rule:evenodd;stroke:none;filter:url(#filter5581)" />
  <path
     d="m 109.72078,49.696512 c 0.18834,0.736645 -0.025,2.115067 0.47148,3.244939 0.29048,0.661018 0.6951,1.085368 1.22638,1.105152 4.78718,0.178262 6.94699,0.634513 10.11059,0.853871 0.47135,0.03268 1.05834,0.325925 1.28861,1.240743 0.41489,1.648244 0.35059,4.987561 0.78405,6.569684 0.74071,2.835371 0.2963,-4.805472 -0.0506,-7.102686 -0.28228,-1.58603 -0.97024,-2.280608 -1.8199,-2.325435 -3.37109,-0.177853 -6.74744,-0.564611 -10.4139,-0.702211 -0.25396,0.03372 -0.52901,-0.263847 -0.78145,-0.694049 -0.45009,-0.767054 -0.41721,-1.848547 -0.81531,-2.190008 z"
     transform="matrix(-1,0,0,1,128.27026,0.7)"
     id="path5585"
     style="fill:url(#linearGradient6353);fill-opacity:1;fill-rule:evenodd;stroke:none;filter:url(#filter5581)" />
  <path
     d="m 48.310016,64.191133 c -0.0047,0.158737 -0.04717,0.311795 -0.04717,0.471676 0,8.676524 7.077434,15.70679 15.753958,15.70679 8.676524,0 15.706795,-7.030263 15.70679,-15.70679 0,-0.159881 -0.04242,-0.312939 -0.04717,-0.471676 -0.228367,8.47772 -7.127084,15.282283 -15.659622,15.282283 -8.53254,0 -15.478418,-6.804563 -15.70679,-15.282283 z"
     id="path5589"
     style="opacity:0.87360595;fill:url(#linearGradient6391);fill-opacity:1;stroke:none;filter:url(#filter5876)" />
  <path
     d="m 79.676428,63.990452 c 0.0047,-0.158737 0.04717,-0.311795 0.04717,-0.471676 0,-8.676524 -7.077434,-15.70679 -15.753958,-15.70679 -8.676524,0 -15.706795,7.030263 -15.70679,15.70679 0,0.159881 0.04242,0.312939 0.04717,0.471676 0.228367,-8.47772 7.127084,-15.282283 15.659622,-15.282283 8.53254,0 15.478418,6.804563 15.70679,15.282283 z"
     id="path5596"
     style="opacity:0.87360595;fill:#565656;fill-opacity:1;stroke:none;filter:url(#filter5718)" />
  <path
     d="m 80.264493,64.297087 c 0.0049,-0.164689 0.04894,-0.323486 0.04894,-0.489362 0,-9.001863 -7.342812,-16.295739 -16.344675,-16.295739 -9.001863,0 -16.295744,7.293873 -16.295739,16.295739 0,0.165876 0.04401,0.324673 0.04894,0.489362 0.23693,-8.795604 7.394325,-16.270313 16.246803,-16.270313 8.85248,0 16.058803,7.474709 16.295739,16.270313 z"
     id="path5722"
     style="opacity:0.87360595;fill:#ffffff;fill-opacity:1;stroke:none;filter:url(#filter5836)" />
  <path
     d="m 48.310016,64.191133 c -0.0047,0.158737 -0.04717,0.311795 -0.04717,0.471676 0,8.676524 7.077434,16.70679 15.753958,16.70679 8.676524,0 15.706795,-8.030263 15.70679,-16.70679 0,-0.159881 -0.04242,-0.312939 -0.04717,-0.471676 -0.228367,8.47772 -7.127084,15.282283 -15.659622,15.282283 -8.53254,0 -15.478418,-6.804563 -15.70679,-15.282283 z"
     id="path5888"
     style="opacity:0.34572491;fill:url(#linearGradient6386);fill-opacity:1;stroke:none;filter:url(#filter5876)" />
  <path
     d="m 112.31492,97.901603 c 0.0523,0.557603 -0.12652,1.038158 -0.35746,1.501345 l -3.36016,4.361052 3.07419,-4.361052 c -0.13497,-0.516373 -0.19007,-1.072681 -0.50045,-1.501345 -1.78571,-2.200652 -4.06047,-4.319796 -5.07598,-6.648814 l 6.21986,6.648814 z"
     id="path5890"
     style="fill:#ffffff;fill-opacity:1;fill-rule:evenodd;stroke:none;filter:url(#filter5960)" />
  <path
     d="m 112.31492,97.901603 c 0.0523,0.557603 -0.12652,1.038158 -0.35746,1.501345 l -3.36016,4.361052 3.07419,-4.361052 c -0.13497,-0.516373 -0.19007,-1.072681 -0.50045,-1.501345 -1.78571,-2.200652 -4.06047,-4.319796 -5.07598,-6.648814 l 6.21986,6.648814 z"
     transform="matrix(-1,0,0,1,128.41914,0)"
     id="path5964"
     style="fill:#ffffff;fill-opacity:1;fill-rule:evenodd;stroke:none;filter:url(#filter5960)" />
  <path
     d="m 366.04225,108.83997 a 55.192307,55.192307 0 1 1 -110.38461,0 55.192307,55.192307 0 1 1 110.38461,0 z"
     transform="matrix(0.5892134,0,0,0.5892134,-119.15695,-0.1299716)"
     id="path3300"
     style="fill:none;stroke:url(#linearGradient6359);stroke-width:1.69717801;stroke-linecap:round;stroke-linejoin:round;stroke-miterlimit:4;stroke-opacity:1;stroke-dasharray:none;stroke-dashoffset:1.08779998;filter:url(#filter3310)" />
  <path
     d="M 64,31.46875 C 46.048934,31.46875 31.468751,46.048934 31.46875,64 31.46875,81.951066 46.048937,96.531253 64,96.53125 81.951066,96.53125 96.53125,81.951065 96.53125,64 96.53125,46.048934 81.951069,31.468751 64,31.46875 z m 0,17.9375 c 8.050642,0 14.59375,6.543108 14.59375,14.59375 0,8.050642 -6.543108,14.59375 -14.59375,14.59375 -8.050642,0 -14.59375,-6.543108 -14.59375,-14.59375 0,-8.050642 6.543108,-14.59375 14.59375,-14.59375 z"
     id="path3326"
     style="fill:#343434;fill-opacity:0.07755103;stroke:none;filter:url(#filter3310)" />
</svg>
