<?xml version="1.0" encoding="UTF-8" standalone="no"?>
<!-- Created with Inkscape (http://www.inkscape.org/) -->

<svg
   xmlns:dc="http://purl.org/dc/elements/1.1/"
   xmlns:cc="http://creativecommons.org/ns#"
   xmlns:rdf="http://www.w3.org/1999/02/22-rdf-syntax-ns#"
   xmlns:svg="http://www.w3.org/2000/svg"
   xmlns="http://www.w3.org/2000/svg"
   xmlns:xlink="http://www.w3.org/1999/xlink"
   xmlns:sodipodi="http://sodipodi.sourceforge.net/DTD/sodipodi-0.dtd"
   xmlns:inkscape="http://www.inkscape.org/namespaces/inkscape"
   width="128"
   height="128"
   id="svg3804"
   version="1.1"
   inkscape:version="0.48.1 r9760"
   sodipodi:docname="status-offline.svg">
  <defs
     id="defs3806">
    <linearGradient
       gradientTransform="matrix(0.9743255,0,0,0.9743255,5.5404775,5.5404852)"
       gradientUnits="userSpaceOnUse"
       xlink:href="#linearGradient5826"
       id="linearGradient3292"
       y2="-15.688621"
       x2="58.743717"
       y1="78.411346"
       x1="58.743717" />
    <linearGradient
       id="linearGradient5826">
      <stop
         id="stop5828"
         offset="0"
         style="stop-color:#810000;stop-opacity:1" />
      <stop
         id="stop5830"
         offset="1"
         style="stop-color:#c50000;stop-opacity:1" />
    </linearGradient>
    <clipPath
       id="clipPath3559">
      <path
         inkscape:connector-curvature="0"
         id="path3561"
         style="fill:url(#linearGradient3563);fill-opacity:1;stroke:none"
         d="m -64.510272,10.75 c -1.042316,0.0084 -2.040208,0.423209 -2.78125,1.15625 L -84.260272,28.875 c -1.561474,1.562119 -1.561474,4.094131 0,5.65625 L -58.822772,60 l -25.4375,25.46875 c -1.561474,1.562119 -1.561474,4.094131 0,5.65625 l 16.96875,16.96875 c 1.562119,1.56147 4.094131,1.56147 5.65625,0 l 25.46875,-25.4375 25.46875,25.4375 c 1.5621191,1.56147 4.0941311,1.56147 5.6562501,0 L 11.927228,91.125 c 1.56147,-1.562119 1.56147,-4.094131 0,-5.65625 L -13.510272,60 11.927228,34.53125 c 1.56147,-1.562119 1.56147,-4.094131 0,-5.65625 L -5.0415219,11.90625 c -1.562119,-1.561474 -4.094131,-1.561474 -5.6562501,0 l -25.46875,25.4375 -25.46875,-25.4375 c -0.764077,-0.756011 -1.800247,-1.172731 -2.875,-1.15625 z m 31.1875,63.40625 c -0.751409,-0.759464 -1.775386,-1.18681 -2.84375,-1.18681 -1.068364,0 -2.092341,0.427346 -2.84375,1.18681 l 5.6875,0 z" />
    </clipPath>
    <filter
       color-interpolation-filters="sRGB"
       id="filter3549"
       height="1.2960713"
       y="-0.14803563"
       width="1.2328371"
       x="-0.11641854">
      <feGaussianBlur
         id="feGaussianBlur3551"
         stdDeviation="2.5695681"
         inkscape:collect="always" />
    </filter>
    <linearGradient
       gradientTransform="scale(1.0975951,0.9110828)"
       gradientUnits="userSpaceOnUse"
       xlink:href="#linearGradient3499"
       id="linearGradient3294"
       y2="14.856744"
       x2="31.500689"
       y1="14.856744"
       x1="26.091133" />
    <linearGradient
       id="linearGradient3499">
      <stop
         id="stop3501"
         offset="0"
         style="stop-color:#ffffff;stop-opacity:1" />
      <stop
         id="stop3503"
         offset="1"
         style="stop-color:#ffffff;stop-opacity:0" />
    </linearGradient>
    <filter
       color-interpolation-filters="sRGB"
       id="filter3477"
       height="1.2774813"
       y="-0.13874064"
       width="1.279832"
       x="-0.13991599">
      <feGaussianBlur
         id="feGaussianBlur3479"
         stdDeviation="0.28784801"
         inkscape:collect="always" />
    </filter>
    <linearGradient
       gradientTransform="scale(1.0975951,0.9110828)"
       gradientUnits="userSpaceOnUse"
       xlink:href="#linearGradient3489"
       id="linearGradient3296"
       y2="14.856744"
       x2="31.500689"
       y1="14.856744"
       x1="26.091133" />
    <linearGradient
       id="linearGradient3489">
      <stop
         id="stop3491"
         offset="0"
         style="stop-color:#765c44;stop-opacity:1" />
      <stop
         id="stop3493"
         offset="1"
         style="stop-color:#765c44;stop-opacity:0" />
    </linearGradient>
    <filter
       color-interpolation-filters="sRGB"
       id="filter3664"
       height="1.2774813"
       y="-0.13874064"
       width="1.279832"
       x="-0.13991599">
      <feGaussianBlur
         id="feGaussianBlur3666"
         stdDeviation="0.28784801"
         inkscape:collect="always" />
    </filter>
    <linearGradient
       gradientUnits="userSpaceOnUse"
       xlink:href="#linearGradient3489"
       id="linearGradient3298"
       y2="384.62384"
       x2="345.62039"
       y1="385.86127"
       x1="304.88663" />
    <linearGradient
       id="linearGradient3669">
      <stop
         id="stop3671"
         offset="0"
         style="stop-color:#765c44;stop-opacity:1" />
      <stop
         id="stop3673"
         offset="1"
         style="stop-color:#765c44;stop-opacity:0" />
    </linearGradient>
    <filter
       color-interpolation-filters="sRGB"
       id="filter3675"
       height="1.2774813"
       y="-0.13874064"
       width="1.279832"
       x="-0.13991599">
      <feGaussianBlur
         id="feGaussianBlur3677"
         stdDeviation="0.28784801"
         inkscape:collect="always" />
    </filter>
    <linearGradient
       gradientTransform="matrix(0.9743255,0,0,0.9743255,5.5404775,5.5404852)"
       gradientUnits="userSpaceOnUse"
       xlink:href="#linearGradient5433"
       id="linearGradient3301"
       y2="36.655769"
       x2="55.007042"
       y1="88.460976"
       x1="55.007042" />
    <linearGradient
       id="linearGradient5433">
      <stop
         id="stop5435"
         offset="0"
         style="stop-color:#ff0000;stop-opacity:1" />
      <stop
         id="stop5437"
         offset="1"
         style="stop-color:#7f0000;stop-opacity:1" />
    </linearGradient>
    <linearGradient
       spreadMethod="reflect"
       gradientTransform="translate(56.7,0)"
       gradientUnits="userSpaceOnUse"
       xlink:href="#linearGradient3366"
       id="linearGradient3304"
       y2="13.510336"
       x2="34.875107"
       y1="13.510336"
       x1="31.90625" />
    <linearGradient
       id="linearGradient3366">
      <stop
         id="stop3368"
         offset="0"
         style="stop-color:#ff8787;stop-opacity:1" />
      <stop
         id="stop4472"
         offset="1"
         style="stop-color:#ff8787;stop-opacity:0" />
    </linearGradient>
    <filter
       color-interpolation-filters="sRGB"
       id="filter3687"
       height="1.2774813"
       y="-0.13874064"
       width="1.279832"
       x="-0.13991599">
      <feGaussianBlur
         id="feGaussianBlur3689"
         stdDeviation="0.28784801"
         inkscape:collect="always" />
    </filter>
    <radialGradient
       gradientTransform="matrix(0.4576062,0,0,0.782313,-19.847694,18.82067)"
       gradientUnits="userSpaceOnUse"
       xlink:href="#linearGradient3575"
       id="radialGradient3306"
       fy="90.072952"
       fx="-36.592777"
       r="25.986174"
       cy="90.072952"
       cx="-36.592777" />
    <linearGradient
       id="linearGradient3575">
      <stop
         id="stop3577"
         offset="0"
         style="stop-color:#000000;stop-opacity:1" />
      <stop
         id="stop3579"
         offset="1"
         style="stop-color:#000000;stop-opacity:0" />
    </linearGradient>
    <clipPath
       id="clipPath3695">
      <path
         inkscape:connector-curvature="0"
         id="path3697"
         style="fill:url(#linearGradient3563);fill-opacity:1;stroke:none"
         d="m -64.510272,10.75 c -1.042316,0.0084 -2.040208,0.423209 -2.78125,1.15625 L -84.260272,28.875 c -1.561474,1.562119 -1.561474,4.094131 0,5.65625 L -58.822772,60 l -25.4375,25.46875 c -1.561474,1.562119 -1.561474,4.094131 0,5.65625 l 16.96875,16.96875 c 1.562119,1.56147 4.094131,1.56147 5.65625,0 l 25.46875,-25.4375 25.46875,25.4375 c 1.5621191,1.56147 4.0941311,1.56147 5.6562501,0 L 11.927228,91.125 c 1.56147,-1.562119 1.56147,-4.094131 0,-5.65625 L -13.510272,60 11.927228,34.53125 c 1.56147,-1.562119 1.56147,-4.094131 0,-5.65625 L -5.0415219,11.90625 c -1.562119,-1.561474 -4.094131,-1.561474 -5.6562501,0 l -25.46875,25.4375 -25.46875,-25.4375 c -0.764077,-0.756011 -1.800247,-1.172731 -2.875,-1.15625 z m 31.1875,63.40625 c -0.751409,-0.759464 -1.775386,-1.18681 -2.84375,-1.18681 -1.068364,0 -2.092341,0.427346 -2.84375,1.18681 l 5.6875,0 z" />
    </clipPath>
    <filter
       color-interpolation-filters="sRGB"
       id="filter3699"
       height="1.2960713"
       y="-0.14803563"
       width="1.2328371"
       x="-0.11641854">
      <feGaussianBlur
         id="feGaussianBlur3701"
         stdDeviation="2.5695681"
         inkscape:collect="always" />
    </filter>
    <linearGradient
       spreadMethod="reflect"
       gradientTransform="translate(-0.3,0)"
       gradientUnits="userSpaceOnUse"
       xlink:href="#linearGradient3207"
       id="linearGradient3310"
       y2="13.510336"
       x2="34.875107"
       y1="13.510336"
       x1="31.90625" />
    <linearGradient
       id="linearGradient3207">
      <stop
         id="stop3209"
         offset="0"
         style="stop-color:#ffffff;stop-opacity:1" />
      <stop
         id="stop3211"
         offset="1"
         style="stop-color:#790000;stop-opacity:0" />
    </linearGradient>
    <filter
       color-interpolation-filters="sRGB"
       id="filter3707"
       height="1.2774813"
       y="-0.13874064"
       width="1.279832"
       x="-0.13991599">
      <feGaussianBlur
         id="feGaussianBlur3709"
         stdDeviation="0.28784801"
         inkscape:collect="always" />
    </filter>
    <linearGradient
       spreadMethod="reflect"
       gradientTransform="translate(56.7,0)"
       gradientUnits="userSpaceOnUse"
       xlink:href="#linearGradient3207"
       id="linearGradient3312"
       y2="13.510336"
       x2="34.875107"
       y1="13.510336"
       x1="31.90625" />
    <linearGradient
       id="linearGradient3712">
      <stop
         id="stop3714"
         offset="0"
         style="stop-color:#ffffff;stop-opacity:1" />
      <stop
         id="stop3716"
         offset="1"
         style="stop-color:#790000;stop-opacity:0" />
    </linearGradient>
    <filter
       color-interpolation-filters="sRGB"
       id="filter3718"
       height="1.2774813"
       y="-0.13874064"
       width="1.279832"
       x="-0.13991599">
      <feGaussianBlur
         id="feGaussianBlur3720"
         stdDeviation="0.28784801"
         inkscape:collect="always" />
    </filter>
    <linearGradient
       gradientUnits="userSpaceOnUse"
       xlink:href="#linearGradient3163"
       id="linearGradient3314"
       y2="55.07938"
       x2="57.434441"
       y1="92.973083"
       x1="59.999996" />
    <linearGradient
       id="linearGradient3163">
      <stop
         id="stop3165"
         offset="0"
         style="stop-color:#fff5e4;stop-opacity:1" />
      <stop
         id="stop3173"
         offset="0.25"
         style="stop-color:#ffecd0;stop-opacity:1" />
      <stop
         id="stop3171"
         offset="0.5"
         style="stop-color:#ffd390;stop-opacity:1" />
      <stop
         id="stop3167"
         offset="1"
         style="stop-color:#ffc46a;stop-opacity:1" />
    </linearGradient>
    <filter
       color-interpolation-filters="sRGB"
       id="filter3354">
      <feGaussianBlur
         id="feGaussianBlur3356"
         stdDeviation="0.45754832"
         inkscape:collect="always" />
    </filter>
    <linearGradient
       gradientTransform="matrix(1.381268,0,0,0.6872743,5.5404775,5.5404852)"
       gradientUnits="userSpaceOnUse"
       xlink:href="#linearGradient3397"
       id="linearGradient3316"
       y2="32.750854"
       x2="51.544849"
       y1="109.97649"
       x1="68.313011" />
    <linearGradient
       id="linearGradient3397">
      <stop
         id="stop3399"
         offset="0"
         style="stop-color:#f4f5f8;stop-opacity:1" />
      <stop
         id="stop3401"
         offset="1"
         style="stop-color:#fdfdfe;stop-opacity:1" />
    </linearGradient>
    <linearGradient
       gradientTransform="matrix(0.9743255,0,0,0.9743255,5.5404775,5.5404852)"
       gradientUnits="userSpaceOnUse"
       xlink:href="#linearGradient3366"
       id="linearGradient3318"
       y2="70.357269"
       x2="47.264141"
       y1="21.738457"
       x1="47.264141" />
    <linearGradient
       id="linearGradient3735">
      <stop
         id="stop3737"
         offset="0"
         style="stop-color:#ff8787;stop-opacity:1" />
      <stop
         id="stop3739"
         offset="1"
         style="stop-color:#ff8787;stop-opacity:0" />
    </linearGradient>
    <linearGradient
       gradientTransform="matrix(0.9743255,0,0,0.9743255,5.5526549,6.7583898)"
       gradientUnits="userSpaceOnUse"
       xlink:href="#linearGradient4179"
       id="linearGradient3320"
       y2="20.362558"
       x2="56.770992"
       y1="71.824867"
       x1="57.654171" />
    <linearGradient
       id="linearGradient4179">
      <stop
         id="stop4181"
         offset="0"
         style="stop-color:#ffffff;stop-opacity:0" />
      <stop
         id="stop4183"
         offset="1"
         style="stop-color:#ffffff;stop-opacity:1" />
    </linearGradient>
    <linearGradient
       inkscape:collect="always"
       xlink:href="#linearGradient5826"
       id="linearGradient4164"
       gradientUnits="userSpaceOnUse"
       gradientTransform="matrix(0.9743255,0,0,0.9743255,5.5404775,5.5404852)"
       x1="58.743717"
       y1="78.411346"
       x2="58.743717"
       y2="-15.688621" />
    <linearGradient
       inkscape:collect="always"
       xlink:href="#linearGradient3499"
       id="linearGradient4166"
       gradientUnits="userSpaceOnUse"
       gradientTransform="scale(1.0975951,0.9110828)"
       x1="26.091133"
       y1="14.856744"
       x2="31.500689"
       y2="14.856744" />
    <linearGradient
       inkscape:collect="always"
       xlink:href="#linearGradient3489"
       id="linearGradient4168"
       gradientUnits="userSpaceOnUse"
       gradientTransform="scale(1.0975951,0.9110828)"
       x1="26.091133"
       y1="14.856744"
       x2="31.500689"
       y2="14.856744" />
    <linearGradient
       inkscape:collect="always"
       xlink:href="#linearGradient3489"
       id="linearGradient4170"
       gradientUnits="userSpaceOnUse"
       x1="304.88663"
       y1="385.86127"
       x2="345.62039"
       y2="384.62384" />
    <linearGradient
       inkscape:collect="always"
       xlink:href="#linearGradient5433"
       id="linearGradient4172"
       gradientUnits="userSpaceOnUse"
       gradientTransform="matrix(0.9743255,0,0,0.9743255,5.5404775,5.5404852)"
       x1="55.007042"
       y1="88.460976"
       x2="55.007042"
       y2="36.655769" />
    <linearGradient
       inkscape:collect="always"
       xlink:href="#linearGradient3366"
       id="linearGradient4174"
       gradientUnits="userSpaceOnUse"
       gradientTransform="translate(56.7,0)"
       spreadMethod="reflect"
       x1="31.90625"
       y1="13.510336"
       x2="34.875107"
       y2="13.510336" />
    <radialGradient
       inkscape:collect="always"
       xlink:href="#linearGradient3575"
       id="radialGradient4176"
       gradientUnits="userSpaceOnUse"
       gradientTransform="matrix(0.4576062,0,0,0.782313,-19.847694,18.82067)"
       cx="-36.592777"
       cy="90.072952"
       fx="-36.592777"
       fy="90.072952"
       r="25.986174" />
    <linearGradient
       inkscape:collect="always"
       xlink:href="#linearGradient3207"
       id="linearGradient4178"
       gradientUnits="userSpaceOnUse"
       gradientTransform="translate(-0.3,0)"
       spreadMethod="reflect"
       x1="31.90625"
       y1="13.510336"
       x2="34.875107"
       y2="13.510336" />
    <linearGradient
       inkscape:collect="always"
       xlink:href="#linearGradient3207"
       id="linearGradient4180"
       gradientUnits="userSpaceOnUse"
       gradientTransform="translate(56.7,0)"
       spreadMethod="reflect"
       x1="31.90625"
       y1="13.510336"
       x2="34.875107"
       y2="13.510336" />
    <linearGradient
       inkscape:collect="always"
       xlink:href="#linearGradient3163"
       id="linearGradient4182"
       gradientUnits="userSpaceOnUse"
       x1="59.999996"
       y1="92.973083"
       x2="57.434441"
       y2="55.07938" />
    <linearGradient
       inkscape:collect="always"
       xlink:href="#linearGradient3397"
       id="linearGradient4184"
       gradientUnits="userSpaceOnUse"
       gradientTransform="matrix(1.381268,0,0,0.6872743,5.5404775,5.5404852)"
       x1="68.313011"
       y1="109.97649"
       x2="51.544849"
       y2="32.750854" />
    <linearGradient
       inkscape:collect="always"
       xlink:href="#linearGradient3366"
       id="linearGradient4186"
       gradientUnits="userSpaceOnUse"
       gradientTransform="matrix(0.9743255,0,0,0.9743255,5.5404775,5.5404852)"
       x1="47.264141"
       y1="21.738457"
       x2="47.264141"
       y2="70.357269" />
    <linearGradient
       inkscape:collect="always"
       xlink:href="#linearGradient4179"
       id="linearGradient4188"
       gradientUnits="userSpaceOnUse"
       gradientTransform="matrix(0.9743255,0,0,0.9743255,5.5526549,6.7583898)"
       x1="57.654171"
       y1="71.824867"
       x2="56.770992"
       y2="20.362558" />
    <linearGradient
       inkscape:collect="always"
       xlink:href="#linearGradient4179"
       id="linearGradient4191"
       gradientUnits="userSpaceOnUse"
       gradientTransform="matrix(1.2991006,0,0,1.2867446,-13.92979,912.76405)"
       x1="57.654171"
       y1="71.824867"
       x2="56.770992"
       y2="20.362558" />
    <linearGradient
       inkscape:collect="always"
       xlink:href="#linearGradient3366"
       id="linearGradient4194"
       gradientUnits="userSpaceOnUse"
       gradientTransform="matrix(1.2991006,0,0,1.2867446,-13.946027,911.15562)"
       x1="47.264141"
       y1="21.738457"
       x2="47.264141"
       y2="70.357269" />
    <linearGradient
       inkscape:collect="always"
       xlink:href="#linearGradient3397"
       id="linearGradient4197"
       gradientUnits="userSpaceOnUse"
       gradientTransform="matrix(1.8416906,0,0,0.90764997,-13.946027,911.15562)"
       x1="68.313011"
       y1="109.97649"
       x2="51.544849"
       y2="32.750854" />
    <linearGradient
       inkscape:collect="always"
       xlink:href="#linearGradient5826"
       id="linearGradient4212"
       gradientUnits="userSpaceOnUse"
       gradientTransform="matrix(1.2991006,0,0,1.2867446,-13.946027,911.15562)"
       x1="58.743717"
       y1="78.411346"
       x2="58.743717"
       y2="-15.688621" />
  </defs>
  <sodipodi:namedview
     id="base"
     pagecolor="#ffffff"
     bordercolor="#666666"
     borderopacity="1.0"
     inkscape:pageopacity="0.0"
     inkscape:pageshadow="2"
     inkscape:zoom="1.4142136"
     inkscape:cx="261.86291"
     inkscape:cy="70.177601"
     inkscape:document-units="px"
     inkscape:current-layer="layer1"
     showgrid="false"
     inkscape:window-width="1432"
     inkscape:window-height="816"
     inkscape:window-x="0"
     inkscape:window-y="0"
     inkscape:window-maximized="1" />
  <metadata
     id="metadata3809">
    <rdf:RDF>
      <cc:Work
         rdf:about="">
        <dc:format>image/svg+xml</dc:format>
        <dc:type
           rdf:resource="http://purl.org/dc/dcmitype/StillImage" />
        <dc:title></dc:title>
      </cc:Work>
    </rdf:RDF>
  </metadata>
  <g
     inkscape:label="Layer 1"
     inkscape:groupmode="layer"
     id="layer1"
     transform="translate(0,-924.36218)">
    <g
       transform="matrix(-2.0615695,0,0,2.0419615,398.96509,479.5536)"
       style="display:inline"
       id="layer4" />
    <g
       transform="matrix(-2.0615695,0,0,2.0419615,398.96509,479.5536)"
       style="display:inline"
       id="layer5" />
    <rect
       width="2.0615695"
       height="0"
       x="-577.22772"
       y="353.90625"
       style="opacity:0.57786889;fill:#ffffff;fill-opacity:1;fill-rule:nonzero;stroke:none"
       id="rect1327"
       transform="scale(-1,1)" />
    <rect
       width="2.0615695"
       height="0"
       x="-649.6441"
       y="297.69595"
       style="opacity:0.57786889;fill:#ffffff;fill-opacity:1;fill-rule:nonzero;stroke:none"
       id="rect2482"
       transform="scale(-1,1)" />
    <g
       transform="matrix(1.6141986,0,0,1.3290699,5766.0384,1550.0342)"
       style="opacity:0.40163933"
       id="g4640" />
    <g
       transform="matrix(1.6141986,0,0,1.3290699,5766.0384,1550.0342)"
       style="opacity:0.40163933"
       id="g4646" />
    <g
       transform="matrix(-2.0615695,0,0,1.3290699,-832.96864,1564.9973)"
       style="opacity:0.40163933"
       id="g4730" />
    <g
       transform="matrix(-2.0615695,0,0,1.3290699,-832.96864,1564.9973)"
       style="opacity:0.40163933"
       id="g4748" />
    <g
       transform="matrix(-2.0615695,0,0,2.0419615,778.29388,201.12974)"
       style="display:inline"
       id="g2560" />
    <g
       transform="matrix(-2.0615695,0,0,2.0419615,778.29388,201.12974)"
       style="display:inline"
       id="g2562" />
    <rect
       width="2.0615695"
       height="0"
       x="-956.55658"
       y="75.482368"
       style="opacity:0.57786889;fill:#ffffff;fill-opacity:1;fill-rule:nonzero;stroke:none"
       id="rect2568"
       transform="scale(-1,1)" />
    <rect
       width="2.0615695"
       height="0"
       x="-1028.9729"
       y="19.27203"
       style="opacity:0.57786889;fill:#ffffff;fill-opacity:1;fill-rule:nonzero;stroke:none"
       id="rect2570"
       transform="scale(-1,1)" />
    <g
       transform="matrix(1.6141986,0,0,1.3290699,6145.3672,1271.6103)"
       style="opacity:0.40163933"
       id="g2574" />
    <g
       transform="matrix(1.6141986,0,0,1.3290699,6145.3672,1271.6103)"
       style="opacity:0.40163933"
       id="g2576" />
    <g
       transform="matrix(-2.0615695,0,0,1.3290699,-453.63986,1286.5734)"
       style="opacity:0.40163933"
       id="g2578" />
    <g
       transform="matrix(-2.0615695,0,0,1.3290699,-453.63986,1286.5734)"
       style="opacity:0.40163933"
       id="g2580" />
    <g
       transform="matrix(-2.0615695,0,0,2.0419615,280.97838,128.52515)"
       style="display:inline"
       id="g3260" />
    <g
       transform="matrix(-2.0615695,0,0,2.0419615,280.97838,128.52515)"
       style="display:inline"
       id="g3262" />
    <rect
       width="2.0615695"
       height="0"
       x="-459.24109"
       y="2.8777614"
       style="opacity:0.57786889;fill:#ffffff;fill-opacity:1;fill-rule:nonzero;stroke:none"
       id="rect3286"
       transform="scale(-1,1)" />
    <rect
       width="2.0615695"
       height="0"
       x="-531.65747"
       y="-53.332577"
       style="opacity:0.57786889;fill:#ffffff;fill-opacity:1;fill-rule:nonzero;stroke:none"
       id="rect3288"
       transform="scale(-1,1)" />
    <g
       transform="matrix(1.6141986,0,0,1.3290699,5648.0527,1199.0057)"
       style="opacity:0.40163933"
       id="g3292" />
    <g
       transform="matrix(1.6141986,0,0,1.3290699,5648.0527,1199.0057)"
       style="opacity:0.40163933"
       id="g3294" />
    <g
       transform="matrix(-2.0615695,0,0,1.3290699,-950.95536,1213.9688)"
       style="opacity:0.40163933"
       id="g3296" />
    <g
       transform="matrix(-2.0615695,0,0,1.3290699,-950.95536,1213.9688)"
       style="opacity:0.40163933"
       id="g3298" />
    <g
       transform="matrix(-2.0615695,0,0,2.0419615,-11.101699,71.636099)"
       style="display:inline"
       id="g2334" />
    <g
       transform="matrix(-2.0615695,0,0,2.0419615,-11.101699,71.636099)"
       style="display:inline"
       id="g2336" />
    <rect
       width="2.0615695"
       height="0"
       x="-167.16093"
       y="-54.011257"
       style="opacity:0.57786889;fill:#ffffff;fill-opacity:1;fill-rule:nonzero;stroke:none"
       id="rect2342"
       transform="scale(-1,1)" />
    <rect
       width="2.0615695"
       height="0"
       x="-239.57732"
       y="-110.2216"
       style="opacity:0.57786889;fill:#ffffff;fill-opacity:1;fill-rule:nonzero;stroke:none"
       id="rect2344"
       transform="scale(-1,1)" />
    <g
       transform="matrix(1.6141986,0,0,1.3290699,5355.9716,1142.1167)"
       style="opacity:0.40163933"
       id="g2348" />
    <g
       transform="matrix(1.6141986,0,0,1.3290699,5355.9716,1142.1167)"
       style="opacity:0.40163933"
       id="g2350" />
    <g
       transform="matrix(-2.0615695,0,0,1.3290699,-1243.0354,1157.0797)"
       style="opacity:0.40163933"
       id="g2352" />
    <g
       transform="matrix(-2.0615695,0,0,1.3290699,-1243.0354,1157.0797)"
       style="opacity:0.40163933"
       id="g2354" />
    <g
       transform="matrix(-2.0615695,0,0,2.0419615,-508.4172,-0.96849694)"
       style="display:inline"
       id="g2360" />
    <g
       transform="matrix(-2.0615695,0,0,2.0419615,-508.4172,-0.96849694)"
       style="display:inline"
       id="g2362" />
    <rect
       width="2.0615695"
       height="0"
       x="330.15448"
       y="-126.61586"
       style="opacity:0.57786889;fill:#ffffff;fill-opacity:1;fill-rule:nonzero;stroke:none"
       id="rect2376"
       transform="scale(-1,1)" />
    <rect
       width="2.0615695"
       height="0"
       x="257.73816"
       y="-182.8262"
       style="opacity:0.57786889;fill:#ffffff;fill-opacity:1;fill-rule:nonzero;stroke:none"
       id="rect2378"
       transform="scale(-1,1)" />
    <g
       transform="matrix(1.6141986,0,0,1.3290699,4858.6572,1069.5121)"
       style="opacity:0.40163933"
       id="g2382" />
    <g
       transform="matrix(1.6141986,0,0,1.3290699,4858.6572,1069.5121)"
       style="opacity:0.40163933"
       id="g2384" />
    <g
       transform="matrix(-2.0615695,0,0,1.3290699,-1740.3509,1084.4751)"
       style="opacity:0.40163933"
       id="g2386" />
    <g
       transform="matrix(-2.0615695,0,0,1.3290699,-1740.3509,1084.4751)"
       style="opacity:0.40163933"
       id="g2388" />
    <g
       id="g3232"
       transform="matrix(1.3333333,0,0,1.3206517,265.23452,771.36336)" />
    <g
       id="g4591"
       transform="matrix(1.3333333,0,0,1.3206517,265.23452,771.36336)" />
    <path
       inkscape:connector-curvature="0"
       id="path3300"
       style="fill:url(#linearGradient4212);fill-opacity:1;stroke:none"
       d="m 27.178629,924.98813 c -1.354072,0.0107 -2.650443,0.54455 -3.613123,1.4878 L 1.5213921,948.31037 c -2.02851862,2.01005 -2.02851195,5.2681 -5.3e-6,7.27815 L 34.567265,988.3603 1.5213934,1021.1321 c -2.02851325,2.01 -2.02851325,5.2681 0,7.2781 l 22.0441146,21.8345 c 2.029338,2.0092 5.318687,2.0092 7.348038,0 l 33.086467,-32.7316 33.086463,32.7316 c 2.02935,2.0092 5.318694,2.0092 7.348034,0 l 22.04412,-21.8345 c 2.0285,-2.01 2.0285,-5.2681 0,-7.2781 L 93.432763,988.3603 126.47864,955.58852 c 2.02849,-2.01005 2.02849,-5.2681 -1e-5,-7.27815 l -22.04412,-21.83445 c -2.02934,-2.00921 -5.318686,-2.00922 -7.348028,10e-6 L 64.000013,959.20749 30.913538,926.47592 c -0.992615,-0.97279 -2.338695,-1.509 -3.734909,-1.48779 z m 40.515696,81.58767 c -0.976153,-0.9773 -2.3064,-1.5271 -3.694312,-1.5271 -1.387912,0 -2.718165,0.5498 -3.694317,1.5271 l 7.388629,0 z" />
    <path
       inkscape:connector-curvature="0"
       id="path3507"
       clip-path="url(#clipPath3559)"
       style="fill:#000000;fill-opacity:1;fill-rule:evenodd;stroke:#000000;stroke-width:0.7451762px;stroke-linecap:butt;stroke-linejoin:miter;stroke-opacity:1;filter:url(#filter3549)"
       transform="matrix(1.2991006,0,0,1.2867446,111.05352,911.15562)"
       d="M -62.57895,106.7868 -36.415999,79.916739 -10.606602,106.43324 -36.415999,66.128157 -62.57895,106.7868 z" />
    <path
       inkscape:connector-curvature="0"
       id="path5159"
       style="opacity:0.49812736;fill:url(#linearGradient4166);fill-opacity:1;fill-rule:evenodd;stroke:none;filter:url(#filter3477)"
       transform="matrix(0,2.398802,-2.4218366,0,152.73593,948.97839)"
       d="m 31.7,16 2.875,-3.375 C 33.523795,10.929242 30.639864,10.336982 28.6375,12.3125 L 31.45,15.6875 31.7,16 z" />
    <path
       inkscape:connector-curvature="0"
       id="path3485"
       style="opacity:0.79026214;fill:url(#linearGradient4168);fill-opacity:1;fill-rule:evenodd;stroke:none;filter:url(#filter3477)"
       transform="matrix(2.3917574,0,0,-2.3690089,-48.369007,1076.7701)"
       d="m 31.7,16 2.875,-3.375 C 33.523795,10.929242 30.639864,10.336982 28.6375,12.3125 L 31.45,15.6875 31.7,16 z" />
    <path
       inkscape:connector-curvature="0"
       id="path3493"
       style="opacity:0.49812736;fill:url(#linearGradient4170);fill-opacity:1;fill-rule:evenodd;stroke:none;filter:url(#filter3477)"
       transform="matrix(0,2.1722337,2.1930926,0,-22.299134,956.11618)"
       d="m 31.7,16 2.875,-3.375 C 33.523795,10.929242 30.639864,10.336982 28.6375,12.3125 L 31.45,15.6875 31.7,16 z" />
    <path
       inkscape:connector-curvature="0"
       id="rect2323"
       style="opacity:0.92134835999999998;fill:#d50000;fill-opacity:1;stroke:none"
       d="M 100.74412,934.79105 64.000009,971.18569 27.255901,934.79106 9.9163706,951.96567 46.660479,988.3603 l -36.7441178,36.3946 17.3395398,17.1746 36.744106,-36.3946 36.744113,36.3946 17.33952,-17.1746 -36.744103,-36.39461 36.744103,-36.39462 -17.33952,-17.17462 z" />
    <path
       inkscape:connector-curvature="0"
       id="path3487"
       style="opacity:0.79026214;fill:url(#linearGradient4174);fill-opacity:1;fill-rule:evenodd;stroke:none;filter:url(#filter3477)"
       transform="matrix(2.1930926,0,0,-2.1722337,-93.06783,1074.9113)"
       d="m 88.7,16 2.875,-3.375 C 90.523795,10.929242 87.639864,10.336982 85.6375,12.3125 L 88.45,15.6875 88.7,16 z" />
    <path
       inkscape:connector-curvature="0"
       id="path3565"
       clip-path="url(#clipPath3559)"
       style="fill:url(#radialGradient4176);fill-opacity:1;fill-rule:evenodd;stroke:none;filter:url(#filter3549)"
       transform="matrix(1.2991006,0,0,-1.2867446,111.05353,1064.9581)"
       d="M -62.57895,106.7868 -36.415999,79.916739 -10.606602,106.43324 -36.415999,66.128157 -62.57895,106.7868 z" />
    <path
       inkscape:connector-curvature="0"
       id="path3403"
       style="opacity:0.79026214;fill:url(#linearGradient4178);fill-opacity:1;fill-rule:evenodd;stroke:none;filter:url(#filter3477)"
       transform="matrix(1.9944278,0,0,1.9754584,-35.851554,904.64997)"
       d="m 31.7,16 2.875,-3.375 C 33.523795,10.929242 30.639864,10.336982 28.6375,12.3125 L 31.45,15.6875 31.7,16 z" />
    <path
       inkscape:connector-curvature="0"
       id="path3481"
       style="opacity:0.79026214;fill:url(#linearGradient4180);fill-opacity:1;fill-rule:evenodd;stroke:none;filter:url(#filter3477)"
       transform="matrix(2.0475913,0,0,2.0281162,-80.190381,904.15256)"
       d="m 88.7,16 2.875,-3.375 C 90.523795,10.929242 87.639864,10.336982 85.6375,12.3125 L 88.45,15.6875 88.7,16 z" />
    <path
       inkscape:connector-curvature="0"
       id="path3328"
       style="opacity:0.92134836;fill:none;stroke:url(#linearGradient4182);stroke-width:2.3235724;stroke-linecap:round;stroke-linejoin:round;stroke-miterlimit:4;stroke-opacity:1;stroke-dasharray:none;stroke-dashoffset:1.08779998;filter:url(#filter3354)"
       transform="matrix(1.2991006,0,0,1.2867446,-13.946027,911.15562)"
       d="M 88.284271,18.368396 60,46.652666 31.715729,18.368396 18.368396,31.715729 46.652666,60 18.368396,88.284271 31.715729,101.63161 60,73.347334 88.284271,101.63161 101.63161,88.284271 73.347334,60 101.63161,31.715729 88.284271,18.368396 z" />
    <g
       transform="matrix(1.3659314,0,0,1.3529398,39.082675,604.2556)"
       id="g5368" />
  </g>
</svg>
