<?xml version="1.0" encoding="UTF-8" standalone="no"?>
<!-- Created with Inkscape (http://www.inkscape.org/) -->

<svg
   xmlns:dc="http://purl.org/dc/elements/1.1/"
   xmlns:cc="http://creativecommons.org/ns#"
   xmlns:rdf="http://www.w3.org/1999/02/22-rdf-syntax-ns#"
   xmlns:svg="http://www.w3.org/2000/svg"
   xmlns="http://www.w3.org/2000/svg"
   xmlns:xlink="http://www.w3.org/1999/xlink"
   xmlns:sodipodi="http://sodipodi.sourceforge.net/DTD/sodipodi-0.dtd"
   xmlns:inkscape="http://www.inkscape.org/namespaces/inkscape"
   width="128"
   height="128"
   id="svg4984"
   version="1.1"
   inkscape:version="0.48.1 r9760"
   sodipodi:docname="New document 7">
  <defs
     id="defs4986">
    <linearGradient
       inkscape:collect="always"
       xlink:href="#linearGradient3671"
       id="linearGradient2712"
       gradientUnits="userSpaceOnUse"
       gradientTransform="matrix(0.5315506,0,0,0.5315506,228.56941,-54.893565)"
       x1="9.7224302"
       y1="320.47482"
       x2="14.440878"
       y2="155.10976" />
    <linearGradient
       id="linearGradient3671">
      <stop
         id="stop3673"
         style="stop-color:#1a0000;stop-opacity:1"
         offset="0" />
      <stop
         id="stop3675"
         style="stop-color:#a20000;stop-opacity:0"
         offset="1" />
    </linearGradient>
    <filter
       color-interpolation-filters="sRGB"
       inkscape:collect="always"
       id="filter4068">
      <feGaussianBlur
         inkscape:collect="always"
         stdDeviation="0.57539064"
         id="feGaussianBlur4070" />
    </filter>
    <linearGradient
       inkscape:collect="always"
       xlink:href="#linearGradient3551"
       id="linearGradient2710"
       gradientUnits="userSpaceOnUse"
       gradientTransform="matrix(0.5315506,0,0,0.5315506,228.58003,-54.894929)"
       x1="3.3437505"
       y1="236.8761"
       x2="0.390625"
       y2="351.875" />
    <linearGradient
       id="linearGradient3551">
      <stop
         id="stop3553"
         style="stop-color:#bf0000;stop-opacity:1"
         offset="0" />
      <stop
         id="stop3555"
         style="stop-color:#8c0000;stop-opacity:1"
         offset="1" />
    </linearGradient>
    <linearGradient
       inkscape:collect="always"
       xlink:href="#linearGradient3671"
       id="linearGradient2687"
       gradientUnits="userSpaceOnUse"
       gradientTransform="matrix(-0.5315506,0,0,0.5315506,228.98334,-54.894929)"
       x1="11.843751"
       y1="365.3761"
       x2="19.390625"
       y2="206.375" />
    <linearGradient
       id="linearGradient3213">
      <stop
         id="stop3215"
         style="stop-color:#1a0000;stop-opacity:1"
         offset="0" />
      <stop
         id="stop3217"
         style="stop-color:#a20000;stop-opacity:0"
         offset="1" />
    </linearGradient>
    <clipPath
       clipPathUnits="userSpaceOnUse"
       id="clipPath2725">
      <path
         inkscape:connector-curvature="0"
         style="fill:url(#linearGradient2729);fill-opacity:1;stroke:none"
         d="m -826.91779,227.3452 c -16.854,0 -32.03293,7.28707 -42.56416,18.87168 -1.23896,1.36289 -2.42208,2.75579 -3.52741,4.2329 -7.18466,9.60122 -11.40531,21.56275 -11.40531,34.45109 0,12.88833 4.22065,24.79107 11.40531,34.39231 1.10533,1.47711 2.28845,2.87 3.52741,4.23289 3.09743,3.40724 6.57943,6.46652 10.40588,9.05371 0.0129,0.009 0.0458,-0.009 0.0588,0 0.75199,0.50749 1.51623,0.9974 2.29282,1.46975 0.0142,0.009 0.0446,-0.009 0.0588,0 0.77688,0.4716 1.55131,0.97569 2.35161,1.41097 0.0148,0.008 0.044,-0.008 0.0588,0 0.80032,0.43435 1.58787,0.89647 2.4104,1.29338 0.0157,0.008 0.0431,-0.008 0.0588,0 1.66122,0.79968 3.37012,1.53527 5.11476,2.17524 0.0169,0.006 0.0419,-0.006 0.0588,0 2.62611,0.96044 5.32506,1.72089 8.11305,2.29282 0.0185,0.004 0.0403,-0.004 0.0588,0 0.91696,0.18714 1.83102,0.38631 2.76315,0.52912 0.0191,0.003 0.0396,-0.003 0.0588,0 0.93244,0.14188 1.87549,0.25634 2.82193,0.35274 0.0194,0.002 0.0394,-0.002 0.0588,0 0.94695,0.0955 1.92095,0.18636 2.88072,0.23516 0.97931,0.0498 2.00689,0.0588 2.99831,0.0588 16.83072,-0.0168 32.03679,-7.30042 42.56415,-18.87168 1.23896,-1.36289 2.42208,-2.75578 3.52741,-4.23289 7.19079,-9.60124 11.40531,-21.50396 11.40531,-34.39231 0,-12.88834 -4.21452,-24.84987 -11.40531,-34.45109 -1.10533,-1.47711 -2.28845,-2.87001 -3.52741,-4.2329 -3.08936,-3.39571 -6.5923,-6.47226 -10.40588,-9.0537 -0.0137,-0.009 -0.045,0.009 -0.0588,0 -0.75199,-0.50814 -1.51624,-0.99676 -2.29282,-1.46976 -0.0144,-0.009 -0.0444,0.009 -0.0588,0 -0.77688,-0.47225 -1.55131,-0.975 -2.35161,-1.41097 -0.0155,-0.008 -0.0432,0.008 -0.0588,0 -0.8,-0.43489 -1.5882,-0.83709 -2.4104,-1.23459 -0.0158,-0.008 -0.043,0.008 -0.0588,0 -1.66114,-0.80118 -3.37024,-1.59247 -5.11476,-2.23403 -0.0173,-0.006 -0.0415,0.006 -0.0588,0 -2.6258,-0.96284 -5.32553,-1.71823 -8.11305,-2.29282 -0.0188,-0.004 -0.04,0.004 -0.0588,0 -0.91685,-0.18804 -1.83115,-0.38538 -2.76315,-0.52911 -0.0191,-0.003 -0.0397,0.003 -0.0588,0 -0.93231,-0.14282 -1.87564,-0.2554 -2.82193,-0.35275 -0.0192,-0.002 -0.0396,0.002 -0.0588,0 -1.93195,-0.19675 -3.8962,-0.29395 -5.87902,-0.29395 z m 0,18.28377 c 0.0195,0 0.0393,-3e-5 0.0588,0 0.86065,10e-4 1.74128,0.0602 2.58677,0.11759 0.64351,0.0436 1.24723,0.10134 1.88129,0.17637 0.31893,0.0362 0.62409,0.0737 0.94064,0.11758 2.43734,0.35015 4.84454,0.92508 7.11362,1.70491 2.36081,0.81136 4.62037,1.84091 6.76088,3.0571 l -19.34199,19.34199 -19.28321,-19.34199 c 2.14051,-1.21619 4.40007,-2.24574 6.76088,-3.0571 2.26908,-0.77983 4.67628,-1.35476 7.11362,-1.70491 0.31474,-0.0452 0.62344,-0.08 0.94065,-0.11758 0.62338,-0.0709 1.24932,-0.135 1.88128,-0.17637 0.84549,-0.0573 1.72612,-0.11629 2.58678,-0.11759 z m -35.50932,22.81063 18.57772,18.63651 -17.10797,17.10797 c -0.3708,-0.6526 -0.72307,-1.32454 -1.05822,-1.99887 -0.0983,-0.1978 -0.19882,-0.3883 -0.29395,-0.5879 -0.28314,-0.59957 -0.56988,-1.20666 -0.82307,-1.8225 -0.31771,-0.7639 -0.6114,-1.56467 -0.88185,-2.35161 -0.0994,-0.28925 -0.20113,-0.58962 -0.29395,-0.88186 -0.0418,-0.13455 -0.0772,-0.27636 -0.11758,-0.41153 -0.14394,-0.482 -0.28579,-0.98011 -0.41153,-1.46976 -0.17602,-0.68546 -0.38968,-1.35813 -0.52912,-2.05765 -0.0944,-0.4628 -0.15742,-0.94223 -0.23516,-1.41097 -0.0284,-0.17551 -0.0327,-0.35284 -0.0588,-0.52911 -0.0705,-0.46504 -0.12268,-0.94048 -0.17637,-1.41097 -0.0261,-0.23603 -0.0369,-0.4682 -0.0588,-0.70548 -0.0504,-0.54524 -0.0897,-1.09459 -0.11758,-1.64613 -0.0338,-0.66923 -0.0588,-1.32112 -0.0588,-1.99887 0,-1.47081 0.0743,-2.92448 0.23516,-4.35048 0.0804,-0.713 0.17522,-1.41593 0.29395,-2.11645 0.11873,-0.70051 0.25578,-1.42927 0.41153,-2.11645 0.31153,-1.37435 0.6651,-2.74066 1.11702,-4.05653 0.45192,-1.31586 1.00525,-2.57082 1.58734,-3.82136 z m 71.07742,0 c 0.58209,1.25054 1.13542,2.5055 1.58734,3.82136 0.45192,1.31587 0.80549,2.68218 1.11702,4.05653 0.15575,0.68718 0.2928,1.41594 0.41153,2.11645 0.11873,0.70052 0.21351,1.40345 0.29395,2.11645 0.16087,1.426 0.23516,2.87967 0.23516,4.35048 0,0.67775 -0.025,1.32964 -0.0588,1.99887 -0.0279,0.55154 -0.0672,1.10089 -0.11758,1.64613 -0.0107,0.11634 0.0118,0.23668 0,0.35274 -0.0408,0.38914 -0.0653,0.79031 -0.11758,1.1758 -0.0342,0.25859 -0.0784,0.50733 -0.11758,0.76428 -0.0919,0.58773 -0.1759,1.18519 -0.29395,1.76371 -0.13944,0.69952 -0.3531,1.37219 -0.52911,2.05765 -0.12575,0.48965 -0.2676,0.98776 -0.41154,1.46976 -0.0403,0.13517 -0.0758,0.27698 -0.11758,0.41153 -0.0928,0.29224 -0.19454,0.59261 -0.29395,0.88186 -0.27045,0.78694 -0.56414,1.58771 -0.88185,2.35161 -0.0474,0.11519 -0.0692,0.23809 -0.11758,0.35274 -0.27557,0.64534 -0.574,1.25365 -0.88186,1.88129 -0.0303,0.0623 -0.087,0.11423 -0.11758,0.17637 -0.33515,0.67433 -0.68742,1.34627 -1.05822,1.99887 l -17.16676,-17.10797 18.63651,-18.63651 z m -35.5681,35.56811 16.46127,16.40248 c -0.56971,0.26517 -1.12127,0.58433 -1.70492,0.82306 -0.17325,0.0702 -0.35464,0.10865 -0.52911,0.17637 -0.52883,0.20766 -1.04786,0.40264 -1.58734,0.58791 -0.65792,0.22596 -1.32589,0.45519 -1.99887,0.64669 -0.67297,0.1915 -1.37048,0.31457 -2.05766,0.47032 -0.68717,0.15575 -1.35714,0.29281 -2.05766,0.41153 -0.38812,0.0658 -0.78378,0.12225 -1.1758,0.17638 -0.43625,0.0591 -0.85268,0.13172 -1.29339,0.17637 -1.30091,0.13178 -2.66204,0.23324 -3.99773,0.23516 -0.73709,0 -1.50707,-0.0188 -2.23403,-0.0588 -0.60789,-0.0343 -1.22275,-0.11418 -1.8225,-0.17637 -0.44071,-0.0447 -0.85714,-0.1173 -1.29339,-0.17637 -0.39635,-0.0537 -0.78335,-0.111 -1.1758,-0.17638 -0.70052,-0.11872 -1.37048,-0.25578 -2.05766,-0.41153 -0.68718,-0.15575 -1.38469,-0.27882 -2.05766,-0.47032 -0.67298,-0.1915 -1.34095,-0.42073 -1.99887,-0.64669 -0.29615,-0.1017 -0.58888,-0.18546 -0.88186,-0.29395 -0.25901,-0.0947 -0.50785,-0.194 -0.76427,-0.29396 -0.15607,-0.0615 -0.31521,-0.11291 -0.47032,-0.17637 -0.59046,-0.23905 -1.12924,-0.55652 -1.70492,-0.82306 l 16.40249,-16.40248 z"
         id="path2727" />
    </clipPath>
    <radialGradient
       inkscape:collect="always"
       xlink:href="#linearGradient3835"
       id="radialGradient3440"
       gradientUnits="userSpaceOnUse"
       gradientTransform="matrix(1,7.1693163e-7,-7.7186683e-7,1.0766255,1.795441e-4,-17.823295)"
       cx="-824.58069"
       cy="232.61047"
       fx="-824.58069"
       fy="232.61047"
       r="23.9375" />
    <linearGradient
       id="linearGradient3835">
      <stop
         id="stop3837"
         style="stop-color:#ffffff;stop-opacity:1"
         offset="0" />
      <stop
         id="stop3839"
         style="stop-color:#ffffff;stop-opacity:0"
         offset="1" />
    </linearGradient>
    <filter
       color-interpolation-filters="sRGB"
       id="filter4134">
      <feGaussianBlur
         id="feGaussianBlur4136"
         stdDeviation="0.28743233"
         inkscape:collect="always" />
    </filter>
    <radialGradient
       inkscape:collect="always"
       xlink:href="#linearGradient3706"
       id="radialGradient3442"
       gradientUnits="userSpaceOnUse"
       gradientTransform="matrix(1,0,0,0.3160957,0,222.83692)"
       cx="-825.97125"
       cy="315.76404"
       fx="-825.97125"
       fy="315.76404"
       r="17.75" />
    <linearGradient
       id="linearGradient3706">
      <stop
         id="stop3708"
         style="stop-color:#ffffff;stop-opacity:1"
         offset="0" />
      <stop
         id="stop3710"
         style="stop-color:#ffffff;stop-opacity:0"
         offset="1" />
    </linearGradient>
    <filter
       color-interpolation-filters="sRGB"
       height="1.2557172"
       y="-0.12785856"
       width="1.0808311"
       x="-0.040415537"
       id="filter4202">
      <feGaussianBlur
         id="feGaussianBlur4204"
         stdDeviation="0.59781314"
         inkscape:collect="always" />
    </filter>
    <radialGradient
       inkscape:collect="always"
       xlink:href="#linearGradient3598"
       id="radialGradient3444"
       gradientUnits="userSpaceOnUse"
       gradientTransform="matrix(1,-5.9653348e-8,1.4682541e-7,2.4613106,-4.8987085e-5,-487.55424)"
       cx="-825.2254"
       cy="337.20309"
       fx="-825.2254"
       fy="337.20309"
       r="14.765625" />
    <linearGradient
       id="linearGradient3598">
      <stop
         id="stop3600"
         style="stop-color:#ffbfbf;stop-opacity:1"
         offset="0" />
      <stop
         id="stop3602"
         style="stop-color:#ffbfbf;stop-opacity:0"
         offset="1" />
    </linearGradient>
    <filter
       color-interpolation-filters="sRGB"
       height="1.5161119"
       y="-0.25805596"
       width="1.1086627"
       x="-0.05433137"
       id="filter4248">
      <feGaussianBlur
         id="feGaussianBlur4250"
         stdDeviation="0.66853052"
         inkscape:collect="always" />
    </filter>
    <radialGradient
       inkscape:collect="always"
       xlink:href="#linearGradient3260-778"
       id="radialGradient3446"
       gradientUnits="userSpaceOnUse"
       gradientTransform="matrix(0.9635773,-0.01309639,0.02136197,1.5717284,-37.022974,-170.51918)"
       cx="-826.73407"
       cy="279.76837"
       fx="-826.73407"
       fy="279.76837"
       r="18.125" />
    <linearGradient
       id="linearGradient3260-778">
      <stop
         id="stop2489"
         style="stop-color:#ffffff;stop-opacity:1"
         offset="0" />
      <stop
         id="stop2491"
         style="stop-color:#ffffff;stop-opacity:0"
         offset="1" />
    </linearGradient>
    <filter
       color-interpolation-filters="sRGB"
       height="1.2074844"
       y="-0.10374219"
       width="1.1734999"
       x="-0.086749934"
       id="filter4176">
      <feGaussianBlur
         id="feGaussianBlur4178"
         stdDeviation="1.3102854"
         inkscape:collect="always" />
    </filter>
    <radialGradient
       inkscape:collect="always"
       xlink:href="#linearGradient3527"
       id="radialGradient2645"
       gradientUnits="userSpaceOnUse"
       gradientTransform="matrix(0.6636701,0,0,0.8009812,281.37349,46.315331)"
       cx="-79.25"
       cy="81.75"
       fx="-79.25"
       fy="81.75"
       r="43.5" />
    <linearGradient
       id="linearGradient3527">
      <stop
         id="stop3529"
         style="stop-color:#ff0000;stop-opacity:1"
         offset="0" />
      <stop
         id="stop3531"
         style="stop-color:#7f0000;stop-opacity:1"
         offset="1" />
    </linearGradient>
    <linearGradient
       inkscape:collect="always"
       xlink:href="#linearGradient3598"
       id="linearGradient2642"
       gradientUnits="userSpaceOnUse"
       gradientTransform="matrix(0.5315506,0,0,0.5315506,270.83303,71.016701)"
       x1="-89.75"
       y1="-28.999977"
       x2="-73.8125"
       y2="76.000023" />
    <linearGradient
       id="linearGradient3250">
      <stop
         id="stop3252"
         style="stop-color:#ffbfbf;stop-opacity:1"
         offset="0" />
      <stop
         id="stop3254"
         style="stop-color:#ffbfbf;stop-opacity:0"
         offset="1" />
    </linearGradient>
    <linearGradient
       inkscape:collect="always"
       xlink:href="#linearGradient3260-778"
       id="linearGradient2639"
       gradientUnits="userSpaceOnUse"
       gradientTransform="matrix(0.5315506,0,0,0.5315506,271.01254,70.903661)"
       x1="-89.75"
       y1="-28.999977"
       x2="-73.8125"
       y2="76.000023" />
    <linearGradient
       id="linearGradient3257">
      <stop
         id="stop3259"
         style="stop-color:#ffffff;stop-opacity:1"
         offset="0" />
      <stop
         id="stop3261"
         style="stop-color:#ffffff;stop-opacity:0"
         offset="1" />
    </linearGradient>
    <linearGradient
       inkscape:collect="always"
       xlink:href="#linearGradient3260-778"
       id="linearGradient2636"
       gradientUnits="userSpaceOnUse"
       gradientTransform="matrix(0.5315506,0,0,0.5315506,270.39876,70.956816)"
       x1="-13.20569"
       y1="84.70369"
       x2="-84.772652"
       y2="19.43148" />
    <linearGradient
       id="linearGradient3264">
      <stop
         id="stop3266"
         style="stop-color:#ffffff;stop-opacity:1"
         offset="0" />
      <stop
         id="stop3268"
         style="stop-color:#ffffff;stop-opacity:0"
         offset="1" />
    </linearGradient>
    <linearGradient
       inkscape:collect="always"
       xlink:href="#linearGradient2929"
       id="linearGradient2708"
       gradientUnits="userSpaceOnUse"
       gradientTransform="matrix(0.5315506,0,0,0.5315506,228.58555,-54.894927)"
       x1="4.3614073"
       y1="339.1261"
       x2="7.3560495"
       y2="232.5502" />
    <linearGradient
       id="linearGradient2929">
      <stop
         id="stop2931"
         style="stop-color:#efa040;stop-opacity:1;"
         offset="0" />
      <stop
         id="stop2933"
         style="stop-color:#c0a331;stop-opacity:0"
         offset="1" />
    </linearGradient>
    <filter
       color-interpolation-filters="sRGB"
       inkscape:collect="always"
       id="filter4076">
      <feGaussianBlur
         inkscape:collect="always"
         stdDeviation="0.27544051"
         id="feGaussianBlur4078" />
    </filter>
    <linearGradient
       inkscape:collect="always"
       xlink:href="#linearGradient2929"
       id="linearGradient2632"
       gradientUnits="userSpaceOnUse"
       gradientTransform="matrix(0.5315506,0,0,0.5315506,228.57639,-54.89493)"
       x1="4.3614073"
       y1="339.1261"
       x2="7.3560495"
       y2="232.5502" />
    <linearGradient
       id="linearGradient3277">
      <stop
         id="stop3279"
         style="stop-color:#efa040;stop-opacity:1;"
         offset="0" />
      <stop
         id="stop3281"
         style="stop-color:#c0a331;stop-opacity:0"
         offset="1" />
    </linearGradient>
    <filter
       color-interpolation-filters="sRGB"
       id="filter4055">
      <feGaussianBlur
         id="feGaussianBlur4057"
         stdDeviation="0.16412598"
         inkscape:collect="always" />
    </filter>
    <linearGradient
       y2="232.5502"
       x2="7.3560495"
       y1="339.1261"
       x1="4.3614073"
       gradientTransform="matrix(0.5315506,0,0,0.5315506,228.57639,-54.89493)"
       gradientUnits="userSpaceOnUse"
       id="linearGradient3300"
       xlink:href="#linearGradient2929"
       inkscape:collect="always" />
  </defs>
  <sodipodi:namedview
     id="base"
     pagecolor="#ffffff"
     bordercolor="#666666"
     borderopacity="1.0"
     inkscape:pageopacity="0.0"
     inkscape:pageshadow="2"
     inkscape:zoom="0.35"
     inkscape:cx="375"
     inkscape:cy="520"
     inkscape:document-units="px"
     inkscape:current-layer="layer1"
     showgrid="false"
     inkscape:window-width="1432"
     inkscape:window-height="816"
     inkscape:window-x="0"
     inkscape:window-y="0"
     inkscape:window-maximized="1" />
  <metadata
     id="metadata4989">
    <rdf:RDF>
      <cc:Work
         rdf:about="">
        <dc:format>image/svg+xml</dc:format>
        <dc:type
           rdf:resource="http://purl.org/dc/dcmitype/StillImage" />
        <dc:title></dc:title>
      </cc:Work>
    </rdf:RDF>
  </metadata>
  <g
     inkscape:label="Layer 1"
     inkscape:groupmode="layer"
     id="layer1"
     transform="translate(0,-924.36218)">
    <g
       id="g2731"
       transform="matrix(2.0015848,0,0,2.0015833,-393.92503,795.14694)">
      <path
         inkscape:connector-curvature="0"
         id="path4272"
         d="m 228.78125,65.9375 c -0.52699,0 -1.07323,0.03603 -1.59375,0.0625 -1.55087,0.08043 -3.08034,0.25852 -4.5625,0.5625 -0.49724,0.102004 -1.01181,0.217858 -1.5,0.34375 -0.47861,0.123884 -0.9682,0.291279 -1.4375,0.4375 -0.4785,0.149135 -0.96934,0.297017 -1.4375,0.46875 -2.33156,0.857482 -4.53525,2.005131 -6.5625,3.375 -0.81358,0.550087 -1.61955,1.126297 -2.375,1.75 -1.88266,1.555694 -3.56584,3.355863 -5.03125,5.3125 -0.58754,0.785159 -1.14491,1.596791 -1.65625,2.4375 -0.76772,1.261064 -1.44961,2.565966 -2.03125,3.9375 -0.38737,0.914356 -0.73298,1.855498 -1.03125,2.8125 -0.89576,2.871007 -1.375,5.931839 -1.375,9.09375 0,3.16191 0.47924,6.22274 1.375,9.09375 0.29827,0.957 0.64388,1.89814 1.03125,2.8125 0.58164,1.37153 1.26353,2.67644 2.03125,3.9375 0.51134,0.84071 1.06871,1.65234 1.65625,2.4375 1.17608,1.57032 2.48757,3.0266 3.9375,4.34375 0.36222,0.32929 0.71603,0.6569 1.09375,0.96875 0.006,0.005 0.0252,-0.005 0.0312,0 0.37165,0.30634 0.73899,0.6174 1.125,0.90625 1.96951,1.47531 4.11173,2.71583 6.40625,3.6875 0.45718,0.19369 0.90684,0.35952 1.375,0.53125 0.47724,0.17551 0.94953,0.34796 1.4375,0.5 0.4785,0.14914 0.94931,0.28036 1.4375,0.40625 1.47409,0.38157 2.9807,0.65459 4.53125,0.8125 0.5134,0.0523 1.01073,0.0673 1.53125,0.0937 0.53079,0.0275 1.05626,0.0625 1.59375,0.0625 0.52699,0 1.04198,-0.036 1.5625,-0.0625 8.84933,-0.44997 16.72543,-4.67243 22.03125,-11.09375 4.36592,-5.28814 7,-12.05971 7,-19.4375 0,-0.526985 -0.036,-1.041982 -0.0625,-1.5625 -0.39703,-7.807761 -3.71508,-14.871326 -8.90625,-20.0625 -4.84873,-4.845095 -11.31148,-8.080404 -18.5,-8.8125 -1.02681,-0.104585 -2.07103,-0.15625 -3.125,-0.15625 z m 0,9.75 c 0.36026,0 0.73802,0.01327 1.09375,0.03125 0.20471,0.01035 0.39065,0.01506 0.59375,0.03125 0.35376,0.02944 0.71428,0.07774 1.0625,0.125 0.14619,0.01984 0.29233,0.03959 0.4375,0.0625 0.74941,0.118285 1.46744,0.272005 2.1875,0.46875 1.7191,0.469713 3.35795,1.169293 4.875,2.03125 l -10.25,10.25 -10.25,-10.25 c 1.51705,-0.861957 3.12465,-1.561537 4.84375,-2.03125 0.0627,-0.01713 0.12455,-0.04594 0.1875,-0.0625 0.65982,-0.173578 1.34711,-0.298267 2.03125,-0.40625 0.14633,-0.02231 0.29018,-0.04324 0.4375,-0.0625 0.34822,-0.04726 0.70874,-0.09556 1.0625,-0.125 0.56144,-0.04672 1.11326,-0.0625 1.6875,-0.0625 z m -18.90625,12.09375 9.90625,9.90625 -9.125,9.125 c -0.64647,-1.13779 -1.19372,-2.33886 -1.625,-3.59375 -0.0532,-0.15471 -0.10663,-0.31243 -0.15625,-0.46875 -0.0821,-0.26449 -0.14698,-0.54358 -0.21875,-0.8125 -0.0171,-0.0627 -0.0459,-0.12455 -0.0625,-0.1875 -0.0799,-0.3112 -0.12174,-0.62082 -0.1875,-0.9375 -0.005,-0.0221 -0.0266,-0.0403 -0.0312,-0.0625 -0.008,-0.0417 -0.023,-0.0833 -0.0312,-0.125 -0.0605,-0.29634 -0.1087,-0.60535 -0.15625,-0.90625 -0.0481,-0.315531 -0.12242,-0.648696 -0.15625,-0.96875 -0.008,-0.07133 0.007,-0.147209 0,-0.21875 -0.0296,-0.310169 -0.0466,-0.62348 -0.0625,-0.9375 -0.018,-0.355726 -0.0312,-0.702241 -0.0312,-1.0625 0,-0.717982 0.0214,-1.426981 0.0937,-2.125 0.006,-0.06225 0.0244,-0.125414 0.0312,-0.1875 0.0428,-0.378995 0.0931,-0.752641 0.15625,-1.125 0.31557,-1.861795 0.88274,-3.650687 1.65625,-5.3125 z m 37.8125,0 c 0.46411,0.997088 0.85088,2.051829 1.15625,3.125 0.30537,1.073171 0.52798,2.175515 0.65625,3.3125 0.007,0.06209 0.0249,0.125249 0.0312,0.1875 0.0329,0.317983 0.0443,0.646465 0.0625,0.96875 0.0213,0.386549 0.0312,0.764313 0.0312,1.15625 0,0.360259 -0.0133,0.706774 -0.0312,1.0625 -0.018,0.355726 -0.0582,0.711741 -0.0937,1.0625 -0.022,0.211136 -0.0341,0.415887 -0.0625,0.625 -0.0188,0.143565 -0.0408,0.294878 -0.0625,0.4375 -0.0477,0.30212 -0.0955,0.60872 -0.15625,0.90625 -0.0756,0.382 -0.15393,0.75087 -0.25,1.125 -0.0166,0.063 -0.0454,0.12479 -0.0625,0.1875 -0.0718,0.26892 -0.13663,0.54801 -0.21875,0.8125 -0.0496,0.15632 -0.10308,0.31404 -0.15625,0.46875 -0.0565,0.16786 -0.12685,0.33409 -0.1875,0.5 -0.24573,0.65934 -0.53629,1.27942 -0.84375,1.90625 -0.137,0.28221 -0.25707,0.56886 -0.40625,0.84375 -0.0286,0.0525 -0.0647,0.10405 -0.0937,0.15625 -0.034,0.0613 -0.0592,0.1266 -0.0937,0.1875 l -9.125,-9.125 9.90625,-9.90625 z m -18.90625,18.90625 8.75,8.75 c -0.99709,0.46411 -2.05183,0.85088 -3.125,1.15625 -0.35772,0.10179 -0.69723,0.19846 -1.0625,0.28125 -0.28325,0.0642 -0.58745,0.10383 -0.875,0.15625 -0.3845,0.0689 -0.76469,0.13997 -1.15625,0.1875 -0.36927,0.0457 -0.74974,0.068 -1.125,0.0937 -0.1148,0.008 -0.22845,0.0254 -0.34375,0.0312 -0.35441,0.0184 -0.70327,0.0312 -1.0625,0.0312 -0.4025,0 -0.79069,-0.009 -1.1875,-0.0312 -0.10714,-0.006 -0.20582,-0.0236 -0.3125,-0.0312 -0.27057,-0.0193 -0.54491,-0.033 -0.8125,-0.0625 -0.29493,-0.0333 -0.58405,-0.0794 -0.875,-0.125 -0.0859,-0.0131 -0.16442,-0.0171 -0.25,-0.0312 -0.0717,-0.0122 -0.1473,-0.0184 -0.21875,-0.0312 -0.29958,-0.0541 -0.61132,-0.12065 -0.90625,-0.1875 -0.21815,-0.0494 -0.44075,-0.1 -0.65625,-0.15625 -0.33326,-0.0856 -0.6422,-0.17986 -0.96875,-0.28125 -0.52735,-0.16579 -1.0537,-0.35713 -1.5625,-0.5625 -0.34127,-0.13775 -0.66764,-0.2828 -1,-0.4375 l 8.75,-8.75 z"
         style="fill:url(#linearGradient2712);fill-opacity:1;stroke:none;filter:url(#filter4068)" />
      <path
         inkscape:connector-curvature="0"
         id="path3949"
         d="m 228.78125,65.9375 c -0.52699,0 -1.04195,0.03603 -1.5625,0.0625 -1.04103,0.05294 -2.08246,0.157558 -3.09375,0.3125 -1.0011,0.15438 -2.00179,0.344468 -2.96875,0.59375 -0.48819,0.125892 -0.99025,0.257115 -1.46875,0.40625 -0.46919,0.146679 -0.94699,0.331597 -1.40625,0.5 -0.46816,0.171733 -0.94907,0.337564 -1.40625,0.53125 -1.36287,0.578623 -2.68365,1.26905 -3.9375,2.03125 -0.42035,0.255672 -0.84321,0.537456 -1.25,0.8125 -0.80653,0.545974 -1.59434,1.131703 -2.34375,1.75 -0.74956,0.618839 -1.46898,1.282501 -2.15625,1.96875 -0.35174,0.351215 -0.69683,0.694627 -1.03125,1.0625 -4.94319,5.433359 -7.96875,12.657726 -7.96875,20.5625 0,7.90478 3.02556,15.12914 7.96875,20.5625 0.33442,0.36787 0.67951,0.71129 1.03125,1.0625 0.34093,0.34043 0.67468,0.67585 1.03125,1 0.73012,0.66425 1.48946,1.28288 2.28125,1.875 0.39258,0.29377 0.78071,0.56871 1.1875,0.84375 1.22743,0.83089 2.49875,1.57005 3.84375,2.21875 0.44555,0.21499 0.88657,0.43131 1.34375,0.625 0.46577,0.19775 0.92909,0.35628 1.40625,0.53125 0.46816,0.17173 0.92775,0.31961 1.40625,0.46875 0.96633,0.30211 1.93301,0.57524 2.9375,0.78125 0.49724,0.102 0.99435,0.17253 1.5,0.25 0.0101,0.002 0.0212,-0.002 0.0312,0 0.49569,0.0754 0.99686,0.1675 1.5,0.21875 1.0369,0.10666 2.06049,0.15625 3.125,0.15625 0.51667,0 1.05204,-0.037 1.5625,-0.0625 7.80824,-0.39703 14.86743,-3.71508 20.0625,-8.90625 0.69216,-0.69216 1.34505,-1.43205 1.96875,-2.1875 4.36592,-5.28814 7,-12.05971 7,-19.4375 0,-0.526985 -0.005,-1.041983 -0.0312,-1.5625 -0.3441,-6.766726 -2.91468,-12.964583 -6.96875,-17.875 -0.6237,-0.755449 -1.27659,-1.495344 -1.96875,-2.1875 -5.54141,-5.537252 -13.19323,-8.96875 -21.625,-8.96875 z m 0,9.75 c 0.36026,0 0.73802,0.01327 1.09375,0.03125 0.0943,0.0051 0.18729,-0.0064 0.28125,0 0.1045,0.0067 0.20842,0.02304 0.3125,0.03125 0.35376,0.02944 0.71428,0.07774 1.0625,0.125 0.14619,0.01984 0.29233,0.03959 0.4375,0.0625 0.68414,0.107983 1.37143,0.232672 2.03125,0.40625 0.063,0.01656 0.12479,0.04537 0.1875,0.0625 1.7191,0.469713 3.3267,1.169292 4.84375,2.03125 l -10.25,10.25 -10.25,-10.25 c 1.51705,-0.861958 3.1559,-1.561537 4.875,-2.03125 0.72007,-0.196745 1.43809,-0.350465 2.1875,-0.46875 0.14212,-0.02166 0.29444,-0.04371 0.4375,-0.0625 0.33811,-0.04589 0.68791,-0.09591 1.03125,-0.125 0.21771,-0.01782 0.43668,-0.02015 0.65625,-0.03125 0.35674,-0.0187 0.70078,-0.03125 1.0625,-0.03125 z m -18.875,12.09375 9.875,9.90625 -9.09375,9.09375 c -0.21549,-0.37926 -0.43221,-0.76321 -0.625,-1.15625 -0.57837,-1.17912 -1.05397,-2.39818 -1.40625,-3.6875 -0.0171,-0.0627 -0.0459,-0.12455 -0.0625,-0.1875 -0.0799,-0.3112 -0.12174,-0.62082 -0.1875,-0.9375 -0.005,-0.0221 -0.0266,-0.0403 -0.0312,-0.0625 -0.008,-0.0417 -0.023,-0.0833 -0.0312,-0.125 -0.0292,-0.14296 -0.0363,-0.29346 -0.0625,-0.4375 -0.0382,-0.217124 -0.0935,-0.436847 -0.125,-0.65625 -0.0432,-0.291256 -0.063,-0.579758 -0.0937,-0.875 -0.0355,-0.350759 -0.0758,-0.706774 -0.0937,-1.0625 -0.018,-0.355726 -0.0312,-0.702241 -0.0312,-1.0625 0,-0.359232 0.0129,-0.708089 0.0312,-1.0625 0.002,-0.03128 -0.002,-0.06251 0,-0.09375 0.002,-0.04116 -0.003,-0.08391 0,-0.125 0.0934,-1.49706 0.35372,-2.951082 0.75,-4.34375 0.30537,-1.07317 0.72339,-2.127912 1.1875,-3.125 z m 37.78125,0 c 0.77351,1.661813 1.34068,3.450705 1.65625,5.3125 0.0631,0.372359 0.11349,0.746005 0.15625,1.125 0.007,0.06209 0.0249,0.125249 0.0312,0.1875 0.0723,0.698019 0.0937,1.407018 0.0937,2.125 0,0.360259 -0.0133,0.706774 -0.0312,1.0625 -0.0159,0.31402 -0.0329,0.62733 -0.0625,0.9375 -0.004,0.04119 0.004,0.08388 0,0.125 -0.003,0.03146 0.003,0.06234 0,0.09375 -0.0338,0.320054 -0.10815,0.653219 -0.15625,0.96875 -0.0176,0.115636 -0.043,0.228752 -0.0625,0.34375 -0.0992,0.56535 -0.19949,1.13911 -0.34375,1.6875 -0.0166,0.063 -0.0454,0.12479 -0.0625,0.1875 -0.11743,0.42977 -0.23124,0.8317 -0.375,1.25 -0.43128,1.25489 -0.97853,2.45596 -1.625,3.59375 l -9.125,-9.09375 9.90625,-9.90625 z m -18.90625,18.90625 8.75,8.75 c -0.83234,0.38742 -1.67644,0.72213 -2.5625,1 -0.1535,0.0481 -0.31377,0.0803 -0.46875,0.125 -0.045,0.0128 -0.0799,0.05 -0.125,0.0625 -0.33653,0.0946 -0.68808,0.17222 -1.03125,0.25 -0.31448,0.0713 -0.64899,0.13077 -0.96875,0.1875 -0.27641,0.0477 -0.5637,0.0882 -0.84375,0.125 -0.41823,0.0564 -0.82395,0.0943 -1.25,0.125 -0.14576,0.0104 -0.29092,0.0238 -0.4375,0.0312 -0.34522,0.0174 -0.71272,0.0312 -1.0625,0.0312 -0.39194,0 -0.7697,-0.01 -1.15625,-0.0312 -0.32228,-0.0182 -0.65077,-0.0296 -0.96875,-0.0625 -0.0639,-0.006 -0.12376,-0.0242 -0.1875,-0.0312 -0.2846,-0.0321 -0.56286,-0.0814 -0.84375,-0.125 -0.0936,-0.0143 -0.18804,-0.0157 -0.28125,-0.0312 -0.0839,-0.0142 -0.16647,-0.016 -0.25,-0.0312 -0.28727,-0.0524 -0.56077,-0.12336 -0.84375,-0.1875 -0.21815,-0.0494 -0.44075,-0.1 -0.65625,-0.15625 -0.14597,-0.0375 -0.29279,-0.0845 -0.4375,-0.125 -1.07317,-0.30537 -2.12791,-0.69214 -3.125,-1.15625 l 8.75,-8.75 z"
         style="fill:url(#linearGradient2710);fill-opacity:1;stroke:none" />
      <path
         inkscape:connector-curvature="0"
         id="path2673"
         d="m 228.78125,65.9375 c -0.52698,0 -1.07323,0.03603 -1.59375,0.0625 -1.55087,0.08043 -3.08034,0.25852 -4.5625,0.5625 -0.49724,0.102004 -1.01181,0.217858 -1.5,0.34375 -0.4785,0.123861 -0.9683,0.260062 -1.4375,0.40625 -0.4785,0.149135 -0.96934,0.328267 -1.4375,0.5 -0.92716,0.340984 -1.8359,0.730445 -2.71875,1.15625 -0.8911,0.429986 -1.78429,0.894906 -2.625,1.40625 -0.41297,0.251518 -0.81887,0.54229 -1.21875,0.8125 -0.81358,0.550087 -1.61955,1.126297 -2.375,1.75 -0.74945,0.61929 -1.4691,1.282114 -2.15625,1.96875 -0.69216,0.692156 -1.34505,1.432051 -1.96875,2.1875 -1.87264,2.266347 -3.43047,4.788182 -4.59375,7.53125 -0.38737,0.914356 -0.73298,1.855498 -1.03125,2.8125 -0.89576,2.871006 -1.375,5.93184 -1.375,9.09375 0,3.161911 0.47924,6.22274 1.375,9.09375 0.29827,0.957 0.64388,1.89814 1.03125,2.8125 1.16328,2.74307 2.72111,5.2649 4.59375,7.53125 0.6237,0.75545 1.27659,1.49534 1.96875,2.1875 0.34634,0.34608 0.70002,0.67071 1.0625,1 0.36222,0.32929 0.71603,0.6569 1.09375,0.96875 0.006,0.005 0.0252,-0.005 0.0312,0 0.37165,0.30634 0.73899,0.6174 1.125,0.90625 0.39916,0.299 0.8049,0.5641 1.21875,0.84375 0.40679,0.27504 0.7984,0.55683 1.21875,0.8125 0.007,0.004 0.0239,-0.004 0.0312,0 0.4128,0.25057 0.82476,0.48747 1.25,0.71875 0.87456,0.47644 1.76427,0.92154 2.6875,1.3125 0.45718,0.19369 0.90684,0.35952 1.375,0.53125 0.47724,0.17551 0.94953,0.31671 1.4375,0.46875 0.4785,0.14914 0.94931,0.31161 1.4375,0.4375 1.47398,0.38153 2.98082,0.6546 4.53125,0.8125 0.5134,0.0523 1.01073,0.0673 1.53125,0.0937 0.53078,0.0275 1.05626,0.0625 1.59375,0.0625 0.52698,0 1.04198,-0.036 1.5625,-0.0625 7.80822,-0.39703 14.83619,-3.71508 20.03125,-8.90625 0.35174,-0.35121 0.69683,-0.69463 1.03125,-1.0625 0.32955,-0.36222 0.65664,-0.74728 0.96875,-1.125 4.36592,-5.28814 7,-12.05971 7,-19.4375 0,-0.526985 -0.036,-1.041983 -0.0625,-1.5625 -0.37056,-7.287244 -3.29623,-13.928865 -7.90625,-19 -0.33442,-0.367873 -0.67951,-0.711285 -1.03125,-1.0625 -5.19496,-5.191124 -12.22293,-8.509166 -20.03115,-8.9062 -0.52052,-0.02647 -1.03552,-0.0625 -1.5625,-0.0625 z m 0,9.75 c 0.36026,0 0.70677,0.01327 1.0625,0.03125 0.21957,0.0111 0.43854,0.01343 0.65625,0.03125 0.34334,0.02909 0.69314,0.07911 1.03125,0.125 0.14619,0.01984 0.29233,0.03959 0.4375,0.0625 0.74941,0.118285 1.46744,0.272005 2.1875,0.46875 1.71909,0.469713 3.35795,1.169292 4.875,2.03125 l -10.25,10.25 -10.25,-10.25 c 1.51705,-0.861958 3.12466,-1.561537 4.84375,-2.03125 0.0627,-0.01713 0.12455,-0.04594 0.1875,-0.0625 0.65981,-0.173578 1.34711,-0.298267 2.03125,-0.40625 0.14633,-0.02231 0.29018,-0.04324 0.4375,-0.0625 0.34822,-0.04726 0.70874,-0.09556 1.0625,-0.125 0.56144,-0.04672 1.11326,-0.0625 1.6875,-0.0625 z m -18.90625,12.09375 9.90625,9.90625 -9.125,9.09375 c -0.64647,-1.13779 -1.19372,-2.33886 -1.625,-3.59375 -0.14376,-0.4183 -0.25757,-0.82023 -0.375,-1.25 -0.0171,-0.0627 -0.0459,-0.12455 -0.0625,-0.1875 -0.0799,-0.3112 -0.12174,-0.62082 -0.1875,-0.9375 -0.005,-0.0221 -0.0266,-0.0403 -0.0312,-0.0625 -0.008,-0.0417 -0.023,-0.0833 -0.0312,-0.125 -0.0605,-0.29634 -0.1087,-0.60535 -0.15625,-0.90625 -0.0481,-0.315531 -0.12242,-0.648696 -0.15625,-0.96875 -0.008,-0.07133 0.007,-0.147209 0,-0.21875 -0.0296,-0.31017 -0.0466,-0.62348 -0.0625,-0.9375 -0.018,-0.355726 -0.0312,-0.702241 -0.0312,-1.0625 0,-0.717982 0.0214,-1.426981 0.0937,-2.125 0.006,-0.06225 0.0244,-0.125414 0.0312,-0.1875 0.0428,-0.378995 0.0931,-0.752641 0.15625,-1.125 0.31557,-1.861795 0.88274,-3.650687 1.65625,-5.3125 z m 37.78125,0 c 0.46411,0.997088 0.88213,2.05183 1.1875,3.125 0.30537,1.07317 0.52798,2.175515 0.65625,3.3125 0.007,0.06209 0.0249,0.125249 0.0312,0.1875 0.0329,0.317983 0.0443,0.646465 0.0625,0.96875 0.0213,0.386549 0.0312,0.764313 0.0312,1.15625 0,0.360259 -0.0133,0.706774 -0.0312,1.0625 -0.018,0.355726 -0.0582,0.711741 -0.0937,1.0625 -0.022,0.211136 -0.0341,0.415887 -0.0625,0.625 -0.0188,0.143565 -0.0408,0.294878 -0.0625,0.4375 -0.0477,0.30212 -0.0955,0.60872 -0.15625,0.90625 -0.0756,0.382 -0.15393,0.75087 -0.25,1.125 -0.0166,0.063 -0.0454,0.12479 -0.0625,0.1875 -0.35229,1.28932 -0.82788,2.50838 -1.40625,3.6875 -0.19279,0.39304 -0.40951,0.77699 -0.625,1.15625 l -9.09375,-9.09375 9.875,-9.90625 z m -18.875,18.90625 8.75,8.75 c -0.99709,0.46411 -2.05183,0.85088 -3.125,1.15625 -0.35772,0.10179 -0.69723,0.19846 -1.0625,0.28125 -0.28325,0.0642 -0.58745,0.10383 -0.875,0.15625 -0.3845,0.0689 -0.76469,0.13997 -1.15625,0.1875 -0.36927,0.0457 -0.74974,0.068 -1.125,0.0937 -0.1148,0.008 -0.22845,0.0254 -0.34375,0.0312 -0.35441,0.0184 -0.70327,0.0312 -1.0625,0.0312 -0.40249,0 -0.79069,-0.009 -1.1875,-0.0312 -0.10714,-0.006 -0.20582,-0.0236 -0.3125,-0.0312 -0.27057,-0.0193 -0.54491,-0.033 -0.8125,-0.0625 -0.29493,-0.0333 -0.58406,-0.0794 -0.875,-0.125 -0.0859,-0.0131 -0.16442,-0.0171 -0.25,-0.0312 -0.0717,-0.0122 -0.1473,-0.0184 -0.21875,-0.0312 -0.29958,-0.0541 -0.61132,-0.12065 -0.90625,-0.1875 -0.21815,-0.0494 -0.44075,-0.1 -0.65625,-0.15625 -0.12761,-0.0328 -0.24835,-0.0586 -0.375,-0.0937 -0.0438,-0.0123 -0.0813,-0.0499 -0.125,-0.0625 -0.34106,-0.097 -0.66635,-0.1988 -1,-0.3125 -0.34972,-0.12011 -0.68998,-0.23725 -1.03125,-0.375 -0.34127,-0.13775 -0.66764,-0.2828 -1,-0.4375 l 8.75,-8.75 z"
         style="fill:url(#linearGradient2687);fill-opacity:1;stroke:none" />
      <g
         id="g4252"
         clip-path="url(#clipPath2725)"
         transform="matrix(0.5315506,0,0,0.5315506,668.33324,-54.904385)">
        <path
           inkscape:connector-curvature="0"
           style="fill:url(#radialGradient3440);fill-opacity:1;stroke:none;filter:url(#filter4134)"
           id="path4063"
           d="m -825.54942,227.34485 c -8.16294,0 -15.92831,1.73432 -22.96875,4.8125 5.96271,3.49921 14.81106,5.71875 24.71875,5.71875 9.06819,0 17.25916,-1.84557 23.15625,-4.84375 -7.54096,-3.63248 -15.9936,-5.6875 -24.90625,-5.6875 z" />
        <path
           inkscape:connector-curvature="0"
           style="fill:url(#radialGradient3442);fill-opacity:1;stroke:none;filter:url(#filter4202)"
           id="path4069"
           d="m -809.84989,320.21985 c -5.14454,2.47589 -10.90024,3.875 -17,3.875 -3.67701,0 -7.22884,-0.51127 -10.59375,-1.46875 l -4.15625,6.25 c 10.11424,2.62546 21.40166,3.68667 35.5,1 l -3.71875,-9.65625 -0.0312,0 z" />
        <path
           inkscape:connector-curvature="0"
           style="opacity:0.43599997;fill:url(#radialGradient3444);fill-opacity:1;stroke:none;filter:url(#filter4248)"
           id="path4077"
           d="m -813.3501,336.18981 c -7.60948,2.10607 -15.21895,3.25517 -22.82843,0.68629 l -3.8125,4.25 c 3.88712,0.83152 7.93065,1.28125 12.0625,1.28125 6.0881,0 11.95529,-0.95862 17.46875,-2.71875 l -2.89032,-3.49879 z" />
        <path
           inkscape:connector-curvature="0"
           sodipodi:nodetypes="ccccccc"
           style="fill:url(#radialGradient3446);fill-opacity:1;stroke:none;filter:url(#filter4176)"
           id="path4083"
           d="m -816.83807,260.0636 -10.08286,10.08286 -10.10387,-9.88224 -2.48274,6.55185 12.73776,13.21191 21.11921,-17.65188 -11.1875,-2.3125 z" />
      </g>
      <path
         inkscape:connector-curvature="0"
         style="fill:url(#radialGradient2645);fill-opacity:1;stroke:none"
         d="m 228.76563,67.812498 c -15.84443,-3e-6 -28.68748,12.87429 -28.68748,28.71875 1e-5,15.844462 12.84305,28.718752 28.68748,28.718752 15.84443,0 28.71872,-12.87429 28.71872,-28.718752 0,-15.844459 -12.87429,-28.71875 -28.71872,-28.71875 z m 0,6 c 0.61868,0 1.23727,0.01396 1.84375,0.0625 0.0207,0.0016 0.0418,-0.0017 0.0625,0 0.5224,0.04324 1.05056,0.109528 1.5625,0.1875 0.0618,0.0094 0.12588,0.02134 0.18749,0.03125 0.47631,0.07657 0.94022,0.175584 1.40625,0.28125 0.20934,0.04759 0.4179,0.102924 0.625,0.15625 0.0926,0.02384 0.18914,0.03753 0.28125,0.0625 0.38129,0.103253 0.7519,0.22145 1.125,0.34375 0.3168,0.103847 0.62698,0.226541 0.9375,0.34375 0.27203,0.102942 0.54556,0.19953 0.81249,0.3125 0.13199,0.05586 0.27555,0.09798 0.40626,0.15625 0.367,0.163195 0.73731,0.349505 1.09374,0.53125 0.46171,0.235428 0.90102,0.484626 1.34375,0.75 0.0323,0.01937 0.0615,0.04297 0.0937,0.0625 0.16601,0.100903 0.33681,0.2075 0.5,0.3125 0.22284,0.143196 0.43886,0.286821 0.65624,0.4375 0.11088,0.07684 0.23432,0.14 0.34376,0.21875 l -13.24998,13.28125 -13.28122,-13.28125 c 0.1108,-0.0798 0.23145,-0.14091 0.34375,-0.21875 0.36102,-0.250182 0.71797,-0.489353 1.09375,-0.71875 0.0122,-0.0074 0.019,-0.02384 0.0312,-0.03125 0.48093,-0.292336 0.96515,-0.555717 1.46875,-0.8125 0.43444,-0.221525 0.89368,-0.431134 1.34374,-0.625 0.0424,-0.01828 0.0824,-0.04447 0.125,-0.0625 0.0427,-0.01807 0.0822,-0.04469 0.125,-0.0625 0.15367,-0.06397 0.3134,-0.09558 0.46875,-0.15625 0.38069,-0.148676 0.76592,-0.309089 1.15625,-0.4375 0.35474,-0.116285 0.73158,-0.213422 1.09375,-0.3125 0.11342,-0.03103 0.22962,-0.06444 0.34375,-0.09375 0.2071,-0.05333 0.41566,-0.108664 0.62499,-0.15625 0.46604,-0.105666 0.92994,-0.204679 1.40625,-0.28125 0.0616,-0.0099 0.12573,-0.02184 0.1875,-0.03125 0.51194,-0.07797 1.0401,-0.144261 1.5625,-0.1875 0.62255,-0.05126 1.23929,-0.0625 1.87499,-0.0625 z m -19.34372,10.84375 13.03124,13.031251 -12.12499,12.125001 c -0.0487,-0.0676 -0.077,-0.15061 -0.125,-0.21875 -0.23513,-0.33417 -0.50153,-0.65283 -0.71875,-1 -0.0566,-0.0904 -0.10094,-0.19001 -0.15625,-0.28125 -0.23264,-0.38274 -0.44602,-0.75914 -0.65625,-1.15625 -0.12457,-0.23532 -0.22729,-0.4786 -0.34375,-0.71875 -0.185,-0.38077 -0.36726,-0.76399 -0.53125,-1.15625 -0.12779,-0.30696 -0.26045,-0.62391 -0.375,-0.9375 -0.0485,-0.13248 -0.0789,-0.27263 -0.125,-0.40625 -0.0745,-0.21634 -0.15066,-0.43702 -0.21875,-0.65625 -0.13964,-0.4496 -0.26297,-0.91399 -0.375,-1.375 -0.14004,-0.57626 -0.27978,-1.15766 -0.375,-1.75 -0.008,-0.0524 -0.0232,-0.10369 -0.0312,-0.156252 -0.0404,-0.264496 -0.0625,-0.545096 -0.0937,-0.8125 -0.0135,-0.115396 -0.0195,-0.227841 -0.0312,-0.34375 -0.0336,-0.330643 -0.0745,-0.665336 -0.0937,-0.999999 -0.0252,-0.438458 -0.0312,-0.867755 -0.0312,-1.312501 0,-0.49824 0.0309,-0.978454 0.0625,-1.468749 0.0109,-0.168957 0.0167,-0.332085 0.0312,-0.500001 0.0323,-0.373606 0.0748,-0.756766 0.125,-1.124999 0.004,-0.03111 -0.004,-0.06268 0,-0.09375 0.0671,-0.470553 0.15432,-0.945492 0.25,-1.40625 0.004,-0.02008 -0.004,-0.04244 0,-0.0625 0.0263,-0.125007 0.0654,-0.250759 0.0937,-0.375 0.0669,-0.296186 0.14045,-0.58331 0.21875,-0.875 0.0703,-0.259976 0.13949,-0.525042 0.21875,-0.78125 0.11065,-0.359427 0.24722,-0.7109 0.375,-1.062499 0.17614,-0.482937 0.35527,-0.939092 0.5625,-1.406251 0.1027,-0.231515 0.20242,-0.46008 0.3125,-0.6875 0.10977,-0.227715 0.22668,-0.464076 0.34375,-0.6875 0.23693,-0.450176 0.51599,-0.911761 0.78125,-1.34375 z m 38.71869,0 c 0.0194,0.03161 0.0432,0.06203 0.0625,0.09375 0.50727,0.835085 0.97566,1.724779 1.375,2.625 0.20722,0.467159 0.38636,0.923313 0.56249,1.406251 0.17615,0.482936 0.32508,0.97124 0.46875,1.468749 0.132,0.457051 0.27154,0.937878 0.37501,1.406251 0.009,0.04146 0.0223,0.08345 0.0312,0.124999 0.0111,0.05237 0.0205,0.103747 0.0312,0.15625 0.0169,0.08116 0.0153,0.168526 0.0313,0.25 0.0559,0.289305 0.11143,0.58191 0.15624,0.875 0.0482,0.31486 0.0899,0.649791 0.12501,0.968751 0.007,0.06204 0.0249,0.125308 0.0312,0.187499 0.029,0.283517 0.0441,0.557203 0.0625,0.843751 0.007,0.104442 0.0259,0.207679 0.0312,0.312499 0.0193,0.381884 0.0312,0.769522 0.0312,1.15625 0,0.618681 -0.0452,1.23727 -0.0937,1.84375 -0.029,0.362227 -0.0792,0.705178 -0.12501,1.0625 -0.0235,0.183783 -0.0346,0.380113 -0.0625,0.5625 -0.0352,0.230412 -0.0829,0.459422 -0.12499,0.687502 -0.0758,0.40848 -0.15267,0.81818 -0.25,1.21875 -0.11203,0.46101 -0.23536,0.9254 -0.375,1.375 -0.0349,0.1124 -0.0572,0.2321 -0.0937,0.34375 -0.0791,0.24077 -0.16311,0.4816 -0.25001,0.71875 -0.11454,0.31359 -0.24722,0.63054 -0.37499,0.9375 -0.15509,0.37097 -0.32611,0.73304 -0.5,1.09375 -0.0757,0.15734 -0.13956,0.31345 -0.21875,0.46875 -0.0897,0.17579 -0.18717,0.35814 -0.28126,0.53125 -0.0465,0.0856 -0.10865,0.16507 -0.15624,0.25 -0.30989,0.5529 -0.64647,1.10184 -1.00001,1.625 -0.12354,0.18283 -0.24631,0.35225 -0.37499,0.53125 L 235.10937,97.687499 248.1406,84.656248 z m -19.34372,19.375002 11.84373,11.875 c -0.0316,0.0194 -0.062,0.0432 -0.0937,0.0625 -0.40116,0.24363 -0.80205,0.46818 -1.21875,0.6875 -0.45018,0.23694 -0.90784,0.44902 -1.37499,0.65625 -0.11357,0.0503 -0.22922,0.10778 -0.34376,0.15625 -0.33567,0.14238 -0.68761,0.27973 -1.03124,0.40625 -0.0847,0.031 -0.16484,0.0637 -0.25,0.0937 -0.42272,0.15 -0.84751,0.28099 -1.28125,0.40625 -0.49751,0.14367 -0.98912,0.26517 -1.5,0.375 -0.42992,0.0924 -0.87389,0.18245 -1.31249,0.25 -0.0826,0.0127 -0.16712,0.0194 -0.25,0.0312 -0.40046,0.0571 -0.81178,0.1205 -1.21875,0.15625 -0.2693,0.0233 -0.54061,0.0174 -0.8125,0.0312 -0.38725,0.0196 -0.79539,0.0312 -1.1875,0.0312 -0.3921,0 -0.769,-0.0116 -1.15625,-0.0312 -0.27189,-0.0138 -0.5432,-0.008 -0.81249,-0.0312 -0.40697,-0.0357 -0.81829,-0.0991 -1.21875,-0.15625 -0.0829,-0.0118 -0.16741,-0.0185 -0.25,-0.0312 -0.4386,-0.0675 -0.88258,-0.15758 -1.3125,-0.25 -0.30802,-0.0662 -0.60299,-0.14013 -0.90624,-0.21875 -0.19737,-0.0508 -0.39849,-0.10029 -0.59375,-0.15625 -0.49751,-0.14367 -0.98582,-0.29261 -1.46875,-0.46875 -0.0306,-0.0112 -0.0632,-0.02 -0.0937,-0.0312 -0.45142,-0.16686 -0.9062,-0.36841 -1.34375,-0.5625 -0.46715,-0.20723 -0.92482,-0.41931 -1.37499,-0.65625 -0.45018,-0.23694 -0.88052,-0.48474 -1.3125,-0.75 l 11.87497,-11.875 z"
         id="path3350" />
      <path
         inkscape:connector-curvature="0"
         id="path3977"
         d="M 228.71875,67.8125 C 212.87428,67.812497 200,80.68679 200,96.53125 c 0,0.222551 0.0262,0.434913 0.0312,0.65625 1.944,0.390964 3.93125,0.71848 6,1 -0.0394,-0.546889 -0.0625,-1.099557 -0.0625,-1.65625 0,-4.386845 1.25197,-8.49511 3.40625,-11.96875 l 13.0625,13.0625 -1.5625,1.5625 c 0.0446,5.4e-5 0.0804,0 0.125,0 4.62089,10e-7 9.09421,-0.27102 13.34375,-0.78125 l 13.71875,-13.75 c 1.82367,2.969928 3.01935,6.400233 3.3125,10.0625 2.04964,-0.681012 3.96625,-1.442139 5.75,-2.25 -1.9719,-13.926516 -13.93808,-24.65625 -28.4062,-24.65625 z m 0,6 c 4.94944,-10e-7 9.51617,1.560875 13.25,4.25 L 228.75,91.3125 215.5,78.0625 c 3.72578,-2.671664 8.28565,-4.25 13.21875,-4.25 z"
         style="fill:url(#linearGradient2642);fill-opacity:1;stroke:none" />
      <path
         inkscape:connector-curvature="0"
         sodipodi:nodetypes="cscsccccsccccsssc"
         style="fill:url(#linearGradient2639);fill-opacity:1;stroke:none"
         id="path4007"
         d="m 228.88716,67.714358 c -15.84446,0 -28.70374,12.859272 -28.70374,28.703731 0,0.08341 -0.002,0.166179 0,0.249165 0.15218,-15.714172 12.95381,-28.421346 28.70374,-28.421346 14.29422,0 26.13716,10.470324 28.32167,24.15233 0.0269,-0.01211 0.0563,-0.02109 0.0831,-0.03322 C 255.31997,78.438499 243.35532,67.71436 228.8872,67.71436 z m -0.0752,23.642803 c 0.0446,4.8e-5 0.0883,0 0.13288,0 0.13392,0 0.26501,4.52e-4 0.39867,0 L 242.053,78.335403 228.81199,91.357161 z m -22.64862,5.376537 c -6.8e-4,0.0726 0,0.143183 0,0.215942 0,0.378613 0.0177,0.753771 0.0332,1.129545 0.006,7.49e-4 0.0111,-7.49e-4 0.0166,0 -0.0319,-0.443026 -0.0461,-0.894605 -0.0498,-1.345487 z" />
      <path
         inkscape:connector-curvature="0"
         style="fill:url(#linearGradient2636);fill-opacity:1;stroke:none"
         id="path4021"
         d="m 242.52558,71.554811 c 7.0962,4.38332 12.1352,11.765585 13.35521,20.381642 -1.57251,0.712183 -3.095,1.696949 -4.87365,2.312246 0.0275,0.243476 0.0102,0.166205 0.0299,0.411952 2.04964,-0.681018 3.85732,-1.434624 5.64108,-2.242479 -1.26473,-8.931836 -6.64286,-16.550365 -14.15254,-20.863361 z M 228.486,73.478359 c -12.54734,0 -23.36164,9.963821 -23.36164,22.511168 0,0.556693 -0.36163,1.114204 -0.32226,1.661096 -1.78695,-0.24318 -3.52319,-0.524785 -5.21584,-0.847159 0.004,0.110552 -0.003,0.221614 0,0.332219 1.94399,0.390961 3.94442,0.715132 6.01317,0.996657 -0.0394,-0.546891 -0.0498,-1.104403 -0.0498,-1.661095 0,-12.547348 10.17644,-22.723788 22.72378,-22.723788 4.00005,0 7.76166,1.025084 11.02968,2.840473 -3.44739,-2.103903 -6.48629,-3.109571 -10.81706,-3.109571 z m 4.62117,24.388206 c -3.89028,0.467089 -7.96966,0.722435 -12.17583,0.764104 l -0.49833,0.498329 c 0.0446,4.8e-5 0.0883,0 0.13289,0 4.62089,0 9.08905,-0.27049 13.3386,-0.780715 l 13.40504,-13.405042 -14.20237,12.923324 z" />
      <path
         inkscape:connector-curvature="0"
         id="path4035"
         d="m 228.79687,67.8125 c -15.84446,0 -28.71875,12.874287 -28.71875,28.71875 0,15.84446 12.87429,28.71875 28.71875,28.71875 15.84446,0 28.6875,-12.87429 28.6875,-28.71875 0,-15.84446 -12.84304,-28.71875 -28.6875,-28.71875 z m 0,6 c 0.61868,0 1.23727,0.01396 1.84375,0.0625 0.0311,0.0025 0.0627,-0.0026 0.0937,0 0.51028,0.04297 0.99972,0.111377 1.5,0.1875 0.0628,0.0096 0.12482,0.02117 0.1875,0.03125 0.47631,0.07657 0.94022,0.175584 1.40625,0.28125 0.20934,0.04759 0.4179,0.102924 0.625,0.15625 0.11453,0.02949 0.22992,0.06252 0.34375,0.09375 0.36217,0.09908 0.739,0.196215 1.09375,0.3125 0.55824,0.182988 1.08673,0.369677 1.625,0.59375 0.0864,0.03595 0.16412,0.08802 0.25,0.125 0.45006,0.193866 0.9093,0.403475 1.34375,0.625 0.5036,0.256783 0.98781,0.520164 1.46875,0.8125 0.0125,0.0076 0.0188,0.02364 0.0312,0.03125 0.37559,0.229275 0.73302,0.468706 1.09375,0.71875 0.11088,0.07684 0.23431,0.14 0.34375,0.21875 l -13.25,13.28125 -13.28125,-13.25 0,-0.03125 c 0.14144,-0.101868 0.29363,-0.182582 0.4375,-0.28125 0.18469,-0.126695 0.37394,-0.253672 0.5625,-0.375 0.16662,-0.107068 0.33042,-0.209704 0.5,-0.3125 0.0322,-0.01955 0.0615,-0.04311 0.0937,-0.0625 0.44273,-0.265374 0.88204,-0.514572 1.34375,-0.75 0.35643,-0.181745 0.72674,-0.368055 1.09375,-0.53125 0.13104,-0.05827 0.27392,-0.1004 0.40625,-0.15625 0.26694,-0.11297 0.54047,-0.209558 0.8125,-0.3125 0.31453,-0.119022 0.61651,-0.238467 0.9375,-0.34375 0.3731,-0.1223 0.74371,-0.240497 1.125,-0.34375 0.0932,-0.02523 0.18762,-0.03843 0.28125,-0.0625 0.2071,-0.05333 0.41566,-0.108664 0.625,-0.15625 0.46603,-0.105666 0.92994,-0.20468 1.40625,-0.28125 0.0616,-0.0099 0.12573,-0.02184 0.1875,-0.03125 0.51194,-0.07797 1.0401,-0.144261 1.5625,-0.1875 0.0207,-0.0017 0.0418,0.0016 0.0625,0 0.21597,-0.01729 0.43866,-0.02004 0.65625,-0.03125 0.38725,-0.01965 0.7954,-0.03125 1.1875,-0.03125 z m -19.375,10.84375 13.03125,13.03125 -12.125,12.09375 c -0.12868,-0.179 -0.25145,-0.34842 -0.375,-0.53125 -0.35654,-0.52761 -0.71911,-1.06716 -1.03125,-1.625 -0.0858,-0.15341 -0.16764,-0.31318 -0.25,-0.46875 -0.12457,-0.23532 -0.22729,-0.4786 -0.34375,-0.71875 -0.18499,-0.38077 -0.36726,-0.76399 -0.53125,-1.15625 -0.12778,-0.30696 -0.26045,-0.62391 -0.375,-0.9375 -0.0485,-0.13248 -0.0789,-0.27263 -0.125,-0.40625 -0.0745,-0.21634 -0.15066,-0.43702 -0.21875,-0.65625 -0.13964,-0.4496 -0.26297,-0.91399 -0.375,-1.375 -0.14004,-0.57626 -0.24853,-1.15766 -0.34375,-1.75 -0.008,-0.0524 -0.0232,-0.10369 -0.0312,-0.15625 -0.0831,-0.541108 -0.14325,-1.072216 -0.1875,-1.625 -0.0485,-0.606481 -0.0937,-1.225069 -0.0937,-1.84375 0,-0.49824 0.0309,-0.978454 0.0625,-1.46875 0.007,-0.115918 0.022,-0.228319 0.0312,-0.34375 0.0373,-0.468458 0.0906,-0.915072 0.15625,-1.375 0.0133,-0.09343 0.0168,-0.188193 0.0312,-0.28125 0.0626,-0.409077 0.13466,-0.817136 0.21875,-1.21875 0.013,-0.06153 0.0177,-0.126154 0.0312,-0.1875 0.10347,-0.468373 0.24301,-0.9492 0.375,-1.40625 0.14367,-0.497509 0.29261,-0.985814 0.46875,-1.46875 0.17614,-0.482936 0.35527,-0.939091 0.5625,-1.40625 0.39933,-0.90022 0.86773,-1.789916 1.375,-2.625 0.0193,-0.03172 0.0431,-0.06214 0.0625,-0.09375 z m 38.75,0 c 0.21082,0.343051 0.40095,0.676488 0.59375,1.03125 0.0552,0.10119 0.10251,0.210398 0.15625,0.3125 0.11707,0.223424 0.23397,0.459785 0.34375,0.6875 0.11008,0.22742 0.2098,0.455984 0.3125,0.6875 0.20723,0.467159 0.38636,0.923314 0.5625,1.40625 0.11991,0.329956 0.2389,0.663136 0.34375,1 0.0491,0.157 0.1105,0.310314 0.15625,0.46875 0.0571,0.198991 0.10445,0.392568 0.15625,0.59375 0.0798,0.307049 0.15169,0.625554 0.21875,0.9375 0.0111,0.05237 0.0205,0.103747 0.0312,0.15625 0.0957,0.460758 0.18289,0.935697 0.25,1.40625 0.0401,0.285694 0.0644,0.586012 0.0937,0.875 0.0291,0.283517 0.0441,0.557203 0.0625,0.84375 0.0316,0.490296 0.0625,0.97051 0.0625,1.46875 0,0.392105 -0.0116,0.769001 -0.0312,1.15625 -0.003,0.05174 0.003,0.104598 0,0.15625 -0.0193,0.334664 -0.0601,0.669357 -0.0937,1 -0.0388,0.381916 -0.0675,0.780145 -0.125,1.15625 -0.008,0.0526 -0.0228,0.10381 -0.0312,0.15625 -0.0952,0.59234 -0.23496,1.17374 -0.375,1.75 -0.11203,0.46101 -0.23536,0.9254 -0.375,1.375 -0.0349,0.1124 -0.0572,0.2321 -0.0937,0.34375 -0.0791,0.24077 -0.16311,0.4816 -0.25,0.71875 -0.11455,0.31359 -0.24722,0.63054 -0.375,0.9375 -0.15509,0.37097 -0.32611,0.73304 -0.5,1.09375 -0.0757,0.15734 -0.13956,0.31345 -0.21875,0.46875 -0.0897,0.17579 -0.18717,0.35814 -0.28125,0.53125 -0.13049,0.24006 -0.26746,0.48404 -0.40625,0.71875 -0.0436,0.0736 -0.0806,0.1457 -0.125,0.21875 -0.012,0.0197 -0.0192,0.0428 -0.0312,0.0625 -0.0433,0.0707 -0.081,0.14854 -0.125,0.21875 -0.21723,0.34717 -0.48363,0.66583 -0.71875,1 -0.048,0.0681 -0.0763,0.15117 -0.125,0.21875 l -12.09375,-12.125 13.03125,-13.03125 z m -19.375,19.375 11.84375,11.875 c -0.43199,0.26526 -0.86232,0.51306 -1.3125,0.75 -0.45018,0.23694 -0.90784,0.44902 -1.375,0.65625 -0.43755,0.19409 -0.89233,0.39564 -1.34375,0.5625 -0.0305,0.0112 -0.0632,0.0202 -0.0937,0.0312 -0.48294,0.17614 -0.97124,0.32508 -1.46875,0.46875 -0.49751,0.14367 -0.98912,0.26517 -1.5,0.375 -0.42992,0.0924 -0.8739,0.18245 -1.3125,0.25 -0.0826,0.0127 -0.16712,0.0194 -0.25,0.0312 -0.40046,0.0571 -0.81178,0.1205 -1.21875,0.15625 -0.2693,0.0233 -0.54061,0.0174 -0.8125,0.0312 -0.3895,0.0201 -0.76171,0.0312 -1.15625,0.0312 -0.3921,0 -0.80025,-0.0116 -1.1875,-0.0312 -0.27189,-0.0138 -0.5432,-0.008 -0.8125,-0.0312 -0.40697,-0.0357 -0.81829,-0.0991 -1.21875,-0.15625 -0.0845,-0.0121 -0.1658,-0.0183 -0.25,-0.0312 -0.75518,-0.11648 -1.49009,-0.27942 -2.21875,-0.46875 -0.19737,-0.0508 -0.39849,-0.10029 -0.59375,-0.15625 -0.43374,-0.12526 -0.85853,-0.25625 -1.28125,-0.40625 -0.0839,-0.0298 -0.16657,-0.063 -0.25,-0.0937 -0.46539,-0.17051 -0.92441,-0.36298 -1.375,-0.5625 -0.46716,-0.20723 -0.92482,-0.41931 -1.375,-0.65625 -0.4167,-0.21932 -0.81759,-0.44387 -1.21875,-0.6875 -0.0317,-0.0193 -0.0621,-0.0431 -0.0937,-0.0625 l 11.875,-11.875 z"
         style="fill:none;stroke:url(#linearGradient2708);stroke-width:0.78806192;stroke-linecap:square;stroke-linejoin:miter;stroke-miterlimit:4;stroke-opacity:0.44090911;stroke-dasharray:none;stroke-dashoffset:4.15;filter:url(#filter4076)" />
      <path
         inkscape:connector-curvature="0"
         style="fill:none;stroke:url(#linearGradient3300);stroke-width:0.46270487;stroke-linecap:square;stroke-linejoin:miter;stroke-miterlimit:4;stroke-opacity:0.44090911;stroke-dasharray:none;stroke-dashoffset:4.15;filter:url(#filter4055)"
         d="m 228.76562,67.812497 c -15.84446,-3e-6 -28.6875,12.87429 -28.6875,28.71875 0,15.844463 12.84304,28.718753 28.6875,28.718753 15.84446,0 28.71875,-12.87429 28.71875,-28.718753 0,-15.844459 -12.87429,-28.71875 -28.71875,-28.71875 z m 0,6 c 0.61868,0 1.23727,0.01396 1.84375,0.0625 0.0207,0.0016 0.0418,-0.0017 0.0625,0 0.5224,0.04324 1.05056,0.109528 1.5625,0.1875 0.0618,0.0094 0.12589,0.02135 0.1875,0.03125 0.47631,0.07657 0.94022,0.175584 1.40625,0.28125 0.20934,0.04759 0.4179,0.102924 0.625,0.15625 0.0926,0.02384 0.18914,0.03753 0.28125,0.0625 0.38129,0.103253 0.7519,0.22145 1.125,0.34375 0.3168,0.103847 0.62699,0.226541 0.9375,0.34375 0.27203,0.102942 0.54556,0.19953 0.8125,0.3125 0.13199,0.05586 0.27555,0.09798 0.40625,0.15625 0.36701,0.163195 0.73732,0.349505 1.09375,0.53125 0.46171,0.235428 0.90102,0.484626 1.34375,0.75 0.0323,0.01938 0.0615,0.04297 0.0937,0.0625 0.16601,0.100903 0.33681,0.2075 0.5,0.3125 0.22284,0.143196 0.43887,0.286821 0.65625,0.4375 0.11088,0.07684 0.23431,0.14 0.34375,0.21875 l -13.25,13.28125 -13.28125,-13.28125 c 0.1108,-0.0798 0.23145,-0.14091 0.34375,-0.21875 0.36102,-0.250182 0.71797,-0.489353 1.09375,-0.71875 0.0122,-0.0074 0.0191,-0.02384 0.0312,-0.03125 0.48094,-0.292337 0.96515,-0.555716 1.46875,-0.8125 0.43445,-0.221525 0.89368,-0.431134 1.34375,-0.625 0.0424,-0.01828 0.0824,-0.04447 0.125,-0.0625 0.0427,-0.01807 0.0822,-0.04469 0.125,-0.0625 0.15367,-0.06397 0.3134,-0.09557 0.46875,-0.15625 0.38069,-0.148676 0.76592,-0.309089 1.15625,-0.4375 0.35475,-0.116285 0.73158,-0.213422 1.09375,-0.3125 0.11343,-0.03103 0.22963,-0.06444 0.34375,-0.09375 0.2071,-0.05333 0.41566,-0.108664 0.625,-0.15625 0.46603,-0.105666 0.92994,-0.204679 1.40625,-0.28125 0.0616,-0.0099 0.12572,-0.02184 0.1875,-0.03125 0.51194,-0.07797 1.0401,-0.144261 1.5625,-0.1875 0.62255,-0.05126 1.23929,-0.0625 1.875,-0.0625 z m -19.34375,10.84375 13.03125,13.03125 -12.125,12.125003 c -0.0487,-0.0676 -0.077,-0.15061 -0.125,-0.21875 -0.23513,-0.33417 -0.50152,-0.65283 -0.71875,-1 -0.0566,-0.0904 -0.10093,-0.19001 -0.15625,-0.28125 -0.23264,-0.38274 -0.44602,-0.75914 -0.65625,-1.15625 -0.12457,-0.23532 -0.22729,-0.4786 -0.34375,-0.71875 -0.18499,-0.38077 -0.36726,-0.76399 -0.53125,-1.15625 -0.12778,-0.30696 -0.26045,-0.62391 -0.375,-0.9375 -0.0485,-0.13248 -0.0789,-0.27263 -0.125,-0.40625 -0.0745,-0.21634 -0.15066,-0.43702 -0.21875,-0.65625 -0.13964,-0.4496 -0.26297,-0.91399 -0.375,-1.375 -0.14004,-0.57626 -0.27978,-1.15766 -0.375,-1.75 -0.008,-0.0524 -0.0232,-0.10369 -0.0312,-0.156253 -0.0405,-0.264496 -0.0625,-0.545096 -0.0937,-0.8125 -0.0135,-0.115396 -0.0195,-0.227841 -0.0312,-0.34375 -0.0336,-0.330643 -0.0745,-0.665336 -0.0937,-1 -0.0252,-0.438457 -0.0312,-0.867754 -0.0312,-1.3125 0,-0.49824 0.0309,-0.978454 0.0625,-1.46875 0.0109,-0.168956 0.0167,-0.332084 0.0312,-0.5 0.0323,-0.373606 0.0748,-0.756767 0.125,-1.125 0.004,-0.03111 -0.004,-0.06268 0,-0.09375 0.0671,-0.470553 0.15432,-0.945492 0.25,-1.40625 0.004,-0.02008 -0.004,-0.04244 0,-0.0625 0.0263,-0.125007 0.0654,-0.25076 0.0937,-0.375 0.0668,-0.296186 0.14045,-0.58331 0.21875,-0.875 0.0703,-0.259976 0.13949,-0.525042 0.21875,-0.78125 0.11066,-0.359428 0.24723,-0.7109 0.375,-1.0625 0.17614,-0.482937 0.35527,-0.939091 0.5625,-1.40625 0.1027,-0.231516 0.20242,-0.46008 0.3125,-0.6875 0.10978,-0.227715 0.22668,-0.464076 0.34375,-0.6875 0.23693,-0.450176 0.51599,-0.911761 0.78125,-1.34375 z m 38.71875,0 c 0.0194,0.03161 0.0432,0.06204 0.0625,0.09375 0.50727,0.835085 0.97567,1.724779 1.375,2.625 0.20723,0.467159 0.38636,0.923313 0.5625,1.40625 0.17614,0.482937 0.32508,0.971241 0.46875,1.46875 0.13199,0.45705 0.27153,0.937877 0.375,1.40625 0.009,0.04146 0.0223,0.08345 0.0312,0.125 0.0111,0.05237 0.0205,0.103747 0.0312,0.15625 0.0168,0.08116 0.0153,0.168526 0.0312,0.25 0.0559,0.289305 0.11143,0.581909 0.15625,0.875 0.0481,0.31486 0.0899,0.649791 0.125,0.96875 0.007,0.06204 0.0249,0.125309 0.0312,0.1875 0.0291,0.283517 0.0441,0.557203 0.0625,0.84375 0.007,0.104443 0.0259,0.207679 0.0312,0.3125 0.0193,0.381884 0.0312,0.769521 0.0312,1.15625 0,0.618681 -0.0452,1.237269 -0.0937,1.84375 -0.029,0.362227 -0.0792,0.705178 -0.125,1.0625 -0.0235,0.183782 -0.0346,0.380113 -0.0625,0.5625 -0.0352,0.230413 -0.0829,0.459423 -0.125,0.687503 -0.0758,0.40848 -0.15266,0.81818 -0.25,1.21875 -0.11203,0.46101 -0.23536,0.9254 -0.375,1.375 -0.0349,0.1124 -0.0572,0.2321 -0.0937,0.34375 -0.0791,0.24077 -0.16311,0.4816 -0.25,0.71875 -0.11455,0.31359 -0.24722,0.63054 -0.375,0.9375 -0.15509,0.37097 -0.32611,0.73304 -0.5,1.09375 -0.0757,0.15734 -0.13956,0.31345 -0.21875,0.46875 -0.0897,0.17579 -0.18717,0.35814 -0.28125,0.53125 -0.0465,0.0856 -0.10866,0.16507 -0.15625,0.25 -0.30989,0.5529 -0.64646,1.10184 -1,1.625 -0.12355,0.18283 -0.24632,0.35225 -0.375,0.53125 l -12.125,-12.093753 13.03125,-13.03125 z m -19.34375,19.375003 11.84375,11.875 c -0.0316,0.0194 -0.062,0.0432 -0.0937,0.0625 -0.40116,0.24363 -0.80205,0.46818 -1.21875,0.6875 -0.45018,0.23693 -0.90784,0.44902 -1.375,0.65625 -0.11357,0.0503 -0.22922,0.10778 -0.34375,0.15625 -0.33568,0.14238 -0.68762,0.27973 -1.03125,0.40625 -0.0847,0.031 -0.16484,0.0637 -0.25,0.0937 -0.42272,0.15 -0.84751,0.28099 -1.28125,0.40625 -0.49751,0.14367 -0.98912,0.26517 -1.5,0.375 -0.42992,0.0924 -0.8739,0.18245 -1.3125,0.25 -0.0826,0.0127 -0.16712,0.0194 -0.25,0.0312 -0.40046,0.0571 -0.81178,0.1205 -1.21875,0.15625 -0.2693,0.0233 -0.54061,0.0174 -0.8125,0.0312 -0.38725,0.0196 -0.7954,0.0312 -1.1875,0.0312 -0.39211,0 -0.769,-0.0116 -1.15625,-0.0312 -0.27189,-0.0138 -0.5432,-0.008 -0.8125,-0.0312 -0.40697,-0.0357 -0.81829,-0.0991 -1.21875,-0.15625 -0.0829,-0.0118 -0.16741,-0.0185 -0.25,-0.0312 -0.4386,-0.0675 -0.88258,-0.15758 -1.3125,-0.25 -0.30803,-0.0662 -0.603,-0.14013 -0.90625,-0.21875 -0.19737,-0.0508 -0.39849,-0.10029 -0.59375,-0.15625 -0.49751,-0.14367 -0.98582,-0.29261 -1.46875,-0.46875 -0.0306,-0.0112 -0.0632,-0.02 -0.0937,-0.0312 -0.45142,-0.16686 -0.9062,-0.36841 -1.34375,-0.5625 -0.46716,-0.20723 -0.92483,-0.41932 -1.375,-0.65625 -0.45018,-0.23693 -0.88051,-0.48474 -1.3125,-0.75 l 11.875,-11.875 z"
         id="path4049" />
    </g>
  </g>
</svg>
